STARTFONT 2.1
COMMENT Generated BDF for GB2312 (Unicode Encoding)
FONT -SongTi-R-Normal--12-100-96-96-m-144-GB2312-2005-0
SIZE 12 96 96
FONTBOUNDINGBOX 11 13 0 -3
STARTPROPERTIES 12
FONT_ASCENT 10
FONT_DESCENT 2
DEFAULT_CHAR 12288
Copyright "Copyright (c) 2005 DynaComware Corp."
POINT_SIZE 120
FONT "-SongTi-R-Normal--12-100-96-96-m-144-GB2312-2005-0"
WEIGHT 10
RESOLUTION 100
RESOLUTION_X 96
RESOLUTION_Y 96
X_HEIGHT 4294967295
QUAD_WIDTH 11
ENDPROPERTIES
CHARS 7568
STARTCHAR space
ENCODING 32
SWIDTH 240 0
DWIDTH 3 0
BBX 0 0 0 0
BITMAP
ENDCHAR
STARTCHAR p21
ENCODING 33
SWIDTH 240 0
DWIDTH 6 0
BBX 6 12 0 -2
BITMAP
00
00
60
60
60
60
20
20
00
60
00
00
ENDCHAR
STARTCHAR p22
ENCODING 34
SWIDTH 240 0
DWIDTH 6 0
BBX 6 12 0 -2
BITMAP
00
50
50
50
50
00
00
00
00
00
00
00
ENDCHAR
STARTCHAR p23
ENCODING 35
SWIDTH 240 0
DWIDTH 6 0
BBX 6 12 0 -2
BITMAP
00
00
50
50
F8
50
50
F8
50
50
00
00
ENDCHAR
STARTCHAR p24
ENCODING 36
SWIDTH 240 0
DWIDTH 6 0
BBX 6 12 0 -2
BITMAP
00
00
88
88
50
50
20
F8
20
20
00
00
ENDCHAR
STARTCHAR p25
ENCODING 37
SWIDTH 240 0
DWIDTH 6 0
BBX 6 12 0 -2
BITMAP
00
E8
A8
B0
F0
20
78
68
A8
B8
00
00
ENDCHAR
STARTCHAR p26
ENCODING 38
SWIDTH 240 0
DWIDTH 6 0
BBX 6 12 0 -2
BITMAP
00
00
70
50
50
60
A8
90
90
68
00
00
ENDCHAR
STARTCHAR p27
ENCODING 39
SWIDTH 240 0
DWIDTH 6 0
BBX 6 12 0 -2
BITMAP
00
20
20
40
40
00
00
00
00
00
00
00
ENDCHAR
STARTCHAR p28
ENCODING 40
SWIDTH 240 0
DWIDTH 6 0
BBX 6 12 0 -2
BITMAP
08
10
10
20
20
20
20
20
20
10
10
08
ENDCHAR
STARTCHAR p29
ENCODING 41
SWIDTH 240 0
DWIDTH 6 0
BBX 6 12 0 -2
BITMAP
80
40
40
20
20
20
20
20
20
40
40
80
ENDCHAR
STARTCHAR p2A
ENCODING 42
SWIDTH 240 0
DWIDTH 6 0
BBX 6 12 0 -2
BITMAP
00
20
A8
70
70
A8
20
00
00
00
00
00
ENDCHAR
STARTCHAR p2B
ENCODING 43
SWIDTH 240 0
DWIDTH 6 0
BBX 6 12 0 -2
BITMAP
00
00
00
20
20
F8
20
20
00
00
00
00
ENDCHAR
STARTCHAR p2C
ENCODING 44
SWIDTH 240 0
DWIDTH 5 0
BBX 5 12 0 -2
BITMAP
00
00
00
00
00
00
00
00
C0
C0
40
80
ENDCHAR
STARTCHAR p2D
ENCODING 45
SWIDTH 240 0
DWIDTH 6 0
BBX 6 12 0 -2
BITMAP
00
00
00
00
00
78
00
00
00
00
00
00
ENDCHAR
STARTCHAR p2E
ENCODING 46
SWIDTH 240 0
DWIDTH 5 0
BBX 5 12 0 -2
BITMAP
00
00
00
00
00
00
00
C0
C0
00
00
00
ENDCHAR
STARTCHAR p2F
ENCODING 47
SWIDTH 240 0
DWIDTH 6 0
BBX 6 12 0 -2
BITMAP
00
08
08
10
10
20
20
40
40
80
80
00
ENDCHAR
STARTCHAR p30
ENCODING 48
SWIDTH 240 0
DWIDTH 6 0
BBX 6 12 0 -2
BITMAP
00
70
88
88
88
88
88
88
88
70
00
00
ENDCHAR
STARTCHAR p31
ENCODING 49
SWIDTH 240 0
DWIDTH 6 0
BBX 6 12 0 -2
BITMAP
00
10
30
50
10
10
10
10
10
10
00
00
ENDCHAR
STARTCHAR p32
ENCODING 50
SWIDTH 240 0
DWIDTH 6 0
BBX 6 12 0 -2
BITMAP
00
70
88
08
08
10
20
40
80
F8
00
00
ENDCHAR
STARTCHAR p33
ENCODING 51
SWIDTH 240 0
DWIDTH 6 0
BBX 6 12 0 -2
BITMAP
00
70
88
08
08
30
08
08
88
70
00
00
ENDCHAR
STARTCHAR p34
ENCODING 52
SWIDTH 240 0
DWIDTH 6 0
BBX 6 12 0 -2
BITMAP
00
10
10
30
50
50
90
F8
10
10
00
00
ENDCHAR
STARTCHAR p35
ENCODING 53
SWIDTH 240 0
DWIDTH 6 0
BBX 6 12 0 -2
BITMAP
00
F8
80
80
F0
88
08
08
88
70
00
00
ENDCHAR
STARTCHAR p36
ENCODING 54
SWIDTH 240 0
DWIDTH 6 0
BBX 6 12 0 -2
BITMAP
00
70
88
80
F0
88
88
88
88
70
00
00
ENDCHAR
STARTCHAR p37
ENCODING 55
SWIDTH 240 0
DWIDTH 6 0
BBX 6 12 0 -2
BITMAP
00
F8
08
08
10
10
20
20
40
40
00
00
ENDCHAR
STARTCHAR p38
ENCODING 56
SWIDTH 240 0
DWIDTH 6 0
BBX 6 12 0 -2
BITMAP
00
70
88
88
88
70
88
88
88
70
00
00
ENDCHAR
STARTCHAR p39
ENCODING 57
SWIDTH 240 0
DWIDTH 6 0
BBX 6 12 0 -2
BITMAP
00
70
88
88
88
88
78
08
88
70
00
00
ENDCHAR
STARTCHAR p3A
ENCODING 58
SWIDTH 240 0
DWIDTH 6 0
BBX 6 12 0 -2
BITMAP
00
00
00
00
C0
C0
00
00
00
C0
C0
00
ENDCHAR
STARTCHAR p3B
ENCODING 59
SWIDTH 240 0
DWIDTH 6 0
BBX 6 12 0 -2
BITMAP
00
00
00
00
C0
C0
00
00
C0
C0
40
80
ENDCHAR
STARTCHAR p3C
ENCODING 60
SWIDTH 240 0
DWIDTH 6 0
BBX 6 12 0 -2
BITMAP
00
08
10
20
40
80
40
20
10
08
00
00
ENDCHAR
STARTCHAR p3D
ENCODING 61
SWIDTH 240 0
DWIDTH 6 0
BBX 6 12 0 -2
BITMAP
00
00
00
00
78
00
78
00
00
00
00
00
ENDCHAR
STARTCHAR p3E
ENCODING 62
SWIDTH 240 0
DWIDTH 6 0
BBX 6 12 0 -2
BITMAP
00
80
40
20
10
08
10
20
40
80
00
00
ENDCHAR
STARTCHAR p3F
ENCODING 63
SWIDTH 240 0
DWIDTH 6 0
BBX 6 12 0 -2
BITMAP
00
70
88
88
08
10
20
20
00
20
00
00
ENDCHAR
STARTCHAR p40
ENCODING 64
SWIDTH 240 0
DWIDTH 6 0
BBX 6 12 0 -2
BITMAP
00
70
88
98
A8
A8
A8
98
80
78
00
00
ENDCHAR
STARTCHAR p41
ENCODING 65
SWIDTH 240 0
DWIDTH 6 0
BBX 6 12 0 -2
BITMAP
00
20
20
50
50
88
88
F8
88
88
00
00
ENDCHAR
STARTCHAR p42
ENCODING 66
SWIDTH 240 0
DWIDTH 6 0
BBX 6 12 0 -2
BITMAP
00
F0
88
88
88
F0
88
88
88
F0
00
00
ENDCHAR
STARTCHAR p43
ENCODING 67
SWIDTH 240 0
DWIDTH 6 0
BBX 6 12 0 -2
BITMAP
00
70
88
88
80
80
80
88
88
70
00
00
ENDCHAR
STARTCHAR p44
ENCODING 68
SWIDTH 240 0
DWIDTH 6 0
BBX 6 12 0 -2
BITMAP
00
F0
88
88
88
88
88
88
88
F0
00
00
ENDCHAR
STARTCHAR p45
ENCODING 69
SWIDTH 240 0
DWIDTH 6 0
BBX 6 12 0 -2
BITMAP
00
F0
80
80
80
F0
80
80
80
F0
00
00
ENDCHAR
STARTCHAR p46
ENCODING 70
SWIDTH 240 0
DWIDTH 6 0
BBX 6 12 0 -2
BITMAP
00
F0
80
80
80
F0
80
80
80
80
00
00
ENDCHAR
STARTCHAR p47
ENCODING 71
SWIDTH 240 0
DWIDTH 6 0
BBX 6 12 0 -2
BITMAP
00
70
88
88
80
80
98
88
88
70
00
00
ENDCHAR
STARTCHAR p48
ENCODING 72
SWIDTH 240 0
DWIDTH 6 0
BBX 6 12 0 -2
BITMAP
00
88
88
88
88
F8
88
88
88
88
00
00
ENDCHAR
STARTCHAR p49
ENCODING 73
SWIDTH 240 0
DWIDTH 6 0
BBX 6 12 0 -2
BITMAP
00
20
20
20
20
20
20
20
20
20
00
00
ENDCHAR
STARTCHAR p4A
ENCODING 74
SWIDTH 240 0
DWIDTH 6 0
BBX 6 12 0 -2
BITMAP
00
20
20
20
20
20
20
20
20
20
C0
00
ENDCHAR
STARTCHAR p4B
ENCODING 75
SWIDTH 240 0
DWIDTH 6 0
BBX 6 12 0 -2
BITMAP
00
90
90
A0
A0
C0
A0
A0
90
90
00
00
ENDCHAR
STARTCHAR p4C
ENCODING 76
SWIDTH 240 0
DWIDTH 6 0
BBX 6 12 0 -2
BITMAP
00
40
40
40
40
40
40
40
40
78
00
00
ENDCHAR
STARTCHAR p4D
ENCODING 77
SWIDTH 240 0
DWIDTH 6 0
BBX 6 12 0 -2
BITMAP
00
88
88
D8
F8
A8
88
88
88
88
00
00
ENDCHAR
STARTCHAR p4E
ENCODING 78
SWIDTH 240 0
DWIDTH 6 0
BBX 6 12 0 -2
BITMAP
00
88
88
88
C8
A8
98
88
88
88
00
00
ENDCHAR
STARTCHAR p4F
ENCODING 79
SWIDTH 240 0
DWIDTH 6 0
BBX 6 12 0 -2
BITMAP
00
70
88
88
88
88
88
88
88
70
00
00
ENDCHAR
STARTCHAR p50
ENCODING 80
SWIDTH 240 0
DWIDTH 6 0
BBX 6 12 0 -2
BITMAP
00
F0
88
88
88
88
F0
80
80
80
00
00
ENDCHAR
STARTCHAR p51
ENCODING 81
SWIDTH 240 0
DWIDTH 6 0
BBX 6 12 0 -2
BITMAP
00
70
88
88
88
88
88
88
88
70
18
00
ENDCHAR
STARTCHAR p52
ENCODING 82
SWIDTH 240 0
DWIDTH 6 0
BBX 6 12 0 -2
BITMAP
00
F0
88
88
88
90
E0
90
88
88
00
00
ENDCHAR
STARTCHAR p53
ENCODING 83
SWIDTH 240 0
DWIDTH 6 0
BBX 6 12 0 -2
BITMAP
00
70
88
88
80
60
10
88
88
70
00
00
ENDCHAR
STARTCHAR p54
ENCODING 84
SWIDTH 240 0
DWIDTH 6 0
BBX 6 12 0 -2
BITMAP
00
F8
20
20
20
20
20
20
20
20
00
00
ENDCHAR
STARTCHAR p55
ENCODING 85
SWIDTH 240 0
DWIDTH 6 0
BBX 6 12 0 -2
BITMAP
00
88
88
88
88
88
88
88
88
70
00
00
ENDCHAR
STARTCHAR p56
ENCODING 86
SWIDTH 240 0
DWIDTH 6 0
BBX 6 12 0 -2
BITMAP
00
88
88
88
50
50
50
20
20
20
00
00
ENDCHAR
STARTCHAR p57
ENCODING 87
SWIDTH 240 0
DWIDTH 6 0
BBX 6 12 0 -2
BITMAP
00
88
88
A8
A8
A8
A8
50
50
50
00
00
ENDCHAR
STARTCHAR p58
ENCODING 88
SWIDTH 240 0
DWIDTH 6 0
BBX 6 12 0 -2
BITMAP
00
88
88
50
50
20
50
50
88
88
00
00
ENDCHAR
STARTCHAR p59
ENCODING 89
SWIDTH 240 0
DWIDTH 6 0
BBX 6 12 0 -2
BITMAP
00
88
88
50
50
20
20
20
20
20
00
00
ENDCHAR
STARTCHAR p5A
ENCODING 90
SWIDTH 240 0
DWIDTH 6 0
BBX 6 12 0 -2
BITMAP
00
F8
08
10
10
20
40
40
80
F8
00
00
ENDCHAR
STARTCHAR p5B
ENCODING 91
SWIDTH 240 0
DWIDTH 6 0
BBX 6 12 0 -2
BITMAP
38
20
20
20
20
20
20
20
20
20
20
38
ENDCHAR
STARTCHAR p5C
ENCODING 92
SWIDTH 240 0
DWIDTH 6 0
BBX 6 12 0 -2
BITMAP
00
80
80
40
40
20
20
10
10
08
08
00
ENDCHAR
STARTCHAR p5D
ENCODING 93
SWIDTH 240 0
DWIDTH 6 0
BBX 6 12 0 -2
BITMAP
E0
20
20
20
20
20
20
20
20
20
20
E0
ENDCHAR
STARTCHAR p5E
ENCODING 94
SWIDTH 240 0
DWIDTH 6 0
BBX 6 12 0 -2
BITMAP
00
20
50
88
00
00
00
00
00
00
00
00
ENDCHAR
STARTCHAR p5F
ENCODING 95
SWIDTH 240 0
DWIDTH 6 0
BBX 6 12 0 -2
BITMAP
00
00
00
00
00
00
00
00
00
78
00
00
ENDCHAR
STARTCHAR p60
ENCODING 96
SWIDTH 240 0
DWIDTH 6 0
BBX 6 12 0 -2
BITMAP
00
10
10
08
08
00
00
00
00
00
00
00
ENDCHAR
STARTCHAR p61
ENCODING 97
SWIDTH 240 0
DWIDTH 6 0
BBX 6 12 0 -2
BITMAP
00
00
00
70
88
08
78
88
88
74
00
00
ENDCHAR
STARTCHAR p62
ENCODING 98
SWIDTH 240 0
DWIDTH 6 0
BBX 6 12 0 -2
BITMAP
00
80
80
B0
C8
88
88
88
C8
B0
00
00
ENDCHAR
STARTCHAR p63
ENCODING 99
SWIDTH 240 0
DWIDTH 6 0
BBX 6 12 0 -2
BITMAP
00
00
00
70
88
88
80
80
88
70
00
00
ENDCHAR
STARTCHAR p64
ENCODING 100
SWIDTH 240 0
DWIDTH 6 0
BBX 6 12 0 -2
BITMAP
00
08
08
68
98
88
88
88
98
68
00
00
ENDCHAR
STARTCHAR p65
ENCODING 101
SWIDTH 240 0
DWIDTH 6 0
BBX 6 12 0 -2
BITMAP
00
00
00
70
88
88
F8
80
88
70
00
00
ENDCHAR
STARTCHAR p66
ENCODING 102
SWIDTH 240 0
DWIDTH 6 0
BBX 6 12 0 -2
BITMAP
00
18
20
20
70
20
20
20
20
20
00
00
ENDCHAR
STARTCHAR p67
ENCODING 103
SWIDTH 240 0
DWIDTH 6 0
BBX 6 12 0 -2
BITMAP
00
00
00
74
88
88
88
98
68
08
88
70
ENDCHAR
STARTCHAR p68
ENCODING 104
SWIDTH 240 0
DWIDTH 6 0
BBX 6 12 0 -2
BITMAP
00
80
80
B0
C8
88
88
88
88
88
00
00
ENDCHAR
STARTCHAR p69
ENCODING 105
SWIDTH 240 0
DWIDTH 6 0
BBX 6 12 0 -2
BITMAP
00
20
20
00
20
20
20
20
20
20
00
00
ENDCHAR
STARTCHAR p6A
ENCODING 106
SWIDTH 240 0
DWIDTH 6 0
BBX 6 12 0 -2
BITMAP
00
20
20
00
20
20
20
20
20
20
20
C0
ENDCHAR
STARTCHAR p6B
ENCODING 107
SWIDTH 240 0
DWIDTH 6 0
BBX 6 12 0 -2
BITMAP
00
80
80
88
90
A0
C0
A0
90
88
00
00
ENDCHAR
STARTCHAR p6C
ENCODING 108
SWIDTH 240 0
DWIDTH 6 0
BBX 6 12 0 -2
BITMAP
00
20
20
20
20
20
20
20
20
20
00
00
ENDCHAR
STARTCHAR p6D
ENCODING 109
SWIDTH 240 0
DWIDTH 6 0
BBX 6 12 0 -2
BITMAP
00
00
00
D8
A4
A4
A4
A4
A4
A4
00
00
ENDCHAR
STARTCHAR p6E
ENCODING 110
SWIDTH 240 0
DWIDTH 6 0
BBX 6 12 0 -2
BITMAP
00
00
00
B0
C8
88
88
88
88
88
00
00
ENDCHAR
STARTCHAR p6F
ENCODING 111
SWIDTH 240 0
DWIDTH 6 0
BBX 6 12 0 -2
BITMAP
00
00
00
70
88
88
88
88
88
70
00
00
ENDCHAR
STARTCHAR p70
ENCODING 112
SWIDTH 240 0
DWIDTH 6 0
BBX 6 12 0 -2
BITMAP
00
00
00
B0
C8
88
88
88
C8
B0
80
80
ENDCHAR
STARTCHAR p71
ENCODING 113
SWIDTH 240 0
DWIDTH 6 0
BBX 6 12 0 -2
BITMAP
00
00
00
68
98
88
88
88
98
68
08
08
ENDCHAR
STARTCHAR p72
ENCODING 114
SWIDTH 240 0
DWIDTH 6 0
BBX 6 12 0 -2
BITMAP
00
00
00
58
60
40
40
40
40
40
00
00
ENDCHAR
STARTCHAR p73
ENCODING 115
SWIDTH 240 0
DWIDTH 6 0
BBX 6 12 0 -2
BITMAP
00
00
00
70
88
80
70
08
88
70
00
00
ENDCHAR
STARTCHAR p74
ENCODING 116
SWIDTH 240 0
DWIDTH 6 0
BBX 6 12 0 -2
BITMAP
00
00
20
20
78
20
20
20
20
18
00
00
ENDCHAR
STARTCHAR p75
ENCODING 117
SWIDTH 240 0
DWIDTH 6 0
BBX 6 12 0 -2
BITMAP
00
00
00
88
88
88
88
88
98
68
00
00
ENDCHAR
STARTCHAR p76
ENCODING 118
SWIDTH 240 0
DWIDTH 6 0
BBX 6 12 0 -2
BITMAP
00
00
00
88
88
88
50
50
20
20
00
00
ENDCHAR
STARTCHAR p77
ENCODING 119
SWIDTH 240 0
DWIDTH 6 0
BBX 6 12 0 -2
BITMAP
00
00
00
88
A8
A8
A8
50
50
50
00
00
ENDCHAR
STARTCHAR p78
ENCODING 120
SWIDTH 240 0
DWIDTH 6 0
BBX 6 12 0 -2
BITMAP
00
00
00
88
88
50
20
50
88
88
00
00
ENDCHAR
STARTCHAR p79
ENCODING 121
SWIDTH 240 0
DWIDTH 6 0
BBX 6 12 0 -2
BITMAP
00
00
00
88
88
88
50
50
20
20
40
40
ENDCHAR
STARTCHAR p7A
ENCODING 122
SWIDTH 240 0
DWIDTH 6 0
BBX 6 12 0 -2
BITMAP
00
00
00
F8
08
10
20
40
80
F8
00
00
ENDCHAR
STARTCHAR p7B
ENCODING 123
SWIDTH 240 0
DWIDTH 6 0
BBX 6 12 0 -2
BITMAP
08
10
10
10
10
20
20
10
10
10
10
08
ENDCHAR
STARTCHAR p7C
ENCODING 124
SWIDTH 240 0
DWIDTH 6 0
BBX 6 12 0 -2
BITMAP
00
20
20
20
20
20
20
20
20
20
20
00
ENDCHAR
STARTCHAR p7D
ENCODING 125
SWIDTH 240 0
DWIDTH 6 0
BBX 6 12 0 -2
BITMAP
80
40
40
40
40
20
20
40
40
40
40
80
ENDCHAR
STARTCHAR p7E
ENCODING 126
SWIDTH 240 0
DWIDTH 6 0
BBX 6 12 0 -2
BITMAP
FC
00
00
00
00
00
00
00
00
00
00
00
ENDCHAR
STARTCHAR pA4
ENCODING 164
SWIDTH 440 0
DWIDTH 13 0
BBX 11 12 0 -2
BITMAP
0000
0000
2040
1680
0900
1080
1080
0900
1680
2040
0000
0000
ENDCHAR
STARTCHAR pA7
ENCODING 167
SWIDTH 440 0
DWIDTH 13 0
BBX 11 12 0 -2
BITMAP
0E00
1100
1000
0C00
1200
1100
0900
0600
0100
1100
0E00
0000
ENDCHAR
STARTCHAR pA8
ENCODING 168
SWIDTH 440 0
DWIDTH 13 0
BBX 11 12 0 -2
BITMAP
0000
30C0
30C0
0000
0000
0000
0000
0000
0000
0000
0000
0000
ENDCHAR
STARTCHAR pB0
ENCODING 176
SWIDTH 440 0
DWIDTH 13 0
BBX 11 12 0 -2
BITMAP
0000
0000
7000
5000
7000
0000
0000
0000
0000
0000
0000
0000
ENDCHAR
STARTCHAR pB1
ENCODING 177
SWIDTH 440 0
DWIDTH 13 0
BBX 11 12 0 -2
BITMAP
0000
0400
0400
0400
3F80
0400
0400
0400
0000
3F80
0000
0000
ENDCHAR
STARTCHAR pB7
ENCODING 183
SWIDTH 440 0
DWIDTH 13 0
BBX 11 12 0 -2
BITMAP
0000
0000
0000
0000
0000
0600
0600
0000
0000
0000
0000
0000
ENDCHAR
STARTCHAR pD7
ENCODING 215
SWIDTH 440 0
DWIDTH 13 0
BBX 11 12 0 -2
BITMAP
0000
0000
0000
1100
0A00
0400
0A00
1100
0000
0000
0000
0000
ENDCHAR
STARTCHAR pE0
ENCODING 224
SWIDTH 440 0
DWIDTH 13 0
BBX 11 12 0 -2
BITMAP
0000
0400
0200
0000
0E80
1180
1080
1080
1180
0E80
0000
0000
ENDCHAR
STARTCHAR pE1
ENCODING 225
SWIDTH 440 0
DWIDTH 13 0
BBX 11 12 0 -2
BITMAP
0000
0200
0400
0000
0E80
1180
1080
1080
1180
0E80
0000
0000
ENDCHAR
STARTCHAR pE8
ENCODING 232
SWIDTH 440 0
DWIDTH 13 0
BBX 11 12 0 -2
BITMAP
0000
0400
0200
0000
0F00
1080
1F80
1000
1080
0F00
0000
0000
ENDCHAR
STARTCHAR pE9
ENCODING 233
SWIDTH 440 0
DWIDTH 13 0
BBX 11 12 0 -2
BITMAP
0000
0200
0400
0000
0F00
1080
1F80
1000
1080
0F00
0000
0000
ENDCHAR
STARTCHAR pEA
ENCODING 234
SWIDTH 440 0
DWIDTH 13 0
BBX 11 12 0 -2
BITMAP
0000
0600
0900
0000
0F00
1080
1F80
1000
1080
0F00
0000
0000
ENDCHAR
STARTCHAR pEC
ENCODING 236
SWIDTH 440 0
DWIDTH 13 0
BBX 11 12 0 -2
BITMAP
0000
0400
0200
0000
0400
0400
0400
0400
0400
0400
0000
0000
ENDCHAR
STARTCHAR pED
ENCODING 237
SWIDTH 440 0
DWIDTH 13 0
BBX 11 12 0 -2
BITMAP
0000
0200
0400
0000
0200
0200
0200
0200
0200
0200
0000
0000
ENDCHAR
STARTCHAR pF2
ENCODING 242
SWIDTH 440 0
DWIDTH 13 0
BBX 11 12 0 -2
BITMAP
0000
0400
0200
0000
0F00
1080
1080
1080
1080
0F00
0000
0000
ENDCHAR
STARTCHAR pF3
ENCODING 243
SWIDTH 440 0
DWIDTH 13 0
BBX 11 12 0 -2
BITMAP
0000
0200
0400
0000
0F00
1080
1080
1080
1080
0F00
0000
0000
ENDCHAR
STARTCHAR pF7
ENCODING 247
SWIDTH 440 0
DWIDTH 13 0
BBX 11 12 0 -2
BITMAP
0000
0000
0600
0600
0000
3FC0
0000
0600
0600
0000
0000
0000
ENDCHAR
STARTCHAR pF9
ENCODING 249
SWIDTH 440 0
DWIDTH 13 0
BBX 11 12 0 -2
BITMAP
0000
0000
0400
0200
1080
1080
1080
1080
1180
0E80
0000
0000
ENDCHAR
STARTCHAR pFA
ENCODING 250
SWIDTH 440 0
DWIDTH 13 0
BBX 11 12 0 -2
BITMAP
0000
0000
0200
0400
1080
1080
1080
1080
1180
0E80
0000
0000
ENDCHAR
STARTCHAR pFC
ENCODING 252
SWIDTH 440 0
DWIDTH 13 0
BBX 11 12 0 -2
BITMAP
0000
0000
0900
0000
1080
1080
1080
1080
1180
0E80
0000
0000
ENDCHAR
STARTCHAR p101
ENCODING 257
SWIDTH 440 0
DWIDTH 13 0
BBX 11 12 0 -2
BITMAP
0000
0000
0F00
0000
0E80
1180
1080
1080
1180
0E80
0000
0000
ENDCHAR
STARTCHAR p113
ENCODING 275
SWIDTH 440 0
DWIDTH 13 0
BBX 11 12 0 -2
BITMAP
0000
0000
0F00
0000
0F00
1080
1F80
1000
1080
0F00
0000
0000
ENDCHAR
STARTCHAR p11B
ENCODING 283
SWIDTH 440 0
DWIDTH 13 0
BBX 11 12 0 -2
BITMAP
0000
0900
0600
0000
0F00
1080
1F80
1000
1080
0F00
0000
0000
ENDCHAR
STARTCHAR p12B
ENCODING 299
SWIDTH 440 0
DWIDTH 13 0
BBX 11 12 0 -2
BITMAP
0000
0000
0E00
0000
0400
0400
0400
0400
0400
0400
0000
0000
ENDCHAR
STARTCHAR p144
ENCODING 324
SWIDTH 440 0
DWIDTH 13 0
BBX 11 12 0 -2
BITMAP
0000
0200
0400
0000
1700
1880
1080
1080
1080
1080
0000
0000
ENDCHAR
STARTCHAR p148
ENCODING 328
SWIDTH 440 0
DWIDTH 13 0
BBX 11 12 0 -2
BITMAP
0000
0900
0600
0000
1700
1880
1080
1080
1080
1080
0000
0000
ENDCHAR
STARTCHAR p14D
ENCODING 333
SWIDTH 440 0
DWIDTH 13 0
BBX 11 12 0 -2
BITMAP
0000
0000
0F00
0000
0F00
1080
1080
1080
1080
0F00
0000
0000
ENDCHAR
STARTCHAR p16B
ENCODING 363
SWIDTH 440 0
DWIDTH 13 0
BBX 11 12 0 -2
BITMAP
0000
0000
0F00
0000
1080
1080
1080
1080
1180
0E80
0000
0000
ENDCHAR
STARTCHAR p1CE
ENCODING 462
SWIDTH 440 0
DWIDTH 13 0
BBX 11 12 0 -2
BITMAP
0000
0900
0600
0000
0680
0980
1080
1080
1180
0E80
0000
0000
ENDCHAR
STARTCHAR p1D0
ENCODING 464
SWIDTH 440 0
DWIDTH 13 0
BBX 11 12 0 -2
BITMAP
0000
0A00
0400
0000
0400
0400
0400
0400
0400
0400
0000
0000
ENDCHAR
STARTCHAR p1D2
ENCODING 466
SWIDTH 440 0
DWIDTH 13 0
BBX 11 12 0 -2
BITMAP
0000
0900
0600
0000
0F00
1080
1080
1080
1080
0F00
0000
0000
ENDCHAR
STARTCHAR p1D4
ENCODING 468
SWIDTH 440 0
DWIDTH 13 0
BBX 11 12 0 -2
BITMAP
0000
0900
0600
0000
1080
1080
1080
1080
1180
0E80
0000
0000
ENDCHAR
STARTCHAR p1D6
ENCODING 470
SWIDTH 440 0
DWIDTH 13 0
BBX 11 12 0 -2
BITMAP
0F00
0000
0900
0000
1080
1080
1080
1080
1180
0E80
0000
0000
ENDCHAR
STARTCHAR p1D8
ENCODING 472
SWIDTH 440 0
DWIDTH 13 0
BBX 11 12 0 -2
BITMAP
0200
0400
0900
0000
1080
1080
1080
1080
1180
0E80
0000
0000
ENDCHAR
STARTCHAR p1DA
ENCODING 474
SWIDTH 440 0
DWIDTH 13 0
BBX 11 12 0 -2
BITMAP
0900
0600
0900
0000
1080
1080
1080
1080
1180
0E80
0000
0000
ENDCHAR
STARTCHAR p1DC
ENCODING 476
SWIDTH 440 0
DWIDTH 13 0
BBX 11 12 0 -2
BITMAP
0400
0200
0900
0000
1080
1080
1080
1080
1180
0E80
0000
0000
ENDCHAR
STARTCHAR p251
ENCODING 593
SWIDTH 440 0
DWIDTH 13 0
BBX 11 12 0 -2
BITMAP
0000
0000
0000
0000
0E80
1180
1080
1080
1180
0E80
0000
0000
ENDCHAR
STARTCHAR p261
ENCODING 609
SWIDTH 440 0
DWIDTH 13 0
BBX 11 12 0 -2
BITMAP
0000
0000
0000
0000
0E80
1180
1080
1080
0F80
0080
1080
0F00
ENDCHAR
STARTCHAR p2C7
ENCODING 711
SWIDTH 440 0
DWIDTH 13 0
BBX 11 12 0 -2
BITMAP
0000
1080
0900
0600
0000
0000
0000
0000
0000
0000
0000
0000
ENDCHAR
STARTCHAR p2C9
ENCODING 713
SWIDTH 440 0
DWIDTH 13 0
BBX 11 12 0 -2
BITMAP
0000
0000
0F00
0000
0000
0000
0000
0000
0000
0000
0000
0000
ENDCHAR
STARTCHAR p391
ENCODING 913
SWIDTH 440 0
DWIDTH 13 0
BBX 11 12 0 -2
BITMAP
0000
0400
0400
0A00
0A00
1100
1100
3F80
2080
2080
0000
0000
ENDCHAR
STARTCHAR p392
ENCODING 914
SWIDTH 440 0
DWIDTH 13 0
BBX 11 12 0 -2
BITMAP
0000
1F00
1080
1080
1080
1F00
1080
1080
1080
1F00
0000
0000
ENDCHAR
STARTCHAR p393
ENCODING 915
SWIDTH 440 0
DWIDTH 13 0
BBX 11 12 0 -2
BITMAP
0000
0F80
0800
0800
0800
0800
0800
0800
0800
0800
0000
0000
ENDCHAR
STARTCHAR p394
ENCODING 916
SWIDTH 440 0
DWIDTH 13 0
BBX 11 12 0 -2
BITMAP
0000
0400
0400
0A00
0A00
1100
1100
2080
2080
3F80
0000
0000
ENDCHAR
STARTCHAR p395
ENCODING 917
SWIDTH 440 0
DWIDTH 13 0
BBX 11 12 0 -2
BITMAP
0000
0F80
0800
0800
0800
0F80
0800
0800
0800
0F80
0000
0000
ENDCHAR
STARTCHAR p396
ENCODING 918
SWIDTH 440 0
DWIDTH 13 0
BBX 11 12 0 -2
BITMAP
0000
1F80
0080
0080
0100
0200
0400
0800
1000
1F80
0000
0000
ENDCHAR
STARTCHAR p397
ENCODING 919
SWIDTH 440 0
DWIDTH 13 0
BBX 11 12 0 -2
BITMAP
0000
2080
2080
2080
2080
3F80
2080
2080
2080
2080
0000
0000
ENDCHAR
STARTCHAR p398
ENCODING 920
SWIDTH 440 0
DWIDTH 13 0
BBX 11 12 0 -2
BITMAP
0000
0F00
1080
2040
2040
2F40
2040
2040
1080
0F00
0000
0000
ENDCHAR
STARTCHAR p399
ENCODING 921
SWIDTH 440 0
DWIDTH 13 0
BBX 11 12 0 -2
BITMAP
0000
0400
0400
0400
0400
0400
0400
0400
0400
0400
0000
0000
ENDCHAR
STARTCHAR p39A
ENCODING 922
SWIDTH 440 0
DWIDTH 13 0
BBX 11 12 0 -2
BITMAP
0000
1080
1100
1200
1400
1800
1400
1200
1100
1080
0000
0000
ENDCHAR
STARTCHAR p39B
ENCODING 923
SWIDTH 440 0
DWIDTH 13 0
BBX 11 12 0 -2
BITMAP
0000
0400
0400
0A00
0A00
1100
1100
1100
2080
2080
0000
0000
ENDCHAR
STARTCHAR p39C
ENCODING 924
SWIDTH 440 0
DWIDTH 13 0
BBX 11 12 0 -2
BITMAP
0000
2080
3180
3180
2A80
2A80
2480
2480
2080
2080
0000
0000
ENDCHAR
STARTCHAR p39D
ENCODING 925
SWIDTH 440 0
DWIDTH 13 0
BBX 11 12 0 -2
BITMAP
0000
2080
3080
2880
2480
2280
2180
2080
2080
2080
0000
0000
ENDCHAR
STARTCHAR p39E
ENCODING 926
SWIDTH 440 0
DWIDTH 13 0
BBX 11 12 0 -2
BITMAP
0000
1F80
0000
0000
0000
0F00
0000
0000
0000
1F80
0000
0000
ENDCHAR
STARTCHAR p39F
ENCODING 927
SWIDTH 440 0
DWIDTH 13 0
BBX 11 12 0 -2
BITMAP
0000
0F00
1080
2040
2040
2040
2040
2040
1080
0F00
0000
0000
ENDCHAR
STARTCHAR p3A0
ENCODING 928
SWIDTH 440 0
DWIDTH 13 0
BBX 11 12 0 -2
BITMAP
0000
3FC0
1080
1080
1080
1080
1080
1080
1080
1080
0000
0000
ENDCHAR
STARTCHAR p3A1
ENCODING 929
SWIDTH 440 0
DWIDTH 13 0
BBX 11 12 0 -2
BITMAP
0000
1F00
1080
1080
1080
1080
1F00
1000
1000
1000
0000
0000
ENDCHAR
STARTCHAR p3A3
ENCODING 931
SWIDTH 440 0
DWIDTH 13 0
BBX 11 12 0 -2
BITMAP
0000
1F80
1000
0800
0400
0200
0400
0800
1000
1F80
0000
0000
ENDCHAR
STARTCHAR p3A4
ENCODING 932
SWIDTH 440 0
DWIDTH 13 0
BBX 11 12 0 -2
BITMAP
0000
3F80
0400
0400
0400
0400
0400
0400
0400
0400
0000
0000
ENDCHAR
STARTCHAR p3A5
ENCODING 933
SWIDTH 440 0
DWIDTH 13 0
BBX 11 12 0 -2
BITMAP
0000
1080
0900
0600
0200
0200
0200
0200
0200
0200
0000
0000
ENDCHAR
STARTCHAR p3A6
ENCODING 934
SWIDTH 440 0
DWIDTH 13 0
BBX 11 12 0 -2
BITMAP
0000
0400
0400
1F00
2480
4440
4440
4440
2480
1F00
0400
0400
ENDCHAR
STARTCHAR p3A7
ENCODING 935
SWIDTH 440 0
DWIDTH 13 0
BBX 11 12 0 -2
BITMAP
0000
1080
1080
0900
0600
0600
0600
0900
1080
1080
0000
0000
ENDCHAR
STARTCHAR p3A8
ENCODING 936
SWIDTH 440 0
DWIDTH 13 0
BBX 11 12 0 -2
BITMAP
0000
2480
2480
2480
2480
2480
1500
0E00
0400
0400
0000
0000
ENDCHAR
STARTCHAR p3A9
ENCODING 937
SWIDTH 440 0
DWIDTH 13 0
BBX 11 12 0 -2
BITMAP
0000
0F00
1080
2040
2040
2040
2040
1080
0900
39C0
0000
0000
ENDCHAR
STARTCHAR p3B1
ENCODING 945
SWIDTH 440 0
DWIDTH 13 0
BBX 11 12 0 -2
BITMAP
0000
0000
0000
0000
0C80
1280
1100
1100
1280
0C80
0000
0000
ENDCHAR
STARTCHAR p3B2
ENCODING 946
SWIDTH 440 0
DWIDTH 13 0
BBX 11 12 0 -2
BITMAP
0000
0700
0880
0880
0900
0A00
0900
0880
0C80
0B00
0800
0800
ENDCHAR
STARTCHAR p3B3
ENCODING 947
SWIDTH 440 0
DWIDTH 13 0
BBX 11 12 0 -2
BITMAP
0000
0000
0000
0000
0880
0880
0500
0500
0200
0200
0200
0200
ENDCHAR
STARTCHAR p3B4
ENCODING 948
SWIDTH 440 0
DWIDTH 13 0
BBX 11 12 0 -2
BITMAP
0000
0780
0400
0200
0D00
1080
1080
1080
0900
0600
0000
0000
ENDCHAR
STARTCHAR p3B5
ENCODING 949
SWIDTH 440 0
DWIDTH 13 0
BBX 11 12 0 -2
BITMAP
0000
0000
0000
0000
0700
0880
0E00
0800
0880
0700
0000
0000
ENDCHAR
STARTCHAR p3B6
ENCODING 950
SWIDTH 440 0
DWIDTH 13 0
BBX 11 12 0 -2
BITMAP
0000
0F80
0100
0200
0400
0800
0800
0800
0800
0700
0080
0080
ENDCHAR
STARTCHAR p3B7
ENCODING 951
SWIDTH 440 0
DWIDTH 13 0
BBX 11 12 0 -2
BITMAP
0000
0000
0000
0000
1600
1900
1100
1100
1100
1100
0100
0100
ENDCHAR
STARTCHAR p3B8
ENCODING 952
SWIDTH 440 0
DWIDTH 13 0
BBX 11 12 0 -2
BITMAP
0000
0F00
1080
1080
1080
1F80
1080
1080
1080
0F00
0000
0000
ENDCHAR
STARTCHAR p3B9
ENCODING 953
SWIDTH 440 0
DWIDTH 13 0
BBX 11 12 0 -2
BITMAP
0000
0000
0000
0000
0400
0400
0400
0400
0400
0400
0000
0000
ENDCHAR
STARTCHAR p3BA
ENCODING 954
SWIDTH 440 0
DWIDTH 13 0
BBX 11 12 0 -2
BITMAP
0000
0000
0000
0000
0900
0A00
0C00
0A00
0900
0880
0000
0000
ENDCHAR
STARTCHAR p3BB
ENCODING 955
SWIDTH 440 0
DWIDTH 13 0
BBX 11 12 0 -2
BITMAP
0000
0800
0800
0400
0400
0600
0A00
0900
1100
1080
0000
0000
ENDCHAR
STARTCHAR p3BC
ENCODING 956
SWIDTH 440 0
DWIDTH 13 0
BBX 11 12 0 -2
BITMAP
0000
0000
0000
0000
1100
1100
1100
1100
1100
1E80
1000
1000
ENDCHAR
STARTCHAR p3BD
ENCODING 957
SWIDTH 440 0
DWIDTH 13 0
BBX 11 12 0 -2
BITMAP
0000
0000
0000
0000
1100
1100
0A00
0A00
0400
0400
0000
0000
ENDCHAR
STARTCHAR p3BE
ENCODING 958
SWIDTH 440 0
DWIDTH 13 0
BBX 11 12 0 -2
BITMAP
0000
0F80
0200
0400
0400
0300
0400
0800
0800
0700
0080
0080
ENDCHAR
STARTCHAR p3BF
ENCODING 959
SWIDTH 440 0
DWIDTH 13 0
BBX 11 12 0 -2
BITMAP
0000
0000
0000
0000
0F00
1080
1080
1080
1080
0F00
0000
0000
ENDCHAR
STARTCHAR p3C0
ENCODING 960
SWIDTH 440 0
DWIDTH 13 0
BBX 11 12 0 -2
BITMAP
0000
0000
0000
0000
1F80
0900
0900
0900
0900
0900
0000
0000
ENDCHAR
STARTCHAR p3C1
ENCODING 961
SWIDTH 440 0
DWIDTH 13 0
BBX 11 12 0 -2
BITMAP
0000
0000
0000
0000
0700
0880
0880
0880
0880
0F00
0800
0800
ENDCHAR
STARTCHAR p3C3
ENCODING 963
SWIDTH 440 0
DWIDTH 13 0
BBX 11 12 0 -2
BITMAP
0000
0000
0000
0000
0F80
1100
1100
1100
1100
0E00
0000
0000
ENDCHAR
STARTCHAR p3C4
ENCODING 964
SWIDTH 440 0
DWIDTH 13 0
BBX 11 12 0 -2
BITMAP
0000
0000
0000
0000
0F80
0200
0200
0200
0200
0200
0000
0000
ENDCHAR
STARTCHAR p3C5
ENCODING 965
SWIDTH 440 0
DWIDTH 13 0
BBX 11 12 0 -2
BITMAP
0000
0000
0000
0000
1100
1100
1100
1100
1100
0E00
0000
0000
ENDCHAR
STARTCHAR p3C6
ENCODING 966
SWIDTH 440 0
DWIDTH 13 0
BBX 11 12 0 -2
BITMAP
0000
0000
0400
0400
1F00
2480
2480
2480
2480
1F00
0400
0400
ENDCHAR
STARTCHAR p3C7
ENCODING 967
SWIDTH 440 0
DWIDTH 13 0
BBX 11 12 0 -2
BITMAP
0000
0000
0000
0000
1080
0900
0900
0600
0600
0900
0900
1080
ENDCHAR
STARTCHAR p3C8
ENCODING 968
SWIDTH 440 0
DWIDTH 13 0
BBX 11 12 0 -2
BITMAP
0000
0000
0400
0400
2480
2480
2480
2480
2480
1F00
0400
0400
ENDCHAR
STARTCHAR p3C9
ENCODING 969
SWIDTH 440 0
DWIDTH 13 0
BBX 11 12 0 -2
BITMAP
0000
0000
0000
0000
1100
2480
2480
2480
2480
1B00
0000
0000
ENDCHAR
STARTCHAR p401
ENCODING 1025
SWIDTH 440 0
DWIDTH 13 0
BBX 11 12 0 -2
BITMAP
0900
1F80
1000
1000
1000
1F80
1000
1000
1000
1F80
0000
0000
ENDCHAR
STARTCHAR p410
ENCODING 1040
SWIDTH 440 0
DWIDTH 13 0
BBX 11 12 0 -2
BITMAP
0000
0400
0400
0A00
0A00
1100
1F00
2080
2080
2080
0000
0000
ENDCHAR
STARTCHAR p411
ENCODING 1041
SWIDTH 440 0
DWIDTH 13 0
BBX 11 12 0 -2
BITMAP
0000
1F80
1000
1000
1000
1F00
1080
1080
1080
1F00
0000
0000
ENDCHAR
STARTCHAR p412
ENCODING 1042
SWIDTH 440 0
DWIDTH 13 0
BBX 11 12 0 -2
BITMAP
0000
3F00
1080
1080
1080
1F00
1080
1080
1080
3F00
0000
0000
ENDCHAR
STARTCHAR p413
ENCODING 1043
SWIDTH 440 0
DWIDTH 13 0
BBX 11 12 0 -2
BITMAP
0000
0F80
0800
0800
0800
0800
0800
0800
0800
0800
0000
0000
ENDCHAR
STARTCHAR p414
ENCODING 1044
SWIDTH 440 0
DWIDTH 13 0
BBX 11 12 0 -2
BITMAP
0000
0400
0400
0A00
0A00
1100
1100
2080
2080
7FC0
4040
0000
ENDCHAR
STARTCHAR p415
ENCODING 1045
SWIDTH 440 0
DWIDTH 13 0
BBX 11 12 0 -2
BITMAP
0000
1F80
1000
1000
1000
1F80
1000
1000
1000
1F80
0000
0000
ENDCHAR
STARTCHAR p416
ENCODING 1046
SWIDTH 440 0
DWIDTH 13 0
BBX 11 12 0 -2
BITMAP
0000
0200
2220
1240
0A80
0700
0700
0A80
1240
2220
0000
0000
ENDCHAR
STARTCHAR p417
ENCODING 1047
SWIDTH 440 0
DWIDTH 13 0
BBX 11 12 0 -2
BITMAP
0000
0F00
1080
0080
0080
0700
0080
0080
1080
0F00
0000
0000
ENDCHAR
STARTCHAR p418
ENCODING 1048
SWIDTH 440 0
DWIDTH 13 0
BBX 11 12 0 -2
BITMAP
0000
2080
2180
2280
2480
2480
2880
2880
3080
2080
0000
0000
ENDCHAR
STARTCHAR p419
ENCODING 1049
SWIDTH 440 0
DWIDTH 13 0
BBX 11 12 0 -2
BITMAP
0E00
2080
2180
2280
2480
2480
2880
2880
3080
2080
0000
0000
ENDCHAR
STARTCHAR p41A
ENCODING 1050
SWIDTH 440 0
DWIDTH 13 0
BBX 11 12 0 -2
BITMAP
0000
1180
1100
1200
1400
1A00
1100
1100
1080
10C0
0000
0000
ENDCHAR
STARTCHAR p41B
ENCODING 1051
SWIDTH 440 0
DWIDTH 13 0
BBX 11 12 0 -2
BITMAP
0000
1F80
1080
1080
1080
1080
1080
1080
1080
2080
0000
0000
ENDCHAR
STARTCHAR p41C
ENCODING 1052
SWIDTH 440 0
DWIDTH 13 0
BBX 11 12 0 -2
BITMAP
0000
2080
3180
3180
2A80
2A80
2A80
2480
2480
2080
0000
0000
ENDCHAR
STARTCHAR p41D
ENCODING 1053
SWIDTH 440 0
DWIDTH 13 0
BBX 11 12 0 -2
BITMAP
0000
2080
2080
2080
2080
3F80
2080
2080
2080
2080
0000
0000
ENDCHAR
STARTCHAR p41E
ENCODING 1054
SWIDTH 440 0
DWIDTH 13 0
BBX 11 12 0 -2
BITMAP
0000
0E00
1100
2080
2080
2080
2080
2080
1100
0E00
0000
0000
ENDCHAR
STARTCHAR p41F
ENCODING 1055
SWIDTH 440 0
DWIDTH 13 0
BBX 11 12 0 -2
BITMAP
0000
3F80
2080
2080
2080
2080
2080
2080
2080
2080
0000
0000
ENDCHAR
STARTCHAR p420
ENCODING 1056
SWIDTH 440 0
DWIDTH 13 0
BBX 11 12 0 -2
BITMAP
0000
1F00
1080
1080
1080
1080
1F00
1000
1000
1000
0000
0000
ENDCHAR
STARTCHAR p421
ENCODING 1057
SWIDTH 440 0
DWIDTH 13 0
BBX 11 12 0 -2
BITMAP
0000
0F00
1080
2000
2000
2000
2000
2000
1080
0F00
0000
0000
ENDCHAR
STARTCHAR p422
ENCODING 1058
SWIDTH 440 0
DWIDTH 13 0
BBX 11 12 0 -2
BITMAP
0000
7FC0
0400
0400
0400
0400
0400
0400
0400
0400
0000
0000
ENDCHAR
STARTCHAR p423
ENCODING 1059
SWIDTH 440 0
DWIDTH 13 0
BBX 11 12 0 -2
BITMAP
0000
1080
1080
1080
1080
1080
0F00
0100
0200
1C00
0000
0000
ENDCHAR
STARTCHAR p424
ENCODING 1060
SWIDTH 440 0
DWIDTH 13 0
BBX 11 12 0 -2
BITMAP
0400
0400
1F00
2480
4440
4440
4440
2480
1F00
0400
0400
0000
ENDCHAR
STARTCHAR p425
ENCODING 1061
SWIDTH 440 0
DWIDTH 13 0
BBX 11 12 0 -2
BITMAP
0000
3180
1100
0A00
0A00
0400
0A00
0A00
1100
3180
0000
0000
ENDCHAR
STARTCHAR p426
ENCODING 1062
SWIDTH 440 0
DWIDTH 13 0
BBX 11 12 0 -2
BITMAP
0000
2080
2080
2080
2080
2080
2080
2080
2080
3FC0
0040
0040
ENDCHAR
STARTCHAR p427
ENCODING 1063
SWIDTH 440 0
DWIDTH 13 0
BBX 11 12 0 -2
BITMAP
0000
1080
1080
1080
1080
1080
0F80
0080
0080
0080
0000
0000
ENDCHAR
STARTCHAR p428
ENCODING 1064
SWIDTH 440 0
DWIDTH 13 0
BBX 11 12 0 -2
BITMAP
0000
4440
4440
4440
4440
4440
4440
4440
4440
7FC0
0000
0000
ENDCHAR
STARTCHAR p429
ENCODING 1065
SWIDTH 440 0
DWIDTH 13 0
BBX 11 12 0 -2
BITMAP
0000
4440
4440
4440
4440
4440
4440
4440
4440
7FE0
0020
0020
ENDCHAR
STARTCHAR p42A
ENCODING 1066
SWIDTH 440 0
DWIDTH 13 0
BBX 11 12 0 -2
BITMAP
0000
3000
1000
1000
1000
1F00
1080
1080
1080
1F00
0000
0000
ENDCHAR
STARTCHAR p42B
ENCODING 1067
SWIDTH 440 0
DWIDTH 13 0
BBX 11 12 0 -2
BITMAP
0000
6040
2040
2040
2040
3C40
2240
2240
2240
7C40
0000
0000
ENDCHAR
STARTCHAR p42C
ENCODING 1068
SWIDTH 440 0
DWIDTH 13 0
BBX 11 12 0 -2
BITMAP
0000
1800
0800
0800
0800
0F80
0840
0840
0840
1F80
0000
0000
ENDCHAR
STARTCHAR p42D
ENCODING 1069
SWIDTH 440 0
DWIDTH 13 0
BBX 11 12 0 -2
BITMAP
0000
1E00
2100
0080
0080
0F80
0080
0080
2100
1E00
0000
0000
ENDCHAR
STARTCHAR p42E
ENCODING 1070
SWIDTH 440 0
DWIDTH 13 0
BBX 11 12 0 -2
BITMAP
0000
2180
2240
2420
2420
3C20
2420
2420
2240
2180
0000
0000
ENDCHAR
STARTCHAR p42F
ENCODING 1071
SWIDTH 440 0
DWIDTH 13 0
BBX 11 12 0 -2
BITMAP
0000
0FC0
1080
1080
1080
0F80
0480
0480
0880
19C0
0000
0000
ENDCHAR
STARTCHAR p430
ENCODING 1072
SWIDTH 440 0
DWIDTH 13 0
BBX 11 12 0 -2
BITMAP
0000
0000
0000
0F00
1080
0080
0F80
1080
1180
0EC0
0000
0000
ENDCHAR
STARTCHAR p431
ENCODING 1073
SWIDTH 440 0
DWIDTH 13 0
BBX 11 12 0 -2
BITMAP
0000
0780
0800
1000
1F00
1080
1080
1080
1080
0F00
0000
0000
ENDCHAR
STARTCHAR p432
ENCODING 1074
SWIDTH 440 0
DWIDTH 13 0
BBX 11 12 0 -2
BITMAP
0000
0000
0000
1F00
1080
1080
1F00
1080
1080
1F00
0000
0000
ENDCHAR
STARTCHAR p433
ENCODING 1075
SWIDTH 440 0
DWIDTH 13 0
BBX 11 12 0 -2
BITMAP
0000
0000
0000
0F80
0800
0800
0800
0800
0800
0800
0000
0000
ENDCHAR
STARTCHAR p434
ENCODING 1076
SWIDTH 440 0
DWIDTH 13 0
BBX 11 12 0 -2
BITMAP
0000
0000
0000
0400
0400
0A00
0A00
1100
1F00
2080
2080
0000
ENDCHAR
STARTCHAR p435
ENCODING 1077
SWIDTH 440 0
DWIDTH 13 0
BBX 11 12 0 -2
BITMAP
0000
0000
0000
0F00
1080
1080
1F80
1000
1080
0F00
0000
0000
ENDCHAR
STARTCHAR p436
ENCODING 1078
SWIDTH 440 0
DWIDTH 13 0
BBX 11 12 0 -2
BITMAP
0000
0000
0000
0400
2480
1500
0E00
0E00
1500
2480
0000
0000
ENDCHAR
STARTCHAR p437
ENCODING 1079
SWIDTH 440 0
DWIDTH 13 0
BBX 11 12 0 -2
BITMAP
0000
0000
0000
0F00
1080
0080
0300
0080
1080
0F00
0000
0000
ENDCHAR
STARTCHAR p438
ENCODING 1080
SWIDTH 440 0
DWIDTH 13 0
BBX 11 12 0 -2
BITMAP
0000
0000
0000
1080
1080
1180
1280
1480
1880
1080
0000
0000
ENDCHAR
STARTCHAR p439
ENCODING 1081
SWIDTH 440 0
DWIDTH 13 0
BBX 11 12 0 -2
BITMAP
0000
0900
0600
1080
1080
1180
1280
1480
1880
1080
0000
0000
ENDCHAR
STARTCHAR p43A
ENCODING 1082
SWIDTH 440 0
DWIDTH 13 0
BBX 11 12 0 -2
BITMAP
0000
0000
0000
1100
1200
1400
1C00
1200
1100
1080
0000
0000
ENDCHAR
STARTCHAR p43B
ENCODING 1083
SWIDTH 440 0
DWIDTH 13 0
BBX 11 12 0 -2
BITMAP
0000
0000
0000
1F80
1080
1080
1080
1080
1080
2080
0000
0000
ENDCHAR
STARTCHAR p43C
ENCODING 1084
SWIDTH 440 0
DWIDTH 13 0
BBX 11 12 0 -2
BITMAP
0000
0000
0000
2080
3180
2A80
2A80
2480
2480
2080
0000
0000
ENDCHAR
STARTCHAR p43D
ENCODING 1085
SWIDTH 440 0
DWIDTH 13 0
BBX 11 12 0 -2
BITMAP
0000
0000
0000
1080
1080
1080
1F80
1080
1080
1080
0000
0000
ENDCHAR
STARTCHAR p43E
ENCODING 1086
SWIDTH 440 0
DWIDTH 13 0
BBX 11 12 0 -2
BITMAP
0000
0000
0000
0E00
1100
2080
2080
2080
1100
0E00
0000
0000
ENDCHAR
STARTCHAR p43F
ENCODING 1087
SWIDTH 440 0
DWIDTH 13 0
BBX 11 12 0 -2
BITMAP
0000
0000
0000
1F80
1080
1080
1080
1080
1080
1080
0000
0000
ENDCHAR
STARTCHAR p440
ENCODING 1088
SWIDTH 440 0
DWIDTH 13 0
BBX 11 12 0 -2
BITMAP
0000
0000
0000
1F00
1080
1080
1080
1080
1080
1F00
1000
1000
ENDCHAR
STARTCHAR p441
ENCODING 1089
SWIDTH 440 0
DWIDTH 13 0
BBX 11 12 0 -2
BITMAP
0000
0000
0000
0F00
1080
1000
1000
1000
1080
0F00
0000
0000
ENDCHAR
STARTCHAR p442
ENCODING 1090
SWIDTH 440 0
DWIDTH 13 0
BBX 11 12 0 -2
BITMAP
0000
0000
0000
3F80
0400
0400
0400
0400
0400
0400
0000
0000
ENDCHAR
STARTCHAR p443
ENCODING 1091
SWIDTH 440 0
DWIDTH 13 0
BBX 11 12 0 -2
BITMAP
0000
0000
0000
1080
1080
1080
1080
1080
0F00
0100
0200
1C00
ENDCHAR
STARTCHAR p444
ENCODING 1092
SWIDTH 440 0
DWIDTH 13 0
BBX 11 12 0 -2
BITMAP
0000
0000
0400
3580
4E40
4440
4440
4E40
3580
0400
0400
0400
ENDCHAR
STARTCHAR p445
ENCODING 1093
SWIDTH 440 0
DWIDTH 13 0
BBX 11 12 0 -2
BITMAP
0000
0000
0000
3180
1100
0A00
0400
0A00
1100
3180
0000
0000
ENDCHAR
STARTCHAR p446
ENCODING 1094
SWIDTH 440 0
DWIDTH 13 0
BBX 11 12 0 -2
BITMAP
0000
0000
0000
1080
1080
1080
1080
1080
1080
1FC0
0040
0000
ENDCHAR
STARTCHAR p447
ENCODING 1095
SWIDTH 440 0
DWIDTH 13 0
BBX 11 12 0 -2
BITMAP
0000
0000
0000
1080
1080
1080
1080
0F80
0080
0080
0000
0000
ENDCHAR
STARTCHAR p448
ENCODING 1096
SWIDTH 440 0
DWIDTH 13 0
BBX 11 12 0 -2
BITMAP
0000
0000
0000
2220
2220
2220
2220
2220
2220
3FE0
0000
0000
ENDCHAR
STARTCHAR p449
ENCODING 1097
SWIDTH 440 0
DWIDTH 13 0
BBX 11 12 0 -2
BITMAP
0000
0000
0000
4440
4440
4440
4440
4440
4440
7FE0
0020
0000
ENDCHAR
STARTCHAR p44A
ENCODING 1098
SWIDTH 440 0
DWIDTH 13 0
BBX 11 12 0 -2
BITMAP
0000
0000
0000
1800
0800
0800
0F80
0840
0840
0F80
0000
0000
ENDCHAR
STARTCHAR p44B
ENCODING 1099
SWIDTH 440 0
DWIDTH 13 0
BBX 11 12 0 -2
BITMAP
0000
0000
0000
6040
2040
2040
3C40
2240
2240
3C40
0000
0000
ENDCHAR
STARTCHAR p44C
ENCODING 1100
SWIDTH 440 0
DWIDTH 13 0
BBX 11 12 0 -2
BITMAP
0000
0000
0000
1800
0800
0800
0F00
0880
0880
0F00
0000
0000
ENDCHAR
STARTCHAR p44D
ENCODING 1101
SWIDTH 440 0
DWIDTH 13 0
BBX 11 12 0 -2
BITMAP
0000
0000
0000
0F00
1080
0080
0700
0080
1080
0F00
0000
0000
ENDCHAR
STARTCHAR p44E
ENCODING 1102
SWIDTH 440 0
DWIDTH 13 0
BBX 11 12 0 -2
BITMAP
0000
0000
0000
2380
2440
2440
3C40
2440
2440
2380
0000
0000
ENDCHAR
STARTCHAR p44F
ENCODING 1103
SWIDTH 440 0
DWIDTH 13 0
BBX 11 12 0 -2
BITMAP
0000
0000
0000
0F80
1080
1080
0F80
0480
0880
1880
0000
0000
ENDCHAR
STARTCHAR p451
ENCODING 1105
SWIDTH 440 0
DWIDTH 13 0
BBX 11 12 0 -2
BITMAP
0000
0900
0000
0F00
1080
1080
1F80
1000
1080
0F00
0000
0000
ENDCHAR
STARTCHAR p2014
ENCODING 8212
SWIDTH 440 0
DWIDTH 13 0
BBX 11 12 0 -2
BITMAP
0000
0000
0000
0000
0000
FFE0
0000
0000
0000
0000
0000
0000
ENDCHAR
STARTCHAR p2016
ENCODING 8214
SWIDTH 440 0
DWIDTH 13 0
BBX 11 12 0 -2
BITMAP
0000
0A00
0A00
0A00
0A00
0A00
0A00
0A00
0A00
0A00
0A00
0000
ENDCHAR
STARTCHAR p2018
ENCODING 8216
SWIDTH 440 0
DWIDTH 13 0
BBX 11 12 0 -2
BITMAP
0000
0040
0080
00C0
00C0
0000
0000
0000
0000
0000
0000
0000
ENDCHAR
STARTCHAR p2019
ENCODING 8217
SWIDTH 440 0
DWIDTH 13 0
BBX 11 12 0 -2
BITMAP
0000
3000
3000
1000
2000
0000
0000
0000
0000
0000
0000
0000
ENDCHAR
STARTCHAR p201C
ENCODING 8220
SWIDTH 440 0
DWIDTH 9 0
BBX 9 12 0 -2
BITMAP
0000
1200
2400
3600
3600
0000
0000
0000
0000
0000
0000
0000
ENDCHAR
STARTCHAR p201D
ENCODING 8221
SWIDTH 440 0
DWIDTH 9 0
BBX 9 12 0 -2
BITMAP
0000
6C00
6C00
2400
4800
0000
0000
0000
0000
0000
0000
0000
ENDCHAR
STARTCHAR p2026
ENCODING 8230
SWIDTH 440 0
DWIDTH 13 0
BBX 11 12 0 -2
BITMAP
0000
0000
0000
0000
0000
6660
6660
0000
0000
0000
0000
0000
ENDCHAR
STARTCHAR p2030
ENCODING 8240
SWIDTH 440 0
DWIDTH 13 0
BBX 11 12 0 -2
BITMAP
0000
E080
A100
A200
E400
0800
1EE0
2AA0
4AA0
8EE0
0000
0000
ENDCHAR
STARTCHAR p2032
ENCODING 8242
SWIDTH 440 0
DWIDTH 13 0
BBX 11 12 0 -2
BITMAP
0000
2000
2000
4000
8000
0000
0000
0000
0000
0000
0000
0000
ENDCHAR
STARTCHAR p2033
ENCODING 8243
SWIDTH 440 0
DWIDTH 13 0
BBX 11 12 0 -2
BITMAP
0000
2800
2800
5000
A000
0000
0000
0000
0000
0000
0000
0000
ENDCHAR
STARTCHAR p203B
ENCODING 8251
SWIDTH 440 0
DWIDTH 13 0
BBX 11 12 0 -2
BITMAP
0000
0000
2640
1080
0900
2640
2640
0900
1080
2640
0000
0000
ENDCHAR
STARTCHAR p2103
ENCODING 8451
SWIDTH 440 0
DWIDTH 13 0
BBX 11 12 0 -2
BITMAP
E000
A740
E8C0
1040
1000
1000
1000
1000
0840
0780
0000
0000
ENDCHAR
STARTCHAR p2116
ENCODING 8470
SWIDTH 440 0
DWIDTH 13 0
BBX 11 12 0 -2
BITMAP
0000
4200
4200
6200
52E0
4AA0
46A0
42E0
4200
42E0
0000
0000
ENDCHAR
STARTCHAR p2160
ENCODING 8544
SWIDTH 440 0
DWIDTH 13 0
BBX 11 12 0 -2
BITMAP
0000
0400
0400
0400
0400
0400
0400
0400
0400
0400
0000
0000
ENDCHAR
STARTCHAR p2161
ENCODING 8545
SWIDTH 440 0
DWIDTH 13 0
BBX 11 12 0 -2
BITMAP
0000
0900
0900
0900
0900
0900
0900
0900
0900
0900
0000
0000
ENDCHAR
STARTCHAR p2162
ENCODING 8546
SWIDTH 440 0
DWIDTH 13 0
BBX 11 12 0 -2
BITMAP
0000
1240
1240
1240
1240
1240
1240
1240
1240
1240
0000
0000
ENDCHAR
STARTCHAR p2163
ENCODING 8547
SWIDTH 440 0
DWIDTH 13 0
BBX 11 12 0 -2
BITMAP
0000
1440
1440
1440
1280
1280
1280
1100
1100
1100
0000
0000
ENDCHAR
STARTCHAR p2164
ENCODING 8548
SWIDTH 440 0
DWIDTH 13 0
BBX 11 12 0 -2
BITMAP
0000
2080
2080
2080
1100
1100
0A00
0A00
0400
0400
0000
0000
ENDCHAR
STARTCHAR p2165
ENCODING 8549
SWIDTH 440 0
DWIDTH 13 0
BBX 11 12 0 -2
BITMAP
0000
4480
4480
4480
2880
2880
2880
1080
1080
1080
0000
0000
ENDCHAR
STARTCHAR p2166
ENCODING 8550
SWIDTH 440 0
DWIDTH 13 0
BBX 11 12 0 -2
BITMAP
0000
4540
4540
4540
2940
2940
2940
1140
1140
1140
0000
0000
ENDCHAR
STARTCHAR p2167
ENCODING 8551
SWIDTH 440 0
DWIDTH 13 0
BBX 11 12 0 -2
BITMAP
0000
8AA0
8AA0
8AA0
52A0
52A0
52A0
22A0
22A0
22A0
0000
0000
ENDCHAR
STARTCHAR p2168
ENCODING 8552
SWIDTH 440 0
DWIDTH 13 0
BBX 11 12 0 -2
BITMAP
0000
1440
1440
1280
1280
1100
1280
1280
1440
1440
0000
0000
ENDCHAR
STARTCHAR p2169
ENCODING 8553
SWIDTH 440 0
DWIDTH 13 0
BBX 11 12 0 -2
BITMAP
0000
1100
1100
0A00
0A00
0400
0A00
0A00
1100
1100
0000
0000
ENDCHAR
STARTCHAR p216A
ENCODING 8554
SWIDTH 440 0
DWIDTH 13 0
BBX 11 12 0 -2
BITMAP
0000
2280
2280
1480
1480
0880
1480
1480
2280
2280
0000
0000
ENDCHAR
STARTCHAR p216B
ENCODING 8555
SWIDTH 440 0
DWIDTH 13 0
BBX 11 12 0 -2
BITMAP
0000
4540
4540
2940
2940
1140
2940
2940
4540
4540
0000
0000
ENDCHAR
STARTCHAR p2190
ENCODING 8592
SWIDTH 440 0
DWIDTH 13 0
BBX 11 12 0 -2
BITMAP
0000
0000
0000
0800
1000
3FC0
1000
0800
0000
0000
0000
0000
ENDCHAR
STARTCHAR p2191
ENCODING 8593
SWIDTH 440 0
DWIDTH 13 0
BBX 11 12 0 -2
BITMAP
0000
0000
0400
0E00
1500
0400
0400
0400
0400
0400
0000
0000
ENDCHAR
STARTCHAR p2192
ENCODING 8594
SWIDTH 440 0
DWIDTH 13 0
BBX 11 12 0 -2
BITMAP
0000
0000
0000
0100
0080
3FC0
0080
0100
0000
0000
0000
0000
ENDCHAR
STARTCHAR p2193
ENCODING 8595
SWIDTH 440 0
DWIDTH 13 0
BBX 11 12 0 -2
BITMAP
0000
0000
0400
0400
0400
0400
0400
1500
0E00
0400
0000
0000
ENDCHAR
STARTCHAR p2208
ENCODING 8712
SWIDTH 440 0
DWIDTH 13 0
BBX 11 12 0 -2
BITMAP
0000
0380
0400
0800
1000
1F80
1000
0800
0400
0380
0000
0000
ENDCHAR
STARTCHAR p220F
ENCODING 8719
SWIDTH 440 0
DWIDTH 13 0
BBX 11 12 0 -2
BITMAP
0000
3FC0
1080
1080
1080
1080
1080
1080
1080
1080
39C0
0000
ENDCHAR
STARTCHAR p2211
ENCODING 8721
SWIDTH 440 0
DWIDTH 13 0
BBX 11 12 0 -2
BITMAP
0000
3F80
2080
1000
0800
0400
0400
0800
1080
2080
3F80
0000
ENDCHAR
STARTCHAR p221A
ENCODING 8730
SWIDTH 440 0
DWIDTH 13 0
BBX 11 12 0 -2
BITMAP
0000
0000
0020
0040
0080
0100
0200
4400
A800
1000
0000
0000
ENDCHAR
STARTCHAR p221D
ENCODING 8733
SWIDTH 440 0
DWIDTH 13 0
BBX 11 12 0 -2
BITMAP
0000
0000
0000
0000
1DC0
2200
2200
1DC0
0000
0000
0000
0000
ENDCHAR
STARTCHAR p221E
ENCODING 8734
SWIDTH 440 0
DWIDTH 13 0
BBX 11 12 0 -2
BITMAP
0000
0000
0000
3180
4A40
4440
4A40
3180
0000
0000
0000
0000
ENDCHAR
STARTCHAR p2220
ENCODING 8736
SWIDTH 440 0
DWIDTH 13 0
BBX 11 12 0 -2
BITMAP
0000
0040
0080
0100
0200
0400
0800
1000
2000
7FE0
0000
0000
ENDCHAR
STARTCHAR p2225
ENCODING 8741
SWIDTH 440 0
DWIDTH 13 0
BBX 11 12 0 -2
BITMAP
0000
0440
0440
0880
0880
1100
1100
2200
2200
4400
4400
0000
ENDCHAR
STARTCHAR p2227
ENCODING 8743
SWIDTH 440 0
DWIDTH 13 0
BBX 11 12 0 -2
BITMAP
0000
0400
0400
0A00
0A00
1100
1100
2080
2080
4040
4040
0000
ENDCHAR
STARTCHAR p2228
ENCODING 8744
SWIDTH 440 0
DWIDTH 13 0
BBX 11 12 0 -2
BITMAP
0000
4040
4040
2080
2080
1100
1100
0A00
0A00
0400
0400
0000
ENDCHAR
STARTCHAR p2229
ENCODING 8745
SWIDTH 440 0
DWIDTH 13 0
BBX 11 12 0 -2
BITMAP
0000
0E00
1100
2080
2080
2080
2080
2080
2080
2080
0000
0000
ENDCHAR
STARTCHAR p222A
ENCODING 8746
SWIDTH 440 0
DWIDTH 13 0
BBX 11 12 0 -2
BITMAP
0000
2080
2080
2080
2080
2080
2080
2080
1100
0E00
0000
0000
ENDCHAR
STARTCHAR p222B
ENCODING 8747
SWIDTH 440 0
DWIDTH 13 0
BBX 11 12 0 -2
BITMAP
0000
0200
0500
0400
0400
0400
0400
0400
0400
1400
0800
0000
ENDCHAR
STARTCHAR p222E
ENCODING 8750
SWIDTH 440 0
DWIDTH 13 0
BBX 11 12 0 -2
BITMAP
0000
0200
0500
0400
0E00
1500
1500
0E00
0400
1400
0800
0000
ENDCHAR
STARTCHAR p2234
ENCODING 8756
SWIDTH 440 0
DWIDTH 13 0
BBX 11 12 0 -2
BITMAP
0000
0000
0600
0600
0000
0000
0000
30C0
30C0
0000
0000
0000
ENDCHAR
STARTCHAR p2235
ENCODING 8757
SWIDTH 440 0
DWIDTH 13 0
BBX 11 12 0 -2
BITMAP
0000
0000
30C0
30C0
0000
0000
0000
0600
0600
0000
0000
0000
ENDCHAR
STARTCHAR p2236
ENCODING 8758
SWIDTH 440 0
DWIDTH 13 0
BBX 11 12 0 -2
BITMAP
0000
0000
0600
0600
0000
0000
0000
0000
0600
0600
0000
0000
ENDCHAR
STARTCHAR p2237
ENCODING 8759
SWIDTH 440 0
DWIDTH 13 0
BBX 11 12 0 -2
BITMAP
0000
0000
30C0
30C0
0000
0000
0000
0000
30C0
30C0
0000
0000
ENDCHAR
STARTCHAR p223D
ENCODING 8765
SWIDTH 440 0
DWIDTH 13 0
BBX 11 12 0 -2
BITMAP
0000
0000
0000
0000
1980
2240
2440
1980
0000
0000
0000
0000
ENDCHAR
STARTCHAR p2248
ENCODING 8776
SWIDTH 440 0
DWIDTH 13 0
BBX 11 12 0 -2
BITMAP
0000
0000
0000
0000
0C80
1300
0C80
1300
0000
0000
0000
0000
ENDCHAR
STARTCHAR p224C
ENCODING 8780
SWIDTH 440 0
DWIDTH 13 0
BBX 11 12 0 -2
BITMAP
0000
0000
1180
2240
2440
1880
0000
3FC0
0000
3FC0
0000
0000
ENDCHAR
STARTCHAR p2260
ENCODING 8800
SWIDTH 440 0
DWIDTH 13 0
BBX 11 12 0 -2
BITMAP
0000
0000
0000
0200
3FC0
0400
3FC0
0800
0000
0000
0000
0000
ENDCHAR
STARTCHAR p2261
ENCODING 8801
SWIDTH 440 0
DWIDTH 13 0
BBX 11 12 0 -2
BITMAP
0000
0000
0000
3FC0
0000
3FC0
0000
3FC0
0000
0000
0000
0000
ENDCHAR
STARTCHAR p2264
ENCODING 8804
SWIDTH 440 0
DWIDTH 13 0
BBX 11 12 0 -2
BITMAP
0000
00C0
0300
0C00
3000
0C00
3300
0CC0
0300
00C0
0000
0000
ENDCHAR
STARTCHAR p2265
ENCODING 8805
SWIDTH 440 0
DWIDTH 13 0
BBX 11 12 0 -2
BITMAP
0000
6000
1800
0600
0180
0600
1980
6600
1800
6000
0000
0000
ENDCHAR
STARTCHAR p226E
ENCODING 8814
SWIDTH 440 0
DWIDTH 13 0
BBX 11 12 0 -2
BITMAP
0000
0400
04C0
0700
1C00
6400
1C00
0700
04C0
0400
0000
0000
ENDCHAR
STARTCHAR p226F
ENCODING 8815
SWIDTH 440 0
DWIDTH 13 0
BBX 11 12 0 -2
BITMAP
0000
0400
6400
1C00
0700
04C0
0700
1C00
6400
0400
0000
0000
ENDCHAR
STARTCHAR p2299
ENCODING 8857
SWIDTH 440 0
DWIDTH 13 0
BBX 11 12 0 -2
BITMAP
0000
0F00
1080
2040
4020
4620
4620
4020
2040
1080
0F00
0000
ENDCHAR
STARTCHAR p22A5
ENCODING 8869
SWIDTH 440 0
DWIDTH 13 0
BBX 11 12 0 -2
BITMAP
0000
0400
0400
0400
0400
0400
0400
0400
0400
7FC0
0000
0000
ENDCHAR
STARTCHAR p2312
ENCODING 8978
SWIDTH 440 0
DWIDTH 13 0
BBX 11 12 0 -2
BITMAP
0000
0000
0F00
1080
2040
4020
4020
0000
0000
0000
0000
0000
ENDCHAR
STARTCHAR p2460
ENCODING 9312
SWIDTH 440 0
DWIDTH 13 0
BBX 11 12 0 -2
BITMAP
1F00
2080
4440
8C20
8420
8420
8420
8420
4440
2080
1F00
0000
ENDCHAR
STARTCHAR p2461
ENCODING 9313
SWIDTH 440 0
DWIDTH 13 0
BBX 11 12 0 -2
BITMAP
1F00
2080
4E40
9120
9120
8220
8420
8920
5F40
2080
1F00
0000
ENDCHAR
STARTCHAR p2462
ENCODING 9314
SWIDTH 440 0
DWIDTH 13 0
BBX 11 12 0 -2
BITMAP
1F00
2080
4E40
9120
8120
8620
8120
9120
4E40
2080
1F00
0000
ENDCHAR
STARTCHAR p2463
ENCODING 9315
SWIDTH 440 0
DWIDTH 13 0
BBX 11 12 0 -2
BITMAP
1F00
2080
4240
8620
8A20
9220
9F20
8220
4240
2080
1F00
0000
ENDCHAR
STARTCHAR p2464
ENCODING 9316
SWIDTH 440 0
DWIDTH 13 0
BBX 11 12 0 -2
BITMAP
1F00
2080
5F40
9020
9E20
9120
8120
9120
4E40
2080
1F00
0000
ENDCHAR
STARTCHAR p2465
ENCODING 9317
SWIDTH 440 0
DWIDTH 13 0
BBX 11 12 0 -2
BITMAP
1F00
2080
4E40
9120
9020
9E20
9120
9120
4E40
2080
1F00
0000
ENDCHAR
STARTCHAR p2466
ENCODING 9318
SWIDTH 440 0
DWIDTH 13 0
BBX 11 12 0 -2
BITMAP
1F00
2080
5F40
8120
8220
8220
8420
8420
4440
2080
1F00
0000
ENDCHAR
STARTCHAR p2467
ENCODING 9319
SWIDTH 440 0
DWIDTH 13 0
BBX 11 12 0 -2
BITMAP
1F00
2080
4E40
9120
9120
8E20
9120
9120
4E40
2080
1F00
0000
ENDCHAR
STARTCHAR p2468
ENCODING 9320
SWIDTH 440 0
DWIDTH 13 0
BBX 11 12 0 -2
BITMAP
1F00
2080
4E40
9120
9120
8F20
8120
9120
4E40
2080
1F00
0000
ENDCHAR
STARTCHAR p2469
ENCODING 9321
SWIDTH 440 0
DWIDTH 13 0
BBX 11 12 0 -2
BITMAP
1F00
2080
5740
B520
9520
9520
9520
9520
5740
2080
1F00
0000
ENDCHAR
STARTCHAR p2474
ENCODING 9332
SWIDTH 440 0
DWIDTH 13 0
BBX 11 12 0 -2
BITMAP
2080
4040
8420
8C20
8420
8420
8420
8420
8420
8420
4040
2080
ENDCHAR
STARTCHAR p2475
ENCODING 9333
SWIDTH 440 0
DWIDTH 13 0
BBX 11 12 0 -2
BITMAP
2080
4040
8E20
9120
8120
8120
8220
8420
8820
9F20
4040
2080
ENDCHAR
STARTCHAR p2476
ENCODING 9334
SWIDTH 440 0
DWIDTH 13 0
BBX 11 12 0 -2
BITMAP
2080
4040
8E20
9120
8120
8620
8120
8120
9120
8E20
4040
2080
ENDCHAR
STARTCHAR p2477
ENCODING 9335
SWIDTH 440 0
DWIDTH 13 0
BBX 11 12 0 -2
BITMAP
2080
4040
8220
8620
8A20
9220
A220
BF20
8220
8220
4040
2080
ENDCHAR
STARTCHAR p2478
ENCODING 9336
SWIDTH 440 0
DWIDTH 13 0
BBX 11 12 0 -2
BITMAP
2080
4040
9F20
9020
9020
9E20
8120
8120
9120
8E20
4040
2080
ENDCHAR
STARTCHAR p2479
ENCODING 9337
SWIDTH 440 0
DWIDTH 13 0
BBX 11 12 0 -2
BITMAP
2080
4040
8E20
9120
9020
9E20
9120
9120
9120
8E20
4040
2080
ENDCHAR
STARTCHAR p247A
ENCODING 9338
SWIDTH 440 0
DWIDTH 13 0
BBX 11 12 0 -2
BITMAP
2080
4040
9F20
8120
8220
8220
8420
8420
8420
8420
4040
2080
ENDCHAR
STARTCHAR p247B
ENCODING 9339
SWIDTH 440 0
DWIDTH 13 0
BBX 11 12 0 -2
BITMAP
2080
4040
8E20
9120
9120
8E20
9120
9120
9120
8E20
4040
2080
ENDCHAR
STARTCHAR p247C
ENCODING 9340
SWIDTH 440 0
DWIDTH 13 0
BBX 11 12 0 -2
BITMAP
2080
4040
8E20
9120
9120
9120
8F20
8120
9120
8E20
4040
2080
ENDCHAR
STARTCHAR p247D
ENCODING 9341
SWIDTH 440 0
DWIDTH 13 0
BBX 11 12 0 -2
BITMAP
2080
4040
9720
B520
9520
9520
9520
9520
9520
9720
4040
2080
ENDCHAR
STARTCHAR p247E
ENCODING 9342
SWIDTH 440 0
DWIDTH 13 0
BBX 11 12 0 -2
BITMAP
2080
4040
8920
9B20
8920
8920
8920
8920
8920
8920
4040
2080
ENDCHAR
STARTCHAR p247F
ENCODING 9343
SWIDTH 440 0
DWIDTH 13 0
BBX 11 12 0 -2
BITMAP
2080
4040
9220
B520
9120
9120
9220
9420
9420
9720
4040
2080
ENDCHAR
STARTCHAR p2480
ENCODING 9344
SWIDTH 440 0
DWIDTH 13 0
BBX 11 12 0 -2
BITMAP
2080
4040
9220
B520
9120
9220
9120
9120
9520
9220
4040
2080
ENDCHAR
STARTCHAR p2481
ENCODING 9345
SWIDTH 440 0
DWIDTH 13 0
BBX 11 12 0 -2
BITMAP
2080
4040
9120
B320
9320
9520
9520
97A0
9120
9120
4040
2080
ENDCHAR
STARTCHAR p2482
ENCODING 9346
SWIDTH 440 0
DWIDTH 13 0
BBX 11 12 0 -2
BITMAP
2080
4040
9720
B420
9420
9620
9120
9120
9520
9220
4040
2080
ENDCHAR
STARTCHAR p2483
ENCODING 9347
SWIDTH 440 0
DWIDTH 13 0
BBX 11 12 0 -2
BITMAP
2080
4040
9220
B520
9420
9620
9520
9520
9520
9220
4040
2080
ENDCHAR
STARTCHAR p2484
ENCODING 9348
SWIDTH 440 0
DWIDTH 13 0
BBX 11 12 0 -2
BITMAP
2080
4040
9720
9120
9120
9120
9220
9220
9220
9220
4040
2080
ENDCHAR
STARTCHAR p2485
ENCODING 9349
SWIDTH 440 0
DWIDTH 13 0
BBX 11 12 0 -2
BITMAP
2080
4040
9220
B520
9520
9220
9520
9520
9520
9220
4040
2080
ENDCHAR
STARTCHAR p2486
ENCODING 9350
SWIDTH 440 0
DWIDTH 13 0
BBX 11 12 0 -2
BITMAP
2080
4040
9220
B520
9520
9520
9320
9120
9520
9220
4040
2080
ENDCHAR
STARTCHAR p2487
ENCODING 9351
SWIDTH 440 0
DWIDTH 13 0
BBX 11 12 0 -2
BITMAP
2080
4040
93A0
AAA0
8AA0
8AA0
92A0
A2A0
A2A0
BBA0
4040
2080
ENDCHAR
STARTCHAR p2488
ENCODING 9352
SWIDTH 440 0
DWIDTH 13 0
BBX 11 12 0 -2
BITMAP
0000
0400
1C00
0400
0400
0400
0400
0400
0400
0480
0000
0000
ENDCHAR
STARTCHAR p2489
ENCODING 9353
SWIDTH 440 0
DWIDTH 13 0
BBX 11 12 0 -2
BITMAP
0000
1C00
2200
2200
0200
0200
0400
0800
1000
3E80
0000
0000
ENDCHAR
STARTCHAR p248A
ENCODING 9354
SWIDTH 440 0
DWIDTH 13 0
BBX 11 12 0 -2
BITMAP
0000
1C00
2200
0200
0200
0C00
0200
0200
2200
1C80
0000
0000
ENDCHAR
STARTCHAR p248B
ENCODING 9355
SWIDTH 440 0
DWIDTH 13 0
BBX 11 12 0 -2
BITMAP
0000
0400
0400
0C00
1400
2400
4400
7E00
0400
0480
0000
0000
ENDCHAR
STARTCHAR p248C
ENCODING 9356
SWIDTH 440 0
DWIDTH 13 0
BBX 11 12 0 -2
BITMAP
0000
3E00
2000
2000
3C00
2200
0200
0200
2200
1C80
0000
0000
ENDCHAR
STARTCHAR p248D
ENCODING 9357
SWIDTH 440 0
DWIDTH 13 0
BBX 11 12 0 -2
BITMAP
0000
1C00
2200
2000
2C00
3200
2200
2200
2200
1C80
0000
0000
ENDCHAR
STARTCHAR p248E
ENCODING 9358
SWIDTH 440 0
DWIDTH 13 0
BBX 11 12 0 -2
BITMAP
0000
3E00
0200
0200
0400
0400
0800
0800
1000
1080
0000
0000
ENDCHAR
STARTCHAR p248F
ENCODING 9359
SWIDTH 440 0
DWIDTH 13 0
BBX 11 12 0 -2
BITMAP
0000
1C00
2200
2200
2200
1C00
2200
2200
2200
1C80
0000
0000
ENDCHAR
STARTCHAR p2490
ENCODING 9360
SWIDTH 440 0
DWIDTH 13 0
BBX 11 12 0 -2
BITMAP
0000
1C00
2200
2200
2200
2600
1A00
0200
2200
1C80
0000
0000
ENDCHAR
STARTCHAR p2491
ENCODING 9361
SWIDTH 440 0
DWIDTH 13 0
BBX 11 12 0 -2
BITMAP
0000
2300
6480
2480
2480
2480
2480
2480
2480
2320
0000
0000
ENDCHAR
STARTCHAR p2492
ENCODING 9362
SWIDTH 440 0
DWIDTH 13 0
BBX 11 12 0 -2
BITMAP
0000
1100
3300
1100
1100
1100
1100
1100
1100
1120
0000
0000
ENDCHAR
STARTCHAR p2493
ENCODING 9363
SWIDTH 440 0
DWIDTH 13 0
BBX 11 12 0 -2
BITMAP
0000
2700
6880
2080
2080
2100
2200
2400
2800
2FA0
0000
0000
ENDCHAR
STARTCHAR p2494
ENCODING 9364
SWIDTH 440 0
DWIDTH 13 0
BBX 11 12 0 -2
BITMAP
0000
2700
6880
2080
2080
2300
2080
2080
2880
2720
0000
0000
ENDCHAR
STARTCHAR p2495
ENCODING 9365
SWIDTH 440 0
DWIDTH 13 0
BBX 11 12 0 -2
BITMAP
0000
2100
6100
2300
2300
2500
2500
2900
2F80
2120
0000
0000
ENDCHAR
STARTCHAR p2496
ENCODING 9366
SWIDTH 440 0
DWIDTH 13 0
BBX 11 12 0 -2
BITMAP
0000
2780
6400
2400
2700
2480
2080
2080
2480
2320
0000
0000
ENDCHAR
STARTCHAR p2497
ENCODING 9367
SWIDTH 440 0
DWIDTH 13 0
BBX 11 12 0 -2
BITMAP
0000
2300
6480
2400
2700
2480
2480
2480
2480
2320
0000
0000
ENDCHAR
STARTCHAR p2498
ENCODING 9368
SWIDTH 440 0
DWIDTH 13 0
BBX 11 12 0 -2
BITMAP
0000
2780
6080
2080
2100
2100
2100
2200
2200
2220
0000
0000
ENDCHAR
STARTCHAR p2499
ENCODING 9369
SWIDTH 440 0
DWIDTH 13 0
BBX 11 12 0 -2
BITMAP
0000
2300
6480
2480
2480
2300
2480
2480
2480
2320
0000
0000
ENDCHAR
STARTCHAR p249A
ENCODING 9370
SWIDTH 440 0
DWIDTH 13 0
BBX 11 12 0 -2
BITMAP
0000
2300
6480
2480
2480
2480
2380
2080
2480
2320
0000
0000
ENDCHAR
STARTCHAR p249B
ENCODING 9371
SWIDTH 440 0
DWIDTH 13 0
BBX 11 12 0 -2
BITMAP
0000
6300
9480
9480
1480
1480
2480
4480
8480
F320
0000
0000
ENDCHAR
STARTCHAR p2500
ENCODING 9472
SWIDTH 440 0
DWIDTH 13 0
BBX 11 12 0 -2
BITMAP
0000
0000
0000
0000
0000
FFE0
0000
0000
0000
0000
0000
0000
ENDCHAR
STARTCHAR p2501
ENCODING 9473
SWIDTH 440 0
DWIDTH 13 0
BBX 11 12 0 -2
BITMAP
0000
0000
0000
0000
0000
FFE0
FFE0
0000
0000
0000
0000
0000
ENDCHAR
STARTCHAR p2502
ENCODING 9474
SWIDTH 440 0
DWIDTH 13 0
BBX 11 12 0 -2
BITMAP
0200
0200
0200
0200
0200
0200
0200
0200
0200
0200
0200
0200
ENDCHAR
STARTCHAR p2503
ENCODING 9475
SWIDTH 440 0
DWIDTH 13 0
BBX 11 12 0 -2
BITMAP
0600
0600
0600
0600
0600
0600
0600
0600
0600
0600
0600
0600
ENDCHAR
STARTCHAR p2504
ENCODING 9476
SWIDTH 440 0
DWIDTH 13 0
BBX 11 12 0 -2
BITMAP
0000
0000
0000
0000
0000
EEE0
0000
0000
0000
0000
0000
0000
ENDCHAR
STARTCHAR p2505
ENCODING 9477
SWIDTH 440 0
DWIDTH 13 0
BBX 11 12 0 -2
BITMAP
0000
0000
0000
0000
0000
EEE0
EEE0
0000
0000
0000
0000
0000
ENDCHAR
STARTCHAR p2506
ENCODING 9478
SWIDTH 440 0
DWIDTH 13 0
BBX 11 12 0 -2
BITMAP
0200
0200
0200
0000
0200
0200
0200
0000
0200
0200
0200
0200
ENDCHAR
STARTCHAR p2507
ENCODING 9479
SWIDTH 440 0
DWIDTH 13 0
BBX 11 12 0 -2
BITMAP
0600
0600
0600
0000
0600
0600
0600
0000
0600
0600
0600
0600
ENDCHAR
STARTCHAR p2508
ENCODING 9480
SWIDTH 440 0
DWIDTH 13 0
BBX 11 12 0 -2
BITMAP
0000
0000
0000
0000
0000
DBA0
0000
0000
0000
0000
0000
0000
ENDCHAR
STARTCHAR p2509
ENCODING 9481
SWIDTH 440 0
DWIDTH 13 0
BBX 11 12 0 -2
BITMAP
0000
0000
0000
0000
0000
DBA0
DBA0
0000
0000
0000
0000
0000
ENDCHAR
STARTCHAR p250A
ENCODING 9482
SWIDTH 440 0
DWIDTH 13 0
BBX 11 12 0 -2
BITMAP
0200
0200
0000
0200
0200
0000
0200
0200
0200
0000
0200
0200
ENDCHAR
STARTCHAR p250B
ENCODING 9483
SWIDTH 440 0
DWIDTH 13 0
BBX 11 12 0 -2
BITMAP
0600
0600
0000
0600
0600
0000
0600
0600
0600
0000
0600
0600
ENDCHAR
STARTCHAR p250C
ENCODING 9484
SWIDTH 440 0
DWIDTH 13 0
BBX 11 12 0 -2
BITMAP
0000
0000
0000
0000
0000
03E0
0200
0200
0200
0200
0200
0200
ENDCHAR
STARTCHAR p250D
ENCODING 9485
SWIDTH 440 0
DWIDTH 13 0
BBX 11 12 0 -2
BITMAP
0000
0000
0000
0000
0000
03E0
03E0
0200
0200
0200
0200
0200
ENDCHAR
STARTCHAR p250E
ENCODING 9486
SWIDTH 440 0
DWIDTH 13 0
BBX 11 12 0 -2
BITMAP
0000
0000
0000
0000
0000
07E0
0600
0600
0600
0600
0600
0600
ENDCHAR
STARTCHAR p250F
ENCODING 9487
SWIDTH 440 0
DWIDTH 13 0
BBX 11 12 0 -2
BITMAP
0000
0000
0000
0000
0000
07E0
07E0
0600
0600
0600
0600
0600
ENDCHAR
STARTCHAR p2510
ENCODING 9488
SWIDTH 440 0
DWIDTH 13 0
BBX 11 12 0 -2
BITMAP
0000
0000
0000
0000
0000
FE00
0200
0200
0200
0200
0200
0200
ENDCHAR
STARTCHAR p2511
ENCODING 9489
SWIDTH 440 0
DWIDTH 13 0
BBX 11 12 0 -2
BITMAP
0000
0000
0000
0000
0000
FE00
FE00
0200
0200
0200
0200
0200
ENDCHAR
STARTCHAR p2512
ENCODING 9490
SWIDTH 440 0
DWIDTH 13 0
BBX 11 12 0 -2
BITMAP
0000
0000
0000
0000
0000
FE00
0600
0600
0600
0600
0600
0600
ENDCHAR
STARTCHAR p2513
ENCODING 9491
SWIDTH 440 0
DWIDTH 13 0
BBX 11 12 0 -2
BITMAP
0000
0000
0000
0000
0000
FE00
FE00
0600
0600
0600
0600
0600
ENDCHAR
STARTCHAR p2514
ENCODING 9492
SWIDTH 440 0
DWIDTH 13 0
BBX 11 12 0 -2
BITMAP
0200
0200
0200
0200
0200
03E0
0000
0000
0000
0000
0000
0000
ENDCHAR
STARTCHAR p2515
ENCODING 9493
SWIDTH 440 0
DWIDTH 13 0
BBX 11 12 0 -2
BITMAP
0200
0200
0200
0200
0200
03E0
03E0
0000
0000
0000
0000
0000
ENDCHAR
STARTCHAR p2516
ENCODING 9494
SWIDTH 440 0
DWIDTH 13 0
BBX 11 12 0 -2
BITMAP
0600
0600
0600
0600
0600
07E0
0000
0000
0000
0000
0000
0000
ENDCHAR
STARTCHAR p2517
ENCODING 9495
SWIDTH 440 0
DWIDTH 13 0
BBX 11 12 0 -2
BITMAP
0600
0600
0600
0600
0600
07E0
07E0
0000
0000
0000
0000
0000
ENDCHAR
STARTCHAR p2518
ENCODING 9496
SWIDTH 440 0
DWIDTH 13 0
BBX 11 12 0 -2
BITMAP
0200
0200
0200
0200
0200
FE00
0000
0000
0000
0000
0000
0000
ENDCHAR
STARTCHAR p2519
ENCODING 9497
SWIDTH 440 0
DWIDTH 13 0
BBX 11 12 0 -2
BITMAP
0200
0200
0200
0200
0200
FE00
FE00
0000
0000
0000
0000
0000
ENDCHAR
STARTCHAR p251A
ENCODING 9498
SWIDTH 440 0
DWIDTH 13 0
BBX 11 12 0 -2
BITMAP
0600
0600
0600
0600
0600
FE00
0000
0000
0000
0000
0000
0000
ENDCHAR
STARTCHAR p251B
ENCODING 9499
SWIDTH 440 0
DWIDTH 13 0
BBX 11 12 0 -2
BITMAP
0600
0600
0600
0600
0600
FE00
FE00
0000
0000
0000
0000
0000
ENDCHAR
STARTCHAR p251C
ENCODING 9500
SWIDTH 440 0
DWIDTH 13 0
BBX 11 12 0 -2
BITMAP
0200
0200
0200
0200
0200
03E0
0200
0200
0200
0200
0200
0200
ENDCHAR
STARTCHAR p251D
ENCODING 9501
SWIDTH 440 0
DWIDTH 13 0
BBX 11 12 0 -2
BITMAP
0200
0200
0200
0200
0200
03E0
03E0
0200
0200
0200
0200
0200
ENDCHAR
STARTCHAR p251E
ENCODING 9502
SWIDTH 440 0
DWIDTH 13 0
BBX 11 12 0 -2
BITMAP
0600
0600
0600
0600
0600
07E0
0200
0200
0200
0200
0200
0200
ENDCHAR
STARTCHAR p251F
ENCODING 9503
SWIDTH 440 0
DWIDTH 13 0
BBX 11 12 0 -2
BITMAP
0200
0200
0200
0200
0200
07E0
0600
0600
0600
0600
0600
0600
ENDCHAR
STARTCHAR p2520
ENCODING 9504
SWIDTH 440 0
DWIDTH 13 0
BBX 11 12 0 -2
BITMAP
0600
0600
0600
0600
0600
07E0
0600
0600
0600
0600
0600
0600
ENDCHAR
STARTCHAR p2521
ENCODING 9505
SWIDTH 440 0
DWIDTH 13 0
BBX 11 12 0 -2
BITMAP
0600
0600
0600
0600
0600
07E0
07E0
0200
0200
0200
0200
0200
ENDCHAR
STARTCHAR p2522
ENCODING 9506
SWIDTH 440 0
DWIDTH 13 0
BBX 11 12 0 -2
BITMAP
0200
0200
0200
0200
0200
07E0
07E0
0600
0600
0600
0600
0600
ENDCHAR
STARTCHAR p2523
ENCODING 9507
SWIDTH 440 0
DWIDTH 13 0
BBX 11 12 0 -2
BITMAP
0600
0600
0600
0600
0600
07E0
07E0
0600
0600
0600
0600
0600
ENDCHAR
STARTCHAR p2524
ENCODING 9508
SWIDTH 440 0
DWIDTH 13 0
BBX 11 12 0 -2
BITMAP
0200
0200
0200
0200
0200
FE00
0200
0200
0200
0200
0200
0200
ENDCHAR
STARTCHAR p2525
ENCODING 9509
SWIDTH 440 0
DWIDTH 13 0
BBX 11 12 0 -2
BITMAP
0200
0200
0200
0200
0200
FE00
FE00
0200
0200
0200
0200
0200
ENDCHAR
STARTCHAR p2526
ENCODING 9510
SWIDTH 440 0
DWIDTH 13 0
BBX 11 12 0 -2
BITMAP
0600
0600
0600
0600
0600
FE00
0200
0200
0200
0200
0200
0200
ENDCHAR
STARTCHAR p2527
ENCODING 9511
SWIDTH 440 0
DWIDTH 13 0
BBX 11 12 0 -2
BITMAP
0200
0200
0200
0200
0200
FE00
0600
0600
0600
0600
0600
0600
ENDCHAR
STARTCHAR p2528
ENCODING 9512
SWIDTH 440 0
DWIDTH 13 0
BBX 11 12 0 -2
BITMAP
0600
0600
0600
0600
0600
FE00
0600
0600
0600
0600
0600
0600
ENDCHAR
STARTCHAR p2529
ENCODING 9513
SWIDTH 440 0
DWIDTH 13 0
BBX 11 12 0 -2
BITMAP
0600
0600
0600
0600
0600
FE00
FE00
0200
0200
0200
0200
0200
ENDCHAR
STARTCHAR p252A
ENCODING 9514
SWIDTH 440 0
DWIDTH 13 0
BBX 11 12 0 -2
BITMAP
0200
0200
0200
0200
0200
FE00
FE00
0600
0600
0600
0600
0600
ENDCHAR
STARTCHAR p252B
ENCODING 9515
SWIDTH 440 0
DWIDTH 13 0
BBX 11 12 0 -2
BITMAP
0600
0600
0600
0600
0600
FE00
FE00
0600
0600
0600
0600
0600
ENDCHAR
STARTCHAR p252C
ENCODING 9516
SWIDTH 440 0
DWIDTH 13 0
BBX 11 12 0 -2
BITMAP
0000
0000
0000
0000
0000
FFE0
0200
0200
0200
0200
0200
0200
ENDCHAR
STARTCHAR p252D
ENCODING 9517
SWIDTH 440 0
DWIDTH 13 0
BBX 11 12 0 -2
BITMAP
0000
0000
0000
0000
0000
FFE0
FE00
0200
0200
0200
0200
0200
ENDCHAR
STARTCHAR p252E
ENCODING 9518
SWIDTH 440 0
DWIDTH 13 0
BBX 11 12 0 -2
BITMAP
0000
0000
0000
0000
0000
FFE0
03E0
0200
0200
0200
0200
0200
ENDCHAR
STARTCHAR p252F
ENCODING 9519
SWIDTH 440 0
DWIDTH 13 0
BBX 11 12 0 -2
BITMAP
0000
0000
0000
0000
0000
FFE0
FFE0
0200
0200
0200
0200
0200
ENDCHAR
STARTCHAR p2530
ENCODING 9520
SWIDTH 440 0
DWIDTH 13 0
BBX 11 12 0 -2
BITMAP
0000
0000
0000
0000
0000
FFE0
0600
0600
0600
0600
0600
0600
ENDCHAR
STARTCHAR p2531
ENCODING 9521
SWIDTH 440 0
DWIDTH 13 0
BBX 11 12 0 -2
BITMAP
0000
0000
0000
0000
0000
FFE0
FE00
0600
0600
0600
0600
0600
ENDCHAR
STARTCHAR p2532
ENCODING 9522
SWIDTH 440 0
DWIDTH 13 0
BBX 11 12 0 -2
BITMAP
0000
0000
0000
0000
0000
FFE0
07E0
0600
0600
0600
0600
0600
ENDCHAR
STARTCHAR p2533
ENCODING 9523
SWIDTH 440 0
DWIDTH 13 0
BBX 11 12 0 -2
BITMAP
0000
0000
0000
0000
0000
FFE0
FFE0
0600
0600
0600
0600
0600
ENDCHAR
STARTCHAR p2534
ENCODING 9524
SWIDTH 440 0
DWIDTH 13 0
BBX 11 12 0 -2
BITMAP
0200
0200
0200
0200
0200
FFE0
0000
0000
0000
0000
0000
0000
ENDCHAR
STARTCHAR p2535
ENCODING 9525
SWIDTH 440 0
DWIDTH 13 0
BBX 11 12 0 -2
BITMAP
0200
0200
0200
0200
0200
FFE0
FE00
0000
0000
0000
0000
0000
ENDCHAR
STARTCHAR p2536
ENCODING 9526
SWIDTH 440 0
DWIDTH 13 0
BBX 11 12 0 -2
BITMAP
0200
0200
0200
0200
0200
FFE0
03E0
0000
0000
0000
0000
0000
ENDCHAR
STARTCHAR p2537
ENCODING 9527
SWIDTH 440 0
DWIDTH 13 0
BBX 11 12 0 -2
BITMAP
0200
0200
0200
0200
0200
FFE0
FFE0
0000
0000
0000
0000
0000
ENDCHAR
STARTCHAR p2538
ENCODING 9528
SWIDTH 440 0
DWIDTH 13 0
BBX 11 12 0 -2
BITMAP
0600
0600
0600
0600
0600
FFE0
0000
0000
0000
0000
0000
0000
ENDCHAR
STARTCHAR p2539
ENCODING 9529
SWIDTH 440 0
DWIDTH 13 0
BBX 11 12 0 -2
BITMAP
0600
0600
0600
0600
0600
FFE0
FE00
0000
0000
0000
0000
0000
ENDCHAR
STARTCHAR p253A
ENCODING 9530
SWIDTH 440 0
DWIDTH 13 0
BBX 11 12 0 -2
BITMAP
0600
0600
0600
0600
0600
FFE0
07E0
0000
0000
0000
0000
0000
ENDCHAR
STARTCHAR p253B
ENCODING 9531
SWIDTH 440 0
DWIDTH 13 0
BBX 11 12 0 -2
BITMAP
0600
0600
0600
0600
0600
FFE0
FFE0
0000
0000
0000
0000
0000
ENDCHAR
STARTCHAR p253C
ENCODING 9532
SWIDTH 440 0
DWIDTH 13 0
BBX 11 12 0 -2
BITMAP
0200
0200
0200
0200
0200
FFE0
0200
0200
0200
0200
0200
0200
ENDCHAR
STARTCHAR p253D
ENCODING 9533
SWIDTH 440 0
DWIDTH 13 0
BBX 11 12 0 -2
BITMAP
0200
0200
0200
0200
0200
FFE0
FE00
0200
0200
0200
0200
0200
ENDCHAR
STARTCHAR p253E
ENCODING 9534
SWIDTH 440 0
DWIDTH 13 0
BBX 11 12 0 -2
BITMAP
0200
0200
0200
0200
0200
FFE0
03E0
0200
0200
0200
0200
0200
ENDCHAR
STARTCHAR p253F
ENCODING 9535
SWIDTH 440 0
DWIDTH 13 0
BBX 11 12 0 -2
BITMAP
0200
0200
0200
0200
0200
FFE0
FFE0
0200
0200
0200
0200
0200
ENDCHAR
STARTCHAR p2540
ENCODING 9536
SWIDTH 440 0
DWIDTH 13 0
BBX 11 12 0 -2
BITMAP
0600
0600
0600
0600
0600
FFE0
0200
0200
0200
0200
0200
0200
ENDCHAR
STARTCHAR p2541
ENCODING 9537
SWIDTH 440 0
DWIDTH 13 0
BBX 11 12 0 -2
BITMAP
0200
0200
0200
0200
0200
FFE0
0600
0600
0600
0600
0600
0600
ENDCHAR
STARTCHAR p2542
ENCODING 9538
SWIDTH 440 0
DWIDTH 13 0
BBX 11 12 0 -2
BITMAP
0600
0600
0600
0600
0600
FFE0
0600
0600
0600
0600
0600
0600
ENDCHAR
STARTCHAR p2543
ENCODING 9539
SWIDTH 440 0
DWIDTH 13 0
BBX 11 12 0 -2
BITMAP
0600
0600
0600
0600
0600
FFE0
FE00
0200
0200
0200
0200
0200
ENDCHAR
STARTCHAR p2544
ENCODING 9540
SWIDTH 440 0
DWIDTH 13 0
BBX 11 12 0 -2
BITMAP
0600
0600
0600
0600
0600
FFE0
03E0
0200
0200
0200
0200
0200
ENDCHAR
STARTCHAR p2545
ENCODING 9541
SWIDTH 440 0
DWIDTH 13 0
BBX 11 12 0 -2
BITMAP
0200
0200
0200
0200
0200
FFE0
FE00
0600
0600
0600
0600
0600
ENDCHAR
STARTCHAR p2546
ENCODING 9542
SWIDTH 440 0
DWIDTH 13 0
BBX 11 12 0 -2
BITMAP
0200
0200
0200
0200
0200
FFE0
07E0
0600
0600
0600
0600
0600
ENDCHAR
STARTCHAR p2547
ENCODING 9543
SWIDTH 440 0
DWIDTH 13 0
BBX 11 12 0 -2
BITMAP
0600
0600
0600
0600
0600
FFE0
FFE0
0200
0200
0200
0200
0200
ENDCHAR
STARTCHAR p2548
ENCODING 9544
SWIDTH 440 0
DWIDTH 13 0
BBX 11 12 0 -2
BITMAP
0200
0200
0200
0200
0200
FFE0
FFE0
0600
0600
0600
0600
0600
ENDCHAR
STARTCHAR p2549
ENCODING 9545
SWIDTH 440 0
DWIDTH 13 0
BBX 11 12 0 -2
BITMAP
0600
0600
0600
0600
0600
FFE0
FE00
0600
0600
0600
0600
0600
ENDCHAR
STARTCHAR p254A
ENCODING 9546
SWIDTH 440 0
DWIDTH 13 0
BBX 11 12 0 -2
BITMAP
0600
0600
0600
0600
0600
FFE0
07E0
0600
0600
0600
0600
0600
ENDCHAR
STARTCHAR p254B
ENCODING 9547
SWIDTH 440 0
DWIDTH 13 0
BBX 11 12 0 -2
BITMAP
0600
0600
0600
0600
0600
FFE0
FFE0
0600
0600
0600
0600
0600
ENDCHAR
STARTCHAR p25A0
ENCODING 9632
SWIDTH 440 0
DWIDTH 13 0
BBX 11 12 0 -2
BITMAP
0000
7FC0
7FC0
7FC0
7FC0
7FC0
7FC0
7FC0
7FC0
7FC0
0000
0000
ENDCHAR
STARTCHAR p25A1
ENCODING 9633
SWIDTH 440 0
DWIDTH 13 0
BBX 11 12 0 -2
BITMAP
0000
7FC0
4040
4040
4040
4040
4040
4040
4040
7FC0
0000
0000
ENDCHAR
STARTCHAR p25B2
ENCODING 9650
SWIDTH 440 0
DWIDTH 13 0
BBX 11 12 0 -2
BITMAP
0000
0400
0400
0E00
0E00
1F00
1F00
3F80
3F80
7FC0
0000
0000
ENDCHAR
STARTCHAR p25B3
ENCODING 9651
SWIDTH 440 0
DWIDTH 13 0
BBX 11 12 0 -2
BITMAP
0000
0400
0400
0A00
0A00
1100
1100
2080
2080
7FC0
0000
0000
ENDCHAR
STARTCHAR p25C6
ENCODING 9670
SWIDTH 440 0
DWIDTH 13 0
BBX 11 12 0 -2
BITMAP
0400
0E00
1F00
3F80
7FC0
FFE0
7FC0
3F80
1F00
0E00
0400
0000
ENDCHAR
STARTCHAR p25C7
ENCODING 9671
SWIDTH 440 0
DWIDTH 13 0
BBX 11 12 0 -2
BITMAP
0400
0A00
1100
2080
4040
8020
4040
2080
1100
0A00
0400
0000
ENDCHAR
STARTCHAR p25CB
ENCODING 9675
SWIDTH 440 0
DWIDTH 13 0
BBX 11 12 0 -2
BITMAP
0000
0000
0F00
1080
2040
2040
2040
2040
1080
0F00
0000
0000
ENDCHAR
STARTCHAR p25CE
ENCODING 9678
SWIDTH 440 0
DWIDTH 13 0
BBX 11 12 0 -2
BITMAP
0000
0000
0F00
1080
2640
2940
2940
2640
1080
0F00
0000
0000
ENDCHAR
STARTCHAR p25CF
ENCODING 9679
SWIDTH 440 0
DWIDTH 13 0
BBX 11 12 0 -2
BITMAP
0000
0000
0F00
1F80
3FC0
3FC0
3FC0
3FC0
1F80
0F00
0000
0000
ENDCHAR
STARTCHAR p2605
ENCODING 9733
SWIDTH 440 0
DWIDTH 13 0
BBX 11 12 0 -2
BITMAP
0400
0400
0E00
0E00
FFE0
7FC0
1F00
1F00
3B80
2080
4040
0000
ENDCHAR
STARTCHAR p2606
ENCODING 9734
SWIDTH 440 0
DWIDTH 13 0
BBX 11 12 0 -2
BITMAP
0400
0400
0400
0A00
FBE0
4040
3180
1500
1A80
3180
2080
0000
ENDCHAR
STARTCHAR p2640
ENCODING 9792
SWIDTH 440 0
DWIDTH 13 0
BBX 11 12 0 -2
BITMAP
0000
0E00
1100
1100
1100
0E00
0400
3F80
0400
0400
0400
0000
ENDCHAR
STARTCHAR p2642
ENCODING 9794
SWIDTH 440 0
DWIDTH 13 0
BBX 11 12 0 -2
BITMAP
0000
0400
0E00
1500
0400
0400
0E00
1100
1100
1100
0E00
0000
ENDCHAR
STARTCHAR p3000
ENCODING 12288
SWIDTH 440 0
DWIDTH 13 0
BBX 11 12 0 -2
BITMAP
0000
0000
0000
0000
0000
0000
0000
0000
0000
0000
0000
0000
ENDCHAR
STARTCHAR p3001
ENCODING 12289
SWIDTH 440 0
DWIDTH 13 0
BBX 11 12 0 -2
BITMAP
0000
0000
0000
0000
0000
0000
0000
8000
6000
2000
0000
0000
ENDCHAR
STARTCHAR p3002
ENCODING 12290
SWIDTH 440 0
DWIDTH 6 0
BBX 6 12 0 -2
BITMAP
00
00
00
00
00
00
00
70
50
70
00
00
ENDCHAR
STARTCHAR p3003
ENCODING 12291
SWIDTH 440 0
DWIDTH 13 0
BBX 11 12 0 -2
BITMAP
0000
0000
0000
0500
0500
0A00
0A00
1400
0000
0000
0000
0000
ENDCHAR
STARTCHAR p3005
ENCODING 12293
SWIDTH 440 0
DWIDTH 13 0
BBX 11 12 0 -2
BITMAP
0000
0400
0400
07C0
0840
1080
0500
0200
0100
0000
0000
0000
ENDCHAR
STARTCHAR p3008
ENCODING 12296
SWIDTH 440 0
DWIDTH 13 0
BBX 11 12 0 -2
BITMAP
0040
0080
0080
0100
0100
0200
0200
0100
0100
0080
0080
0040
ENDCHAR
STARTCHAR p3009
ENCODING 12297
SWIDTH 440 0
DWIDTH 13 0
BBX 11 12 0 -2
BITMAP
2000
1000
1000
0800
0800
0400
0400
0800
0800
1000
1000
2000
ENDCHAR
STARTCHAR p300A
ENCODING 12298
SWIDTH 440 0
DWIDTH 13 0
BBX 11 12 0 -2
BITMAP
00A0
0140
0140
0280
0280
0500
0500
0280
0280
0140
0140
00A0
ENDCHAR
STARTCHAR p300B
ENCODING 12299
SWIDTH 440 0
DWIDTH 13 0
BBX 11 12 0 -2
BITMAP
A000
5000
5000
2800
2800
1400
1400
2800
2800
5000
5000
A000
ENDCHAR
STARTCHAR p300C
ENCODING 12300
SWIDTH 440 0
DWIDTH 13 0
BBX 11 12 0 -2
BITMAP
0000
0000
0380
0200
0200
0200
0200
0200
0200
0200
0000
0000
ENDCHAR
STARTCHAR p300D
ENCODING 12301
SWIDTH 440 0
DWIDTH 13 0
BBX 11 12 0 -2
BITMAP
0000
0000
0400
0400
0400
0400
0400
0400
0400
1C00
0000
0000
ENDCHAR
STARTCHAR p300E
ENCODING 12302
SWIDTH 440 0
DWIDTH 13 0
BBX 11 12 0 -2
BITMAP
0000
0000
03E0
0220
02E0
0280
0280
0280
0280
0380
0000
0000
ENDCHAR
STARTCHAR p300F
ENCODING 12303
SWIDTH 440 0
DWIDTH 13 0
BBX 11 12 0 -2
BITMAP
0000
0000
1C00
1400
1400
1400
1400
7400
4400
7C00
0000
0000
ENDCHAR
STARTCHAR p3010
ENCODING 12304
SWIDTH 440 0
DWIDTH 13 0
BBX 11 12 0 -2
BITMAP
03E0
03C0
0380
0380
0300
0300
0300
0300
0380
0380
03C0
03E0
ENDCHAR
STARTCHAR p3011
ENCODING 12305
SWIDTH 440 0
DWIDTH 13 0
BBX 11 12 0 -2
BITMAP
7C00
3C00
1C00
1C00
0C00
0C00
0C00
0C00
1C00
1C00
3C00
7C00
ENDCHAR
STARTCHAR p3013
ENCODING 12307
SWIDTH 440 0
DWIDTH 13 0
BBX 11 12 0 -2
BITMAP
0000
3FC0
3FC0
3FC0
0000
0000
0000
3FC0
3FC0
3FC0
0000
0000
ENDCHAR
STARTCHAR p3014
ENCODING 12308
SWIDTH 440 0
DWIDTH 13 0
BBX 11 12 0 -2
BITMAP
0080
0100
0200
0200
0200
0200
0200
0200
0200
0200
0100
0080
ENDCHAR
STARTCHAR p3015
ENCODING 12309
SWIDTH 440 0
DWIDTH 13 0
BBX 11 12 0 -2
BITMAP
1000
0800
0400
0400
0400
0400
0400
0400
0400
0400
0800
1000
ENDCHAR
STARTCHAR p3016
ENCODING 12310
SWIDTH 440 0
DWIDTH 13 0
BBX 11 12 0 -2
BITMAP
03E0
0220
0240
0240
0280
0280
0280
0280
0240
0240
0220
03E0
ENDCHAR
STARTCHAR p3017
ENCODING 12311
SWIDTH 440 0
DWIDTH 13 0
BBX 11 12 0 -2
BITMAP
7C00
4400
2400
2400
1400
1400
1400
1400
2400
2400
4400
7C00
ENDCHAR
STARTCHAR p3041
ENCODING 12353
SWIDTH 440 0
DWIDTH 13 0
BBX 11 12 0 -2
BITMAP
0000
0400
0500
1E00
0800
0F00
1A80
2A40
2C40
3480
0100
0000
ENDCHAR
STARTCHAR p3042
ENCODING 12354
SWIDTH 440 0
DWIDTH 13 0
BBX 11 12 0 -2
BITMAP
0400
0400
0700
1800
0A00
0F80
1A40
2A20
4C20
4820
7440
0180
ENDCHAR
STARTCHAR p3043
ENCODING 12355
SWIDTH 440 0
DWIDTH 13 0
BBX 11 12 0 -2
BITMAP
0000
0000
1000
1100
2080
2040
20C0
2400
1800
0800
0000
0000
ENDCHAR
STARTCHAR p3044
ENCODING 12356
SWIDTH 440 0
DWIDTH 13 0
BBX 11 12 0 -2
BITMAP
0000
0000
2000
2100
2080
2040
20C0
2400
2800
1800
0800
0000
ENDCHAR
STARTCHAR p3045
ENCODING 12357
SWIDTH 440 0
DWIDTH 13 0
BBX 11 12 0 -2
BITMAP
0000
0400
0200
0400
0300
0C80
0080
0080
0100
0200
0400
0000
ENDCHAR
STARTCHAR p3046
ENCODING 12358
SWIDTH 440 0
DWIDTH 13 0
BBX 11 12 0 -2
BITMAP
0400
0200
0400
0000
0700
1880
0080
0080
0080
0100
0200
0400
ENDCHAR
STARTCHAR p3047
ENCODING 12359
SWIDTH 440 0
DWIDTH 13 0
BBX 11 12 0 -2
BITMAP
0000
0400
0200
0400
0000
0600
1A00
0400
0A00
1200
1380
0000
ENDCHAR
STARTCHAR p3048
ENCODING 12360
SWIDTH 440 0
DWIDTH 13 0
BBX 11 12 0 -2
BITMAP
0000
0C00
0200
0400
0300
1D00
0200
0400
0E00
1200
2200
21C0
ENDCHAR
STARTCHAR p3049
ENCODING 12361
SWIDTH 440 0
DWIDTH 13 0
BBX 11 12 0 -2
BITMAP
0000
0000
0800
0880
0C40
3B40
0C80
1840
2840
1B80
0000
0000
ENDCHAR
STARTCHAR p304A
ENCODING 12362
SWIDTH 440 0
DWIDTH 13 0
BBX 11 12 0 -2
BITMAP
0000
0000
1000
1CC0
7020
1740
1880
3080
5080
5480
3300
0000
ENDCHAR
STARTCHAR p304B
ENCODING 12363
SWIDTH 440 0
DWIDTH 13 0
BBX 11 12 0 -2
BITMAP
0000
0000
0800
0880
0E40
7A20
1260
1200
2200
5400
8800
0000
ENDCHAR
STARTCHAR p304C
ENCODING 12364
SWIDTH 440 0
DWIDTH 13 0
BBX 11 12 0 -2
BITMAP
0040
00A0
0840
0820
0E80
7240
1220
2240
2200
5400
8800
0000
ENDCHAR
STARTCHAR p304D
ENCODING 12365
SWIDTH 440 0
DWIDTH 13 0
BBX 11 12 0 -2
BITMAP
0000
1000
0A00
1C00
0380
1E00
0100
0F80
1000
1000
0F80
0000
ENDCHAR
STARTCHAR p304E
ENCODING 12366
SWIDTH 440 0
DWIDTH 13 0
BBX 11 12 0 -2
BITMAP
0000
2140
14A0
3800
0E00
3C00
0200
1F00
2000
2000
1E00
0000
ENDCHAR
STARTCHAR p304F
ENCODING 12367
SWIDTH 440 0
DWIDTH 13 0
BBX 11 12 0 -2
BITMAP
0000
0100
0100
0200
0400
0800
1000
0800
0400
0200
0100
0100
ENDCHAR
STARTCHAR p3050
ENCODING 12368
SWIDTH 440 0
DWIDTH 13 0
BBX 11 12 0 -2
BITMAP
0000
0440
0520
0880
1000
2000
4000
2000
1000
0800
0400
0400
ENDCHAR
STARTCHAR p3051
ENCODING 12369
SWIDTH 440 0
DWIDTH 13 0
BBX 11 12 0 -2
BITMAP
0000
2100
2100
2140
2780
4100
4100
5100
5100
2100
2200
0400
ENDCHAR
STARTCHAR p3052
ENCODING 12370
SWIDTH 440 0
DWIDTH 13 0
BBX 11 12 0 -2
BITMAP
0040
0220
4280
4240
9F00
8200
8200
8200
A200
C200
4400
0800
ENDCHAR
STARTCHAR p3053
ENCODING 12371
SWIDTH 440 0
DWIDTH 13 0
BBX 11 12 0 -2
BITMAP
0000
0000
0C00
0380
0400
0000
1000
2000
2000
1040
0F80
0000
ENDCHAR
STARTCHAR p3054
ENCODING 12372
SWIDTH 440 0
DWIDTH 13 0
BBX 11 12 0 -2
BITMAP
0000
0140
18A0
0600
0800
0000
2000
4000
4000
2100
1E00
0000
ENDCHAR
STARTCHAR p3055
ENCODING 12373
SWIDTH 440 0
DWIDTH 13 0
BBX 11 12 0 -2
BITMAP
0000
0C00
0880
0500
3E00
0100
0F80
1080
2000
2000
1F00
0000
ENDCHAR
STARTCHAR p3056
ENCODING 12374
SWIDTH 440 0
DWIDTH 13 0
BBX 11 12 0 -2
BITMAP
0040
1920
1080
0A00
7C00
0200
1F00
2100
2000
2000
1F00
0000
ENDCHAR
STARTCHAR p3057
ENCODING 12375
SWIDTH 440 0
DWIDTH 13 0
BBX 11 12 0 -2
BITMAP
0000
1000
1000
1000
1000
1000
1000
1040
1080
1100
0E00
0000
ENDCHAR
STARTCHAR p3058
ENCODING 12376
SWIDTH 440 0
DWIDTH 13 0
BBX 11 12 0 -2
BITMAP
0000
2040
2120
2080
2000
2000
2000
2080
2100
2200
1C00
0000
ENDCHAR
STARTCHAR p3059
ENCODING 12377
SWIDTH 440 0
DWIDTH 13 0
BBX 11 12 0 -2
BITMAP
0000
0300
0200
03C0
3E00
0600
0A00
0A00
0600
0200
0400
0800
ENDCHAR
STARTCHAR p305A
ENCODING 12378
SWIDTH 440 0
DWIDTH 13 0
BBX 11 12 0 -2
BITMAP
0140
0CA0
0800
0F00
F800
1800
2800
2800
1800
0800
1000
2000
ENDCHAR
STARTCHAR p305B
ENCODING 12379
SWIDTH 440 0
DWIDTH 13 0
BBX 11 12 0 -2
BITMAP
0000
0000
0100
1100
11C0
1F00
F100
1300
1000
1000
0F80
0000
ENDCHAR
STARTCHAR p305C
ENCODING 12380
SWIDTH 440 0
DWIDTH 13 0
BBX 11 12 0 -2
BITMAP
0040
00A0
0140
1100
11C0
1F00
F100
1300
1000
1000
0F80
0000
ENDCHAR
STARTCHAR p305D
ENCODING 12381
SWIDTH 440 0
DWIDTH 13 0
BBX 11 12 0 -2
BITMAP
0000
0700
3A00
0400
09C0
1E00
6400
0800
0800
0800
0400
0380
ENDCHAR
STARTCHAR p305E
ENCODING 12382
SWIDTH 440 0
DWIDTH 13 0
BBX 11 12 0 -2
BITMAP
0040
1E20
6480
0840
1300
3C00
C800
1000
1000
1000
0800
0700
ENDCHAR
STARTCHAR p305F
ENCODING 12383
SWIDTH 440 0
DWIDTH 13 0
BBX 11 12 0 -2
BITMAP
0000
0C00
0A00
0E00
39C0
1060
1080
2000
2400
4400
43C0
0000
ENDCHAR
STARTCHAR p3060
ENCODING 12384
SWIDTH 440 0
DWIDTH 13 0
BBX 11 12 0 -2
BITMAP
0040
0920
0880
0E00
3800
1300
1080
2100
2000
4800
47C0
0000
ENDCHAR
STARTCHAR p3061
ENCODING 12385
SWIDTH 440 0
DWIDTH 13 0
BBX 11 12 0 -2
BITMAP
0000
0800
0800
0B00
3C00
0800
1780
1840
1040
0040
0080
0700
ENDCHAR
STARTCHAR p3062
ENCODING 12386
SWIDTH 440 0
DWIDTH 13 0
BBX 11 12 0 -2
BITMAP
0040
0920
0880
0E00
7800
1000
1780
3840
2040
0040
0080
0700
ENDCHAR
STARTCHAR p3063
ENCODING 12387
SWIDTH 440 0
DWIDTH 13 0
BBX 11 12 0 -2
BITMAP
0000
0000
0000
0F80
3040
0040
0040
0080
0100
0600
0000
0000
ENDCHAR
STARTCHAR p3064
ENCODING 12388
SWIDTH 440 0
DWIDTH 13 0
BBX 11 12 0 -2
BITMAP
0000
0000
0380
0C40
7020
0020
0020
0040
0080
0700
0000
0000
ENDCHAR
STARTCHAR p3065
ENCODING 12389
SWIDTH 440 0
DWIDTH 13 0
BBX 11 12 0 -2
BITMAP
0140
00A0
0E00
3100
C080
0080
0080
0080
0100
0600
3800
0000
ENDCHAR
STARTCHAR p3066
ENCODING 12390
SWIDTH 440 0
DWIDTH 13 0
BBX 11 12 0 -2
BITMAP
0000
0000
03C0
7E00
0400
0800
0800
0800
0800
0400
03C0
0000
ENDCHAR
STARTCHAR p3067
ENCODING 12391
SWIDTH 440 0
DWIDTH 13 0
BBX 11 12 0 -2
BITMAP
0140
00A0
0700
FC00
0800
1000
1000
1000
1000
0800
0700
0000
ENDCHAR
STARTCHAR p3068
ENCODING 12392
SWIDTH 440 0
DWIDTH 13 0
BBX 11 12 0 -2
BITMAP
0000
0400
0400
0400
0580
0600
1800
2000
2000
2000
1F80
0000
ENDCHAR
STARTCHAR p3069
ENCODING 12393
SWIDTH 440 0
DWIDTH 13 0
BBX 11 12 0 -2
BITMAP
0000
0940
08A0
0800
0B00
0C00
1000
2000
2000
2000
1F80
0000
ENDCHAR
STARTCHAR p306A
ENCODING 12394
SWIDTH 440 0
DWIDTH 13 0
BBX 11 12 0 -2
BITMAP
0000
0800
0A00
3C80
1040
1180
2200
4200
0200
0F80
1200
0E00
ENDCHAR
STARTCHAR p306B
ENCODING 12395
SWIDTH 440 0
DWIDTH 13 0
BBX 11 12 0 -2
BITMAP
0000
2000
2780
2040
2080
4000
4000
4400
5400
23E0
2000
0000
ENDCHAR
STARTCHAR p306C
ENCODING 12396
SWIDTH 440 0
DWIDTH 13 0
BBX 11 12 0 -2
BITMAP
0000
0000
0800
2B80
2C40
3840
2840
6840
51C0
5A60
63A0
0000
ENDCHAR
STARTCHAR p306D
ENCODING 12397
SWIDTH 440 0
DWIDTH 13 0
BBX 11 12 0 -2
BITMAP
0000
1000
1180
1A40
7440
1840
1040
3040
53C0
5440
33A0
0000
ENDCHAR
STARTCHAR p306E
ENCODING 12398
SWIDTH 440 0
DWIDTH 13 0
BBX 11 12 0 -2
BITMAP
0000
0000
1F80
2440
4420
4420
4820
4820
3040
0180
0E00
0000
ENDCHAR
STARTCHAR p306F
ENCODING 12399
SWIDTH 440 0
DWIDTH 13 0
BBX 11 12 0 -2
BITMAP
0000
2100
2100
21C0
4700
4100
4100
4100
5780
2940
2700
0000
ENDCHAR
STARTCHAR p3070
ENCODING 12400
SWIDTH 440 0
DWIDTH 13 0
BBX 11 12 0 -2
BITMAP
0040
42A0
4240
4380
8E00
8200
8200
8200
AF00
5280
4C00
0000
ENDCHAR
STARTCHAR p3071
ENCODING 12401
SWIDTH 440 0
DWIDTH 13 0
BBX 11 12 0 -2
BITMAP
00E0
42A0
42E0
4380
8E00
8200
8200
8200
AF00
5280
4C00
0000
ENDCHAR
STARTCHAR p3072
ENCODING 12402
SWIDTH 440 0
DWIDTH 13 0
BBX 11 12 0 -2
BITMAP
0000
1800
6880
1080
10C0
20A0
2080
2080
2100
2200
1C00
0000
ENDCHAR
STARTCHAR p3073
ENCODING 12403
SWIDTH 440 0
DWIDTH 13 0
BBX 11 12 0 -2
BITMAP
0140
30A0
D000
2100
2180
4140
4100
4100
4100
2200
1C00
0000
ENDCHAR
STARTCHAR p3074
ENCODING 12404
SWIDTH 440 0
DWIDTH 13 0
BBX 11 12 0 -2
BITMAP
00E0
18A0
68E0
1100
2180
2140
4100
4100
4100
2200
1C00
0000
ENDCHAR
STARTCHAR p3075
ENCODING 12405
SWIDTH 440 0
DWIDTH 13 0
BBX 11 12 0 -2
BITMAP
0000
0400
0200
0400
0800
0800
0780
0A40
1120
6960
0600
0000
ENDCHAR
STARTCHAR p3076
ENCODING 12406
SWIDTH 440 0
DWIDTH 13 0
BBX 11 12 0 -2
BITMAP
0040
0420
0280
0440
0800
0800
0600
09C0
1120
6960
0600
0000
ENDCHAR
STARTCHAR p3077
ENCODING 12407
SWIDTH 440 0
DWIDTH 13 0
BBX 11 12 0 -2
BITMAP
00E0
04A0
02E0
0400
0800
0800
0600
09C0
1120
6960
0600
0000
ENDCHAR
STARTCHAR p3078
ENCODING 12408
SWIDTH 440 0
DWIDTH 13 0
BBX 11 12 0 -2
BITMAP
0000
0000
0000
0000
1800
2400
C300
00E0
0000
0000
0000
0000
ENDCHAR
STARTCHAR p3079
ENCODING 12409
SWIDTH 440 0
DWIDTH 13 0
BBX 11 12 0 -2
BITMAP
0000
0080
0040
0100
1880
2400
C300
00E0
0000
0000
0000
0000
ENDCHAR
STARTCHAR p307A
ENCODING 12410
SWIDTH 440 0
DWIDTH 13 0
BBX 11 12 0 -2
BITMAP
0000
00E0
00A0
00E0
1800
2400
C300
00E0
0000
0000
0000
0000
ENDCHAR
STARTCHAR p307B
ENCODING 12411
SWIDTH 440 0
DWIDTH 13 0
BBX 11 12 0 -2
BITMAP
0000
20C0
2700
2100
21C0
4700
4100
4100
5780
2940
2E40
0000
ENDCHAR
STARTCHAR p307C
ENCODING 12412
SWIDTH 440 0
DWIDTH 13 0
BBX 11 12 0 -2
BITMAP
0040
40A0
4F40
4200
4380
8E00
8200
8200
AF00
5280
5C80
0000
ENDCHAR
STARTCHAR p307D
ENCODING 12413
SWIDTH 440 0
DWIDTH 13 0
BBX 11 12 0 -2
BITMAP
00E0
41A0
4EE0
4200
4380
8E00
8200
8200
AE00
5300
5C80
0000
ENDCHAR
STARTCHAR p307E
ENCODING 12414
SWIDTH 440 0
DWIDTH 13 0
BBX 11 12 0 -2
BITMAP
0000
0200
0280
0F00
0200
0280
0F00
0200
0F00
1280
0C40
0000
ENDCHAR
STARTCHAR p307F
ENCODING 12415
SWIDTH 440 0
DWIDTH 13 0
BBX 11 12 0 -2
BITMAP
0000
0600
1A00
0480
0480
1F80
28C0
5120
6200
0400
0800
0000
ENDCHAR
STARTCHAR p3080
ENCODING 12416
SWIDTH 440 0
DWIDTH 13 0
BBX 11 12 0 -2
BITMAP
0000
1000
1400
7800
10C0
3120
4940
4900
3080
2080
1F80
0000
ENDCHAR
STARTCHAR p3081
ENCODING 12417
SWIDTH 440 0
DWIDTH 13 0
BBX 11 12 0 -2
BITMAP
0000
0200
3200
1F80
3240
5220
5420
4820
5420
2040
0180
0000
ENDCHAR
STARTCHAR p3082
ENCODING 12418
SWIDTH 440 0
DWIDTH 13 0
BBX 11 12 0 -2
BITMAP
0000
0400
0400
1C00
0A00
1C00
2880
1840
0E40
0840
0880
0700
ENDCHAR
STARTCHAR p3083
ENCODING 12419
SWIDTH 440 0
DWIDTH 13 0
BBX 11 12 0 -2
BITMAP
0000
0000
0E00
1380
0C40
3840
0580
0400
0200
0200
0000
0000
ENDCHAR
STARTCHAR p3084
ENCODING 12420
SWIDTH 440 0
DWIDTH 13 0
BBX 11 12 0 -2
BITMAP
0000
0200
1E00
13C0
1C20
6820
09C0
0400
0400
0200
0200
0000
ENDCHAR
STARTCHAR p3085
ENCODING 12421
SWIDTH 440 0
DWIDTH 13 0
BBX 11 12 0 -2
BITMAP
0000
0000
1200
1780
2A40
2A40
2A40
3680
1300
0400
0800
0000
ENDCHAR
STARTCHAR p3086
ENCODING 12422
SWIDTH 440 0
DWIDTH 13 0
BBX 11 12 0 -2
BITMAP
0000
0600
2980
2B40
4D20
4920
5920
6920
25C0
0300
0C00
0000
ENDCHAR
STARTCHAR p3087
ENCODING 12423
SWIDTH 440 0
DWIDTH 13 0
BBX 11 12 0 -2
BITMAP
0000
0000
0400
0400
0780
0400
0400
1C00
2600
2500
1880
0000
ENDCHAR
STARTCHAR p3088
ENCODING 12424
SWIDTH 440 0
DWIDTH 13 0
BBX 11 12 0 -2
BITMAP
0000
0000
0400
0400
07C0
0400
0400
0400
3C00
4700
4480
3840
ENDCHAR
STARTCHAR p3089
ENCODING 12425
SWIDTH 440 0
DWIDTH 13 0
BBX 11 12 0 -2
BITMAP
0800
0400
0C00
1000
2000
2000
2F80
3040
2040
0080
0700
0000
ENDCHAR
STARTCHAR p308A
ENCODING 12426
SWIDTH 440 0
DWIDTH 13 0
BBX 11 12 0 -2
BITMAP
0000
1300
1480
1880
1080
1080
1080
0100
0100
0200
0400
0800
ENDCHAR
STARTCHAR p308B
ENCODING 12427
SWIDTH 440 0
DWIDTH 13 0
BBX 11 12 0 -2
BITMAP
0000
0300
1D00
0200
0400
0F80
1840
1040
2040
2F40
0980
0700
ENDCHAR
STARTCHAR p308C
ENCODING 12428
SWIDTH 440 0
DWIDTH 13 0
BBX 11 12 0 -2
BITMAP
0000
1000
1300
1500
7900
1100
1100
3100
5100
7120
10C0
0000
ENDCHAR
STARTCHAR p308D
ENCODING 12429
SWIDTH 440 0
DWIDTH 13 0
BBX 11 12 0 -2
BITMAP
0000
0300
1D00
0200
0400
0F80
1040
2040
0040
0040
0180
0600
ENDCHAR
STARTCHAR p308E
ENCODING 12430
SWIDTH 440 0
DWIDTH 13 0
BBX 11 12 0 -2
BITMAP
0000
0000
0800
0C00
3B80
0C40
0840
1840
2880
1B00
0000
0000
ENDCHAR
STARTCHAR p308F
ENCODING 12431
SWIDTH 440 0
DWIDTH 13 0
BBX 11 12 0 -2
BITMAP
0000
1000
1000
1800
37C0
1820
1020
3020
5020
7040
1180
0000
ENDCHAR
STARTCHAR p3090
ENCODING 12432
SWIDTH 440 0
DWIDTH 13 0
BBX 11 12 0 -2
BITMAP
0000
0C00
3400
0400
0780
1840
2820
4820
53A0
3440
0380
0000
ENDCHAR
STARTCHAR p3091
ENCODING 12433
SWIDTH 440 0
DWIDTH 13 0
BBX 11 12 0 -2
BITMAP
0000
0600
1A00
0700
0880
1C80
1500
0E00
11C0
2A20
44E0
0000
ENDCHAR
STARTCHAR p3092
ENCODING 12434
SWIDTH 440 0
DWIDTH 13 0
BBX 11 12 0 -2
BITMAP
0000
0400
1F00
0400
08C0
1D40
2240
2780
0A00
1200
1080
0F00
ENDCHAR
STARTCHAR p3093
ENCODING 12435
SWIDTH 440 0
DWIDTH 13 0
BBX 11 12 0 -2
BITMAP
0000
0400
0400
0800
0800
1000
1C00
2200
2220
4240
4180
0000
ENDCHAR
STARTCHAR p30A1
ENCODING 12449
SWIDTH 440 0
DWIDTH 13 0
BBX 11 12 0 -2
BITMAP
0000
0000
0380
3C80
0100
0600
0400
0400
0800
1000
0000
0000
ENDCHAR
STARTCHAR p30A2
ENCODING 12450
SWIDTH 440 0
DWIDTH 13 0
BBX 11 12 0 -2
BITMAP
0000
01C0
3E40
0080
0500
0600
0400
0400
0800
0800
1000
0000
ENDCHAR
STARTCHAR p30A3
ENCODING 12451
SWIDTH 440 0
DWIDTH 13 0
BBX 11 12 0 -2
BITMAP
0000
0000
0080
0100
0300
0500
1900
0100
0100
0100
0000
0000
ENDCHAR
STARTCHAR p30A4
ENCODING 12452
SWIDTH 440 0
DWIDTH 13 0
BBX 11 12 0 -2
BITMAP
0000
0080
0080
0100
0300
0500
0900
3100
0100
0100
0100
0100
ENDCHAR
STARTCHAR p30A5
ENCODING 12453
SWIDTH 440 0
DWIDTH 13 0
BBX 11 12 0 -2
BITMAP
0000
0000
0400
0780
1C80
1080
1100
0100
0200
0400
0800
0000
ENDCHAR
STARTCHAR p30A6
ENCODING 12454
SWIDTH 440 0
DWIDTH 13 0
BBX 11 12 0 -2
BITMAP
0000
0400
0400
3FC0
2040
2080
2080
0100
0100
0200
0400
0800
ENDCHAR
STARTCHAR p30A7
ENCODING 12455
SWIDTH 440 0
DWIDTH 13 0
BBX 11 12 0 -2
BITMAP
0000
0000
0000
0380
1E00
0200
0200
03E0
3C00
0000
0000
0000
ENDCHAR
STARTCHAR p30A8
ENCODING 12456
SWIDTH 440 0
DWIDTH 13 0
BBX 11 12 0 -2
BITMAP
0000
0000
0000
0380
1E00
0200
0200
0200
03E0
7C00
0000
0000
ENDCHAR
STARTCHAR p30A9
ENCODING 12457
SWIDTH 440 0
DWIDTH 13 0
BBX 11 12 0 -2
BITMAP
0000
0000
0200
0200
03C0
3E00
0600
0A00
1200
2600
0200
0000
ENDCHAR
STARTCHAR p30AA
ENCODING 12458
SWIDTH 440 0
DWIDTH 13 0
BBX 11 12 0 -2
BITMAP
0000
0100
0100
01E0
3F00
0300
0500
0900
1100
2100
4700
0200
ENDCHAR
STARTCHAR p30AB
ENCODING 12459
SWIDTH 440 0
DWIDTH 13 0
BBX 11 12 0 -2
BITMAP
0000
0000
0200
0200
03C0
1E40
0440
0440
0840
1240
2180
0000
ENDCHAR
STARTCHAR p30AC
ENCODING 12460
SWIDTH 440 0
DWIDTH 13 0
BBX 11 12 0 -2
BITMAP
0040
0120
0480
0400
0780
3C80
0880
0880
1080
2480
4300
0000
ENDCHAR
STARTCHAR p30AD
ENCODING 12461
SWIDTH 440 0
DWIDTH 13 0
BBX 11 12 0 -2
BITMAP
0000
0800
0980
0E00
3400
04C0
0700
3A00
0200
0100
0100
0100
ENDCHAR
STARTCHAR p30AE
ENCODING 12462
SWIDTH 440 0
DWIDTH 13 0
BBX 11 12 0 -2
BITMAP
0140
10A0
1300
0C00
7800
0980
0600
1C00
6200
0200
0100
0100
ENDCHAR
STARTCHAR p30AF
ENCODING 12463
SWIDTH 440 0
DWIDTH 13 0
BBX 11 12 0 -2
BITMAP
0000
0400
0400
0780
0880
1080
2100
0100
0200
0400
0800
1000
ENDCHAR
STARTCHAR p30B0
ENCODING 12464
SWIDTH 440 0
DWIDTH 13 0
BBX 11 12 0 -2
BITMAP
0140
08A0
0800
0F00
1100
2100
4200
0200
0400
0800
1000
2000
ENDCHAR
STARTCHAR p30B1
ENCODING 12465
SWIDTH 440 0
DWIDTH 13 0
BBX 11 12 0 -2
BITMAP
0000
0800
0800
08C0
1F00
1100
2100
0200
0200
0400
0800
3000
ENDCHAR
STARTCHAR p30B2
ENCODING 12466
SWIDTH 440 0
DWIDTH 13 0
BBX 11 12 0 -2
BITMAP
0140
10A0
1000
1380
3E00
2200
4200
0400
0400
0800
1000
2000
ENDCHAR
STARTCHAR p30B3
ENCODING 12467
SWIDTH 440 0
DWIDTH 13 0
BBX 11 12 0 -2
BITMAP
0000
0000
0000
01C0
1E40
0080
0080
0100
0100
3F80
0000
0000
ENDCHAR
STARTCHAR p30B4
ENCODING 12468
SWIDTH 440 0
DWIDTH 13 0
BBX 11 12 0 -2
BITMAP
0140
00A0
0000
0380
3C80
0100
0100
0200
0200
7F00
0000
0000
ENDCHAR
STARTCHAR p30B5
ENCODING 12469
SWIDTH 440 0
DWIDTH 13 0
BBX 11 12 0 -2
BITMAP
0000
0100
0900
0900
0FE0
7900
0900
0900
0200
0200
0400
0800
ENDCHAR
STARTCHAR p30B6
ENCODING 12470
SWIDTH 440 0
DWIDTH 13 0
BBX 11 12 0 -2
BITMAP
0040
0520
2480
2400
3F80
E400
2400
2400
0800
0800
1000
2000
ENDCHAR
STARTCHAR p30B7
ENCODING 12471
SWIDTH 440 0
DWIDTH 13 0
BBX 11 12 0 -2
BITMAP
0000
0000
0C00
0200
3000
0840
0080
0100
0200
2400
1800
0000
ENDCHAR
STARTCHAR p30B8
ENCODING 12472
SWIDTH 440 0
DWIDTH 13 0
BBX 11 12 0 -2
BITMAP
0040
0120
1880
0400
6000
1040
0080
0100
0200
2400
1800
0000
ENDCHAR
STARTCHAR p30B9
ENCODING 12473
SWIDTH 440 0
DWIDTH 13 0
BBX 11 12 0 -2
BITMAP
0000
0000
01C0
1E40
0080
0100
0200
0580
0840
3020
0000
0000
ENDCHAR
STARTCHAR p30BA
ENCODING 12474
SWIDTH 440 0
DWIDTH 13 0
BBX 11 12 0 -2
BITMAP
0040
0120
0680
7A00
0200
0400
0800
1400
2200
C100
0000
0000
ENDCHAR
STARTCHAR p30BB
ENCODING 12475
SWIDTH 440 0
DWIDTH 13 0
BBX 11 12 0 -2
BITMAP
0000
0000
0800
0800
0B80
0C80
7900
0800
0800
0840
0780
0000
ENDCHAR
STARTCHAR p30BC
ENCODING 12476
SWIDTH 440 0
DWIDTH 13 0
BBX 11 12 0 -2
BITMAP
0000
0040
1120
1080
1700
1900
F200
1000
1000
1080
0F00
0000
ENDCHAR
STARTCHAR p30BD
ENCODING 12477
SWIDTH 440 0
DWIDTH 13 0
BBX 11 12 0 -2
BITMAP
0000
0000
0000
0040
1040
0840
0480
0080
0100
0200
0400
1800
ENDCHAR
STARTCHAR p30BE
ENCODING 12478
SWIDTH 440 0
DWIDTH 13 0
BBX 11 12 0 -2
BITMAP
0040
0120
0080
0000
2080
1080
0900
0100
0200
0400
0800
3000
ENDCHAR
STARTCHAR p30BF
ENCODING 12479
SWIDTH 440 0
DWIDTH 13 0
BBX 11 12 0 -2
BITMAP
0000
0200
0200
07C0
0440
0840
1280
0100
0280
0400
0800
3000
ENDCHAR
STARTCHAR p30C0
ENCODING 12480
SWIDTH 440 0
DWIDTH 13 0
BBX 11 12 0 -2
BITMAP
0040
0920
0880
1F00
1100
2100
4A00
0400
0A00
1000
2000
C000
ENDCHAR
STARTCHAR p30C1
ENCODING 12481
SWIDTH 440 0
DWIDTH 13 0
BBX 11 12 0 -2
BITMAP
0000
0380
0600
1A00
0200
03E0
7E00
0200
0400
0400
0800
1000
ENDCHAR
STARTCHAR p30C2
ENCODING 12482
SWIDTH 440 0
DWIDTH 13 0
BBX 11 12 0 -2
BITMAP
0140
06A0
1C00
0400
04C0
0700
7C00
0400
0800
0800
1000
2000
ENDCHAR
STARTCHAR p30C3
ENCODING 12483
SWIDTH 440 0
DWIDTH 13 0
BBX 11 12 0 -2
BITMAP
0000
0000
0000
0440
2240
1080
0100
0200
0400
1800
0000
0000
ENDCHAR
STARTCHAR p30C4
ENCODING 12484
SWIDTH 440 0
DWIDTH 13 0
BBX 11 12 0 -2
BITMAP
0000
0000
0800
0440
2240
1080
0100
0200
0400
0800
3000
0000
ENDCHAR
STARTCHAR p30C5
ENCODING 12485
SWIDTH 440 0
DWIDTH 13 0
BBX 11 12 0 -2
BITMAP
0140
00A0
1000
0880
4480
2100
0100
0200
0400
0800
3000
0000
ENDCHAR
STARTCHAR p30C6
ENCODING 12486
SWIDTH 440 0
DWIDTH 13 0
BBX 11 12 0 -2
BITMAP
0000
0180
1E00
0000
01E0
7E00
0200
0200
0400
0800
3000
0000
ENDCHAR
STARTCHAR p30C7
ENCODING 12487
SWIDTH 440 0
DWIDTH 13 0
BBX 11 12 0 -2
BITMAP
0040
0E20
7080
0040
0F00
F800
0800
1000
1000
2000
C000
0000
ENDCHAR
STARTCHAR p30C8
ENCODING 12488
SWIDTH 440 0
DWIDTH 13 0
BBX 11 12 0 -2
BITMAP
0000
0800
0800
0800
0E00
0900
0880
0800
0800
0800
0800
0800
ENDCHAR
STARTCHAR p30C9
ENCODING 12489
SWIDTH 440 0
DWIDTH 13 0
BBX 11 12 0 -2
BITMAP
0040
0920
0880
0800
0800
0E00
0900
0880
0800
0800
0800
0800
ENDCHAR
STARTCHAR p30CA
ENCODING 12490
SWIDTH 440 0
DWIDTH 13 0
BBX 11 12 0 -2
BITMAP
0000
0400
0400
0400
07C0
7C00
0400
0400
0800
0800
1000
2000
ENDCHAR
STARTCHAR p30CB
ENCODING 12491
SWIDTH 440 0
DWIDTH 13 0
BBX 11 12 0 -2
BITMAP
0000
0000
0000
0180
1E00
0000
0000
01E0
7E00
0000
0000
0000
ENDCHAR
STARTCHAR p30CC
ENCODING 12492
SWIDTH 440 0
DWIDTH 13 0
BBX 11 12 0 -2
BITMAP
0000
0000
01C0
1E40
0080
0080
0D00
0300
0480
0840
3000
0000
ENDCHAR
STARTCHAR p30CD
ENCODING 12493
SWIDTH 440 0
DWIDTH 13 0
BBX 11 12 0 -2
BITMAP
0200
0100
0000
0380
1C80
0100
0280
0640
0A00
3200
0200
0200
ENDCHAR
STARTCHAR p30CE
ENCODING 12494
SWIDTH 440 0
DWIDTH 13 0
BBX 11 12 0 -2
BITMAP
0000
0000
0080
0080
0080
0100
0100
0200
0400
0800
3000
0000
ENDCHAR
STARTCHAR p30CF
ENCODING 12495
SWIDTH 440 0
DWIDTH 13 0
BBX 11 12 0 -2
BITMAP
0000
0000
0000
0000
0980
0840
1020
2020
4000
0000
0000
0000
ENDCHAR
STARTCHAR p30D0
ENCODING 12496
SWIDTH 440 0
DWIDTH 13 0
BBX 11 12 0 -2
BITMAP
0000
0040
0120
0080
1200
1100
20C0
4040
0000
0000
0000
0000
ENDCHAR
STARTCHAR p30D1
ENCODING 12497
SWIDTH 440 0
DWIDTH 13 0
BBX 11 12 0 -2
BITMAP
0000
00E0
00A0
00E0
1200
1180
20C0
4040
8000
0000
0000
0000
ENDCHAR
STARTCHAR p30D2
ENCODING 12498
SWIDTH 440 0
DWIDTH 13 0
BBX 11 12 0 -2
BITMAP
0000
0000
1000
1000
1300
1C00
1000
1000
1000
0F80
0000
0000
ENDCHAR
STARTCHAR p30D3
ENCODING 12499
SWIDTH 440 0
DWIDTH 13 0
BBX 11 12 0 -2
BITMAP
0040
0020
1080
1040
1300
1C00
1000
1000
1000
0F80
0000
0000
ENDCHAR
STARTCHAR p30D4
ENCODING 12500
SWIDTH 440 0
DWIDTH 13 0
BBX 11 12 0 -2
BITMAP
0000
00E0
10A0
10E0
1300
1C00
1000
1000
1000
0F80
0000
0000
ENDCHAR
STARTCHAR p30D5
ENCODING 12501
SWIDTH 440 0
DWIDTH 13 0
BBX 11 12 0 -2
BITMAP
0000
0000
01C0
3E40
0040
0080
0080
0100
0200
0400
1800
0000
ENDCHAR
STARTCHAR p30D6
ENCODING 12502
SWIDTH 440 0
DWIDTH 13 0
BBX 11 12 0 -2
BITMAP
0140
00A0
0700
7900
0100
0200
0200
0400
0800
1000
6000
0000
ENDCHAR
STARTCHAR p30D7
ENCODING 12503
SWIDTH 440 0
DWIDTH 13 0
BBX 11 12 0 -2
BITMAP
00E0
00A0
07E0
7900
0100
0200
0200
0400
0800
1000
6000
0000
ENDCHAR
STARTCHAR p30D8
ENCODING 12504
SWIDTH 440 0
DWIDTH 13 0
BBX 11 12 0 -2
BITMAP
0000
0000
0000
0000
1800
2400
C200
0180
0060
0000
0000
0000
ENDCHAR
STARTCHAR p30D9
ENCODING 12505
SWIDTH 440 0
DWIDTH 13 0
BBX 11 12 0 -2
BITMAP
0000
0040
0120
0080
1800
2400
C300
00C0
0020
0000
0000
0000
ENDCHAR
STARTCHAR p30DA
ENCODING 12506
SWIDTH 440 0
DWIDTH 13 0
BBX 11 12 0 -2
BITMAP
0000
00E0
00A0
00E0
1800
2400
C200
0180
0060
0000
0000
0000
ENDCHAR
STARTCHAR p30DB
ENCODING 12507
SWIDTH 440 0
DWIDTH 13 0
BBX 11 12 0 -2
BITMAP
0000
0000
0200
0200
03C0
3E00
0200
1280
1240
2220
4600
0200
ENDCHAR
STARTCHAR p30DC
ENCODING 12508
SWIDTH 440 0
DWIDTH 13 0
BBX 11 12 0 -2
BITMAP
0040
0120
0480
0400
0780
7C00
0400
2480
2440
4440
0C00
0400
ENDCHAR
STARTCHAR p30DD
ENCODING 12509
SWIDTH 440 0
DWIDTH 13 0
BBX 11 12 0 -2
BITMAP
00E0
00A0
04E0
0400
07C0
7C00
0400
2480
2440
4440
0C00
0400
ENDCHAR
STARTCHAR p30DE
ENCODING 12510
SWIDTH 440 0
DWIDTH 13 0
BBX 11 12 0 -2
BITMAP
0000
0000
0000
03C0
3C40
0080
0500
0200
0100
0100
0000
0000
ENDCHAR
STARTCHAR p30DF
ENCODING 12511
SWIDTH 440 0
DWIDTH 13 0
BBX 11 12 0 -2
BITMAP
0000
0C00
0300
0100
0C00
0300
0100
0000
0C00
0300
0100
0000
ENDCHAR
STARTCHAR p30E0
ENCODING 12512
SWIDTH 440 0
DWIDTH 13 0
BBX 11 12 0 -2
BITMAP
0000
0000
0400
0400
0400
0800
0880
1040
1FC0
3040
0000
0000
ENDCHAR
STARTCHAR p30E1
ENCODING 12513
SWIDTH 440 0
DWIDTH 13 0
BBX 11 12 0 -2
BITMAP
0000
0000
0040
0040
0480
0280
0100
0280
0440
0800
3000
0000
ENDCHAR
STARTCHAR p30E2
ENCODING 12514
SWIDTH 440 0
DWIDTH 13 0
BBX 11 12 0 -2
BITMAP
0000
0000
0180
1E00
0400
0400
07E0
7C00
0400
0400
03C0
0000
ENDCHAR
STARTCHAR p30E3
ENCODING 12515
SWIDTH 440 0
DWIDTH 13 0
BBX 11 12 0 -2
BITMAP
0000
0000
0800
09C0
0640
3C80
0200
0200
0100
0100
0000
0000
ENDCHAR
STARTCHAR p30E4
ENCODING 12516
SWIDTH 440 0
DWIDTH 13 0
BBX 11 12 0 -2
BITMAP
0000
1000
08C0
0B20
0C40
7480
0200
0200
0100
0100
0080
0000
ENDCHAR
STARTCHAR p30E5
ENCODING 12517
SWIDTH 440 0
DWIDTH 13 0
BBX 11 12 0 -2
BITMAP
0000
0000
0000
1380
0C80
0100
0100
03C0
3C00
0000
0000
0000
ENDCHAR
STARTCHAR p30E6
ENCODING 12518
SWIDTH 440 0
DWIDTH 13 0
BBX 11 12 0 -2
BITMAP
0000
0000
0000
2380
1C80
0100
0100
0100
07E0
7800
0000
0000
ENDCHAR
STARTCHAR p30E7
ENCODING 12519
SWIDTH 440 0
DWIDTH 13 0
BBX 11 12 0 -2
BITMAP
0000
0000
0000
0380
1C80
0080
1F80
0100
0100
1F00
0000
0000
ENDCHAR
STARTCHAR p30E8
ENCODING 12520
SWIDTH 440 0
DWIDTH 13 0
BBX 11 12 0 -2
BITMAP
0000
0000
0000
03C0
3C40
0040
1F80
0080
0080
1F80
0000
0000
ENDCHAR
STARTCHAR p30E9
ENCODING 12521
SWIDTH 440 0
DWIDTH 13 0
BBX 11 12 0 -2
BITMAP
0000
0380
1C00
0000
03C0
3C40
0080
0080
0100
0200
0400
1800
ENDCHAR
STARTCHAR p30EA
ENCODING 12522
SWIDTH 440 0
DWIDTH 13 0
BBX 11 12 0 -2
BITMAP
0000
0100
1100
1100
1100
1100
1100
1100
0200
0200
0400
0800
ENDCHAR
STARTCHAR p30EB
ENCODING 12523
SWIDTH 440 0
DWIDTH 13 0
BBX 11 12 0 -2
BITMAP
0000
0000
0200
1200
1200
1200
1220
2240
2280
4300
8000
0000
ENDCHAR
STARTCHAR p30EC
ENCODING 12524
SWIDTH 440 0
DWIDTH 13 0
BBX 11 12 0 -2
BITMAP
0000
0000
1000
1000
1000
1000
1040
1080
1100
1600
1800
0000
ENDCHAR
STARTCHAR p30ED
ENCODING 12525
SWIDTH 440 0
DWIDTH 13 0
BBX 11 12 0 -2
BITMAP
0000
0000
0000
23C0
1C40
1040
1080
1080
1F80
1000
0000
0000
ENDCHAR
STARTCHAR p30EE
ENCODING 12526
SWIDTH 440 0
DWIDTH 13 0
BBX 11 12 0 -2
BITMAP
0000
0000
0000
1380
1C80
1080
1100
0100
0200
0400
1800
0000
ENDCHAR
STARTCHAR p30EF
ENCODING 12527
SWIDTH 440 0
DWIDTH 13 0
BBX 11 12 0 -2
BITMAP
0000
0000
27C0
3840
2040
2080
2080
0100
0200
0400
1800
0000
ENDCHAR
STARTCHAR p30F0
ENCODING 12528
SWIDTH 440 0
DWIDTH 13 0
BBX 11 12 0 -2
BITMAP
0200
0200
03C0
3E00
1200
1200
13E0
7E00
0200
0200
0200
0200
ENDCHAR
STARTCHAR p30F1
ENCODING 12529
SWIDTH 440 0
DWIDTH 13 0
BBX 11 12 0 -2
BITMAP
0000
0000
0780
38C0
0100
0600
0400
0400
07E0
7C00
0000
0000
ENDCHAR
STARTCHAR p30F2
ENCODING 12530
SWIDTH 440 0
DWIDTH 13 0
BBX 11 12 0 -2
BITMAP
0000
0380
3C80
0080
0780
3880
0080
0100
0100
0200
0400
1800
ENDCHAR
STARTCHAR p30F3
ENCODING 12531
SWIDTH 440 0
DWIDTH 13 0
BBX 11 12 0 -2
BITMAP
0000
0000
1000
0800
0440
0080
0100
0200
4C00
7000
0000
0000
ENDCHAR
STARTCHAR p30F4
ENCODING 12532
SWIDTH 440 0
DWIDTH 13 0
BBX 11 12 0 -2
BITMAP
0140
04A0
0400
3F80
2080
2080
2080
0100
0100
0200
0400
0800
ENDCHAR
STARTCHAR p30F5
ENCODING 12533
SWIDTH 440 0
DWIDTH 13 0
BBX 11 12 0 -2
BITMAP
0000
0000
0400
0400
0780
1C80
0480
0880
1280
2100
0000
0000
ENDCHAR
STARTCHAR p30F6
ENCODING 12534
SWIDTH 440 0
DWIDTH 13 0
BBX 11 12 0 -2
BITMAP
0000
0000
0800
0800
0F80
1100
2100
0200
0400
0800
1000
0000
ENDCHAR
STARTCHAR p3105
ENCODING 12549
SWIDTH 440 0
DWIDTH 13 0
BBX 11 12 0 -2
BITMAP
0800
0800
1000
27C0
3840
0040
0040
0080
0080
0700
0200
0000
ENDCHAR
STARTCHAR p3106
ENCODING 12550
SWIDTH 440 0
DWIDTH 13 0
BBX 11 12 0 -2
BITMAP
0400
0400
09C0
1E40
0040
0080
0500
0200
0500
0880
3000
0000
ENDCHAR
STARTCHAR p3107
ENCODING 12551
SWIDTH 440 0
DWIDTH 13 0
BBX 11 12 0 -2
BITMAP
0000
0000
01C0
3E40
2040
2040
2040
2040
2040
0000
0000
0000
ENDCHAR
STARTCHAR p3108
ENCODING 12552
SWIDTH 440 0
DWIDTH 13 0
BBX 11 12 0 -2
BITMAP
0000
01C0
7E00
2000
2000
2000
2000
2000
2000
1FC0
0000
0000
ENDCHAR
STARTCHAR p3109
ENCODING 12553
SWIDTH 440 0
DWIDTH 13 0
BBX 11 12 0 -2
BITMAP
0800
0800
1000
23E0
3E20
0420
0420
0820
1020
2240
4180
0000
ENDCHAR
STARTCHAR p310A
ENCODING 12554
SWIDTH 440 0
DWIDTH 13 0
BBX 11 12 0 -2
BITMAP
0000
0400
0400
07E0
7C00
0400
0800
0900
1080
2740
3840
0000
ENDCHAR
STARTCHAR p310B
ENCODING 12555
SWIDTH 440 0
DWIDTH 13 0
BBX 11 12 0 -2
BITMAP
0000
0F00
3100
0200
05C0
0640
0040
0040
0080
0480
0300
0000
ENDCHAR
STARTCHAR p310C
ENCODING 12556
SWIDTH 440 0
DWIDTH 13 0
BBX 11 12 0 -2
BITMAP
0200
1200
1200
23C0
3E40
0440
0440
0840
0840
1280
2100
0000
ENDCHAR
STARTCHAR p310D
ENCODING 12557
SWIDTH 440 0
DWIDTH 13 0
BBX 11 12 0 -2
BITMAP
0000
0880
0880
1100
1100
2200
2200
1100
1100
0880
0880
0000
ENDCHAR
STARTCHAR p310E
ENCODING 12558
SWIDTH 440 0
DWIDTH 13 0
BBX 11 12 0 -2
BITMAP
0000
03E0
7C00
0400
0800
0FC0
0040
0040
0080
0480
0300
0000
ENDCHAR
STARTCHAR p310F
ENCODING 12559
SWIDTH 440 0
DWIDTH 13 0
BBX 11 12 0 -2
BITMAP
0000
03E0
3C00
1000
1000
1000
1000
1000
2000
2000
4000
0000
ENDCHAR
STARTCHAR p3110
ENCODING 12560
SWIDTH 440 0
DWIDTH 13 0
BBX 11 12 0 -2
BITMAP
0000
0100
1100
1100
1100
1100
2700
3900
0100
0100
0100
0000
ENDCHAR
STARTCHAR p3111
ENCODING 12561
SWIDTH 440 0
DWIDTH 13 0
BBX 11 12 0 -2
BITMAP
0000
0200
0200
0400
0800
1000
1000
0800
0400
0200
0100
0000
ENDCHAR
STARTCHAR p3112
ENCODING 12562
SWIDTH 440 0
DWIDTH 13 0
BBX 11 12 0 -2
BITMAP
0000
03C0
7C00
0400
0400
0400
0400
0400
0400
0400
0400
0000
ENDCHAR
STARTCHAR p3113
ENCODING 12563
SWIDTH 440 0
DWIDTH 13 0
BBX 11 12 0 -2
BITMAP
0400
0400
0400
2440
2440
2440
27C0
3C40
2400
0400
7FE0
0000
ENDCHAR
STARTCHAR p3114
ENCODING 12564
SWIDTH 440 0
DWIDTH 13 0
BBX 11 12 0 -2
BITMAP
0100
0200
0480
0900
3200
0600
0A00
3200
0200
0200
0200
0000
ENDCHAR
STARTCHAR p3115
ENCODING 12565
SWIDTH 440 0
DWIDTH 13 0
BBX 11 12 0 -2
BITMAP
0000
1FC0
0040
0080
1F80
1000
1000
1000
1000
2000
4000
0000
ENDCHAR
STARTCHAR p3116
ENCODING 12566
SWIDTH 440 0
DWIDTH 13 0
BBX 11 12 0 -2
BITMAP
0000
0380
3C80
1080
1080
1480
1280
1080
1080
1F80
1080
0000
ENDCHAR
STARTCHAR p3117
ENCODING 12567
SWIDTH 440 0
DWIDTH 13 0
BBX 11 12 0 -2
BITMAP
0000
07C0
3840
0840
0840
0880
0A80
0900
0800
0800
0800
0800
ENDCHAR
STARTCHAR p3118
ENCODING 12568
SWIDTH 440 0
DWIDTH 13 0
BBX 11 12 0 -2
BITMAP
0400
0400
07E0
FC00
0800
1380
1C80
0080
0080
0500
0200
0000
ENDCHAR
STARTCHAR p3119
ENCODING 12569
SWIDTH 440 0
DWIDTH 13 0
BBX 11 12 0 -2
BITMAP
0000
0200
0200
0400
0400
0800
0800
1080
1040
23E0
7C20
0000
ENDCHAR
STARTCHAR p311A
ENCODING 12570
SWIDTH 440 0
DWIDTH 13 0
BBX 11 12 0 -2
BITMAP
0000
20C0
1080
0900
0600
0400
0400
0400
0400
0400
0400
0000
ENDCHAR
STARTCHAR p311B
ENCODING 12571
SWIDTH 440 0
DWIDTH 13 0
BBX 11 12 0 -2
BITMAP
0000
01E0
7E00
0200
0200
1C00
2000
2000
2000
1040
0F80
0000
ENDCHAR
STARTCHAR p311C
ENCODING 12572
SWIDTH 440 0
DWIDTH 13 0
BBX 11 12 0 -2
BITMAP
0400
0200
03E0
7E00
0200
0E00
1000
2000
2000
2040
1F80
0000
ENDCHAR
STARTCHAR p311D
ENCODING 12573
SWIDTH 440 0
DWIDTH 13 0
BBX 11 12 0 -2
BITMAP
0100
1100
1100
1100
17E0
F900
1100
1100
1200
0800
07E0
0000
ENDCHAR
STARTCHAR p311E
ENCODING 12574
SWIDTH 440 0
DWIDTH 13 0
BBX 11 12 0 -2
BITMAP
0000
7FE0
0200
2200
23C0
3E40
0440
0440
0840
1080
6100
0000
ENDCHAR
STARTCHAR p311F
ENCODING 12575
SWIDTH 440 0
DWIDTH 13 0
BBX 11 12 0 -2
BITMAP
0000
0E00
7200
0200
0200
0200
0200
0100
0100
0080
0060
0000
ENDCHAR
STARTCHAR p3120
ENCODING 12576
SWIDTH 440 0
DWIDTH 13 0
BBX 11 12 0 -2
BITMAP
0400
0400
0800
0880
1080
2100
3E00
0400
0880
11C0
3E40
0000
ENDCHAR
STARTCHAR p3121
ENCODING 12577
SWIDTH 440 0
DWIDTH 13 0
BBX 11 12 0 -2
BITMAP
0000
0380
3C80
0080
0900
0500
0200
0500
0880
1040
6000
0000
ENDCHAR
STARTCHAR p3122
ENCODING 12578
SWIDTH 440 0
DWIDTH 13 0
BBX 11 12 0 -2
BITMAP
0000
3F80
0080
1100
1100
23C0
3C40
0040
0080
0080
0100
0000
ENDCHAR
STARTCHAR p3123
ENCODING 12579
SWIDTH 440 0
DWIDTH 13 0
BBX 11 12 0 -2
BITMAP
0000
1000
1000
1000
1000
21C0
3E40
0040
0080
0080
0100
0000
ENDCHAR
STARTCHAR p3124
ENCODING 12580
SWIDTH 440 0
DWIDTH 13 0
BBX 11 12 0 -2
BITMAP
0400
0400
0400
07C0
7C00
0600
0A00
0A00
1200
2200
41E0
0000
ENDCHAR
STARTCHAR p3125
ENCODING 12581
SWIDTH 440 0
DWIDTH 13 0
BBX 11 12 0 -2
BITMAP
0000
0400
0400
0400
0800
0800
1000
1000
2000
47C0
7800
0000
ENDCHAR
STARTCHAR p3126
ENCODING 12582
SWIDTH 440 0
DWIDTH 13 0
BBX 11 12 0 -2
BITMAP
0000
1200
1200
1200
1200
1200
1200
1200
2220
2220
41E0
8000
ENDCHAR
STARTCHAR p3127
ENCODING 12583
SWIDTH 440 0
DWIDTH 13 0
BBX 11 12 0 -2
BITMAP
0000
0400
0400
0400
0400
0400
0400
0400
0400
0400
0400
0000
ENDCHAR
STARTCHAR p3128
ENCODING 12584
SWIDTH 440 0
DWIDTH 13 0
BBX 11 12 0 -2
BITMAP
0000
0080
2080
1080
0900
0500
0200
0500
0880
1040
6000
0000
ENDCHAR
STARTCHAR p3129
ENCODING 12585
SWIDTH 440 0
DWIDTH 13 0
BBX 11 12 0 -2
BITMAP
0000
0000
0040
2040
2040
2040
2040
4040
47C0
7840
0000
0000
ENDCHAR
STARTCHAR p3220
ENCODING 12832
SWIDTH 440 0
DWIDTH 13 0
BBX 11 12 0 -2
BITMAP
2080
4040
8020
8020
8020
BFA0
8020
8020
8020
8020
4040
2080
ENDCHAR
STARTCHAR p3221
ENCODING 12833
SWIDTH 440 0
DWIDTH 13 0
BBX 11 12 0 -2
BITMAP
2080
4040
8020
9F20
8020
8020
8020
8020
BFA0
8020
4040
2080
ENDCHAR
STARTCHAR p3222
ENCODING 12834
SWIDTH 440 0
DWIDTH 13 0
BBX 11 12 0 -2
BITMAP
2080
4040
9F20
8020
8020
9F20
8020
8020
BFA0
8020
4040
2080
ENDCHAR
STARTCHAR p3223
ENCODING 12835
SWIDTH 440 0
DWIDTH 13 0
BBX 11 12 0 -2
BITMAP
2080
4040
BFA0
AAA0
AAA0
AAA0
B1A0
A0A0
BFA0
A0A0
4040
2080
ENDCHAR
STARTCHAR p3224
ENCODING 12836
SWIDTH 440 0
DWIDTH 13 0
BBX 11 12 0 -2
BITMAP
2080
4040
9FA0
8420
8420
9F20
8920
8920
8920
BFA0
4040
2080
ENDCHAR
STARTCHAR p3225
ENCODING 12837
SWIDTH 440 0
DWIDTH 13 0
BBX 11 12 0 -2
BITMAP
2080
4840
8420
8020
BFA0
8020
8A20
9120
A0A0
8020
4040
2080
ENDCHAR
STARTCHAR p3226
ENCODING 12838
SWIDTH 440 0
DWIDTH 13 0
BBX 11 12 0 -2
BITMAP
2080
4040
8820
8820
8FA0
B820
8820
8820
88A0
87A0
4040
2080
ENDCHAR
STARTCHAR p3227
ENCODING 12839
SWIDTH 440 0
DWIDTH 13 0
BBX 11 12 0 -2
BITMAP
2080
4040
8220
8A20
8A20
8A20
8A20
9120
9120
A0A0
4040
2080
ENDCHAR
STARTCHAR p3228
ENCODING 12840
SWIDTH 440 0
DWIDTH 13 0
BBX 11 12 0 -2
BITMAP
2080
4040
8820
8820
BE20
8A20
8A20
9220
92A0
A3A0
4040
2080
ENDCHAR
STARTCHAR p3229
ENCODING 12841
SWIDTH 440 0
DWIDTH 13 0
BBX 11 12 0 -2
BITMAP
2080
4040
8420
8420
8420
BFA0
8420
8420
8420
8420
4040
2080
ENDCHAR
STARTCHAR p4E00
ENCODING 19968
SWIDTH 440 0
DWIDTH 13 0
BBX 11 12 0 -2
BITMAP
0000
0000
0000
0000
0000
FFE0
0000
0000
0000
0000
0000
0000
ENDCHAR
STARTCHAR p4E01
ENCODING 19969
SWIDTH 440 0
DWIDTH 13 0
BBX 11 12 0 -2
BITMAP
FFE0
0200
0200
0200
0200
0200
0200
0200
0200
0200
0200
0E00
ENDCHAR
STARTCHAR p4E03
ENCODING 19971
SWIDTH 440 0
DWIDTH 13 0
BBX 11 12 0 -2
BITMAP
0800
0800
0820
08C0
0F00
F800
0800
0800
0800
0820
0820
07E0
ENDCHAR
STARTCHAR p4E07
ENCODING 19975
SWIDTH 440 0
DWIDTH 13 0
BBX 11 12 0 -2
BITMAP
0000
FFE0
0800
0800
0FC0
0840
0840
0840
0840
1040
2240
C180
ENDCHAR
STARTCHAR p4E08
ENCODING 19976
SWIDTH 440 0
DWIDTH 13 0
BBX 11 12 0 -2
BITMAP
0200
0200
0200
FFE0
0200
2200
1200
0A00
0400
0A00
3180
C060
ENDCHAR
STARTCHAR p4E09
ENCODING 19977
SWIDTH 440 0
DWIDTH 13 0
BBX 11 12 0 -2
BITMAP
0000
7FC0
0000
0000
0000
3F80
0000
0000
0000
0000
FFE0
0000
ENDCHAR
STARTCHAR p4E0A
ENCODING 19978
SWIDTH 440 0
DWIDTH 13 0
BBX 11 12 0 -2
BITMAP
0400
0400
0400
0400
07C0
0400
0400
0400
0400
0400
0400
FFE0
ENDCHAR
STARTCHAR p4E0B
ENCODING 19979
SWIDTH 440 0
DWIDTH 13 0
BBX 11 12 0 -2
BITMAP
0000
FFE0
0400
0400
0600
0500
0480
0440
0400
0400
0400
0400
ENDCHAR
STARTCHAR p4E0C
ENCODING 19980
SWIDTH 440 0
DWIDTH 13 0
BBX 11 12 0 -2
BITMAP
0000
FFE0
1100
1100
1100
1100
1100
1100
2100
2100
4100
8100
ENDCHAR
STARTCHAR p4E0D
ENCODING 19981
SWIDTH 440 0
DWIDTH 13 0
BBX 11 12 0 -2
BITMAP
0000
FFE0
0200
0400
0C00
1500
2480
4440
8420
0400
0400
0400
ENDCHAR
STARTCHAR p4E0E
ENCODING 19982
SWIDTH 440 0
DWIDTH 13 0
BBX 11 12 0 -2
BITMAP
2000
2000
3FE0
2000
2000
3FC0
0040
0040
FF40
0040
0040
0180
ENDCHAR
STARTCHAR p4E10
ENCODING 19984
SWIDTH 440 0
DWIDTH 13 0
BBX 11 12 0 -2
BITMAP
FFE0
0400
0400
47C0
4400
4400
7FE0
0020
0020
0020
0020
01C0
ENDCHAR
STARTCHAR p4E11
ENCODING 19985
SWIDTH 440 0
DWIDTH 13 0
BBX 11 12 0 -2
BITMAP
7F80
0880
0880
0880
0880
7F80
1080
1080
1080
1080
1080
FFE0
ENDCHAR
STARTCHAR p4E13
ENCODING 19987
SWIDTH 440 0
DWIDTH 13 0
BBX 11 12 0 -2
BITMAP
0400
3FC0
0400
0400
FFE0
0800
1000
1FC0
0080
1900
0600
0180
ENDCHAR
STARTCHAR p4E14
ENCODING 19988
SWIDTH 440 0
DWIDTH 13 0
BBX 11 12 0 -2
BITMAP
3F80
2080
2080
2080
3F80
2080
2080
3F80
2080
2080
2080
FFE0
ENDCHAR
STARTCHAR p4E15
ENCODING 19989
SWIDTH 440 0
DWIDTH 13 0
BBX 11 12 0 -2
BITMAP
0000
FFE0
0400
0C00
1500
2480
4440
8420
0400
0400
0000
FFE0
ENDCHAR
STARTCHAR p4E16
ENCODING 19990
SWIDTH 440 0
DWIDTH 13 0
BBX 11 12 0 -2
BITMAP
2480
2480
2480
FFE0
2480
2480
2480
2480
2780
2000
2000
3FE0
ENDCHAR
STARTCHAR p4E18
ENCODING 19992
SWIDTH 440 0
DWIDTH 13 0
BBX 11 12 0 -2
BITMAP
0380
3C00
2000
2000
3FC0
2200
2200
2200
2200
2200
FFE0
0000
ENDCHAR
STARTCHAR p4E19
ENCODING 19993
SWIDTH 440 0
DWIDTH 13 0
BBX 11 12 0 -2
BITMAP
FFE0
0400
0400
7FC0
4440
4440
4A40
4A40
5140
60C0
4040
41C0
ENDCHAR
STARTCHAR p4E1A
ENCODING 19994
SWIDTH 440 0
DWIDTH 13 0
BBX 11 12 0 -2
BITMAP
0A00
0A00
0A00
4A40
4A40
2A40
2A80
2A80
0A00
0A00
0A00
FFE0
ENDCHAR
STARTCHAR p4E1B
ENCODING 19995
SWIDTH 440 0
DWIDTH 13 0
BBX 11 12 0 -2
BITMAP
2100
2100
2100
2100
2100
2100
5280
4A80
8440
8820
0000
FFE0
ENDCHAR
STARTCHAR p4E1C
ENCODING 19996
SWIDTH 440 0
DWIDTH 13 0
BBX 11 12 0 -2
BITMAP
0800
0800
FFE0
1000
2400
4400
FFC0
0400
2480
4440
8420
1C00
ENDCHAR
STARTCHAR p4E1D
ENCODING 19997
SWIDTH 440 0
DWIDTH 13 0
BBX 11 12 0 -2
BITMAP
1040
2080
2080
4520
FA20
13C0
2080
4100
7BE0
0000
FFE0
0000
ENDCHAR
STARTCHAR p4E1E
ENCODING 19998
SWIDTH 440 0
DWIDTH 13 0
BBX 11 12 0 -2
BITMAP
3F80
0100
0200
0420
F440
1680
2500
4480
8460
0C00
0000
FFE0
ENDCHAR
STARTCHAR p4E22
ENCODING 20002
SWIDTH 440 0
DWIDTH 13 0
BBX 11 12 0 -2
BITMAP
07C0
7C00
0400
7FC0
0400
0400
FFE0
0800
0900
1080
2040
FFE0
ENDCHAR
STARTCHAR p4E24
ENCODING 20004
SWIDTH 440 0
DWIDTH 13 0
BBX 11 12 0 -2
BITMAP
FFE0
1200
1200
7FC0
5240
5240
5240
6B40
64C0
4840
4040
41C0
ENDCHAR
STARTCHAR p4E25
ENCODING 20005
SWIDTH 440 0
DWIDTH 13 0
BBX 11 12 0 -2
BITMAP
7FE0
0900
2920
1940
0900
7FE0
4000
4000
4000
4000
8000
8000
ENDCHAR
STARTCHAR p4E27
ENCODING 20007
SWIDTH 440 0
DWIDTH 13 0
BBX 11 12 0 -2
BITMAP
0400
7FC0
0400
4440
2480
0400
FFE0
4880
4500
4A00
5180
6060
ENDCHAR
STARTCHAR p4E28
ENCODING 20008
SWIDTH 440 0
DWIDTH 13 0
BBX 11 12 0 -2
BITMAP
0400
0400
0400
0400
0400
0400
0400
0400
0400
0400
0400
0400
ENDCHAR
STARTCHAR p4E2A
ENCODING 20010
SWIDTH 440 0
DWIDTH 13 0
BBX 11 12 0 -2
BITMAP
0400
0400
0A00
1100
2480
C460
0400
0400
0400
0400
0400
0400
ENDCHAR
STARTCHAR p4E2B
ENCODING 20011
SWIDTH 440 0
DWIDTH 13 0
BBX 11 12 0 -2
BITMAP
2020
1040
0880
0500
0200
0200
0200
0200
0200
0200
0200
0200
ENDCHAR
STARTCHAR p4E2C
ENCODING 20012
SWIDTH 440 0
DWIDTH 13 0
BBX 11 12 0 -2
BITMAP
0100
0100
1100
0900
0500
0100
0300
0D00
3100
0100
0100
0100
ENDCHAR
STARTCHAR p4E2D
ENCODING 20013
SWIDTH 440 0
DWIDTH 13 0
BBX 11 12 0 -2
BITMAP
0400
0400
FFE0
8420
8420
8420
FFE0
8420
0400
0400
0400
0400
ENDCHAR
STARTCHAR p4E30
ENCODING 20016
SWIDTH 440 0
DWIDTH 13 0
BBX 11 12 0 -2
BITMAP
0400
0400
7FC0
0400
0400
3F80
0400
0400
FFE0
0400
0400
0400
ENDCHAR
STARTCHAR p4E32
ENCODING 20018
SWIDTH 440 0
DWIDTH 13 0
BBX 11 12 0 -2
BITMAP
0400
7FC0
4440
4440
7FC0
0400
FFE0
8420
8420
FFE0
8420
0400
ENDCHAR
STARTCHAR p4E34
ENCODING 20020
SWIDTH 440 0
DWIDTH 13 0
BBX 11 12 0 -2
BITMAP
1200
1200
97E0
9500
9880
9000
97E0
9520
9520
9520
17E0
1420
ENDCHAR
STARTCHAR p4E36
ENCODING 20022
SWIDTH 440 0
DWIDTH 13 0
BBX 11 12 0 -2
BITMAP
0000
0000
0000
0400
0400
0200
0200
0200
0000
0000
0000
0000
ENDCHAR
STARTCHAR p4E38
ENCODING 20024
SWIDTH 440 0
DWIDTH 13 0
BBX 11 12 0 -2
BITMAP
0800
0800
3F00
0900
0900
0900
3900
0D00
0B00
1100
2120
C0E0
ENDCHAR
STARTCHAR p4E39
ENCODING 20025
SWIDTH 440 0
DWIDTH 13 0
BBX 11 12 0 -2
BITMAP
3F80
2080
2880
2480
2480
2080
FFE0
2080
2080
2080
4080
4380
ENDCHAR
STARTCHAR p4E3A
ENCODING 20026
SWIDTH 440 0
DWIDTH 13 0
BBX 11 12 0 -2
BITMAP
2400
1400
0400
7FE0
0420
0420
0620
0920
0920
1020
2020
C1C0
ENDCHAR
STARTCHAR p4E3B
ENCODING 20027
SWIDTH 440 0
DWIDTH 13 0
BBX 11 12 0 -2
BITMAP
0800
0400
7FC0
0400
0400
0400
3F80
0400
0400
0400
0400
FFE0
ENDCHAR
STARTCHAR p4E3D
ENCODING 20029
SWIDTH 440 0
DWIDTH 13 0
BBX 11 12 0 -2
BITMAP
FFE0
0000
0000
7BC0
4A40
4A40
6B40
5AC0
4A40
4A40
4A40
5AC0
ENDCHAR
STARTCHAR p4E3E
ENCODING 20030
SWIDTH 440 0
DWIDTH 13 0
BBX 11 12 0 -2
BITMAP
4880
2480
0100
FFE0
1100
2480
DF60
0400
0400
7FC0
0400
0400
ENDCHAR
STARTCHAR p4E3F
ENCODING 20031
SWIDTH 440 0
DWIDTH 13 0
BBX 11 12 0 -2
BITMAP
0200
0200
0200
0200
0200
0200
0200
0200
0400
0400
0800
1000
ENDCHAR
STARTCHAR p4E43
ENCODING 20035
SWIDTH 440 0
DWIDTH 13 0
BBX 11 12 0 -2
BITMAP
0000
7F80
1080
1080
1100
11E0
1020
1020
2020
2020
4020
81C0
ENDCHAR
STARTCHAR p4E45
ENCODING 20037
SWIDTH 440 0
DWIDTH 13 0
BBX 11 12 0 -2
BITMAP
1000
1000
1F00
2100
2200
4200
0400
0400
0A00
1100
2080
C060
ENDCHAR
STARTCHAR p4E47
ENCODING 20039
SWIDTH 440 0
DWIDTH 13 0
BBX 11 12 0 -2
BITMAP
0780
7800
0800
0800
0800
FFE0
0800
0800
0800
0820
0820
07E0
ENDCHAR
STARTCHAR p4E48
ENCODING 20040
SWIDTH 440 0
DWIDTH 13 0
BBX 11 12 0 -2
BITMAP
0800
0800
1000
1100
2100
4200
8200
0400
0880
1040
21E0
7E20
ENDCHAR
STARTCHAR p4E49
ENCODING 20041
SWIDTH 440 0
DWIDTH 13 0
BBX 11 12 0 -2
BITMAP
0400
2440
2240
2240
2080
1080
1100
0A00
0400
0A00
3180
C060
ENDCHAR
STARTCHAR p4E4B
ENCODING 20043
SWIDTH 440 0
DWIDTH 13 0
BBX 11 12 0 -2
BITMAP
0800
0400
7FC0
0080
0100
0200
0400
0800
1000
3000
4800
87E0
ENDCHAR
STARTCHAR p4E4C
ENCODING 20044
SWIDTH 440 0
DWIDTH 13 0
BBX 11 12 0 -2
BITMAP
0800
7F80
4080
4080
4300
4000
7FC0
0040
0040
FF40
0040
0180
ENDCHAR
STARTCHAR p4E4D
ENCODING 20045
SWIDTH 440 0
DWIDTH 13 0
BBX 11 12 0 -2
BITMAP
1000
1000
3FE0
2400
4400
87C0
0400
0400
07C0
0400
0400
0400
ENDCHAR
STARTCHAR p4E4E
ENCODING 20046
SWIDTH 440 0
DWIDTH 13 0
BBX 11 12 0 -2
BITMAP
07C0
7C00
0400
4440
2480
0400
FFE0
0400
0400
0400
0400
1C00
ENDCHAR
STARTCHAR p4E4F
ENCODING 20047
SWIDTH 440 0
DWIDTH 13 0
BBX 11 12 0 -2
BITMAP
03C0
7C00
0400
0400
7FC0
0080
0100
0600
1800
6000
9800
07E0
ENDCHAR
STARTCHAR p4E50
ENCODING 20048
SWIDTH 440 0
DWIDTH 13 0
BBX 11 12 0 -2
BITMAP
0780
7800
4400
4400
4400
7FC0
0400
2480
2440
4420
8420
1C00
ENDCHAR
STARTCHAR p4E52
ENCODING 20050
SWIDTH 440 0
DWIDTH 13 0
BBX 11 12 0 -2
BITMAP
01C0
3E00
2000
2000
3FC0
2100
2100
FFE0
0000
1000
2000
C000
ENDCHAR
STARTCHAR p4E53
ENCODING 20051
SWIDTH 440 0
DWIDTH 13 0
BBX 11 12 0 -2
BITMAP
0380
7C00
4000
4000
7FC0
4200
4200
FFE0
0000
0180
0040
0020
ENDCHAR
STARTCHAR p4E54
ENCODING 20052
SWIDTH 440 0
DWIDTH 13 0
BBX 11 12 0 -2
BITMAP
0380
7C00
0800
FFE0
1100
2080
D140
1120
1100
1100
2100
4100
ENDCHAR
STARTCHAR p4E56
ENCODING 20054
SWIDTH 440 0
DWIDTH 13 0
BBX 11 12 0 -2
BITMAP
03C0
7C00
0400
FFE0
0400
1520
F5C0
1500
3520
D4E0
0400
0400
ENDCHAR
STARTCHAR p4E58
ENCODING 20056
SWIDTH 440 0
DWIDTH 13 0
BBX 11 12 0 -2
BITMAP
0780
7C00
0400
FFE0
1520
F5C0
1520
E4E0
0E00
3580
C460
0400
ENDCHAR
STARTCHAR p4E59
ENCODING 20057
SWIDTH 440 0
DWIDTH 13 0
BBX 11 12 0 -2
BITMAP
7FC0
0080
0100
0200
0400
0800
1000
2000
4020
4020
4020
3FE0
ENDCHAR
STARTCHAR p4E5C
ENCODING 20060
SWIDTH 440 0
DWIDTH 13 0
BBX 11 12 0 -2
BITMAP
2000
2000
23C0
3C40
E040
2040
2040
23C0
2000
2020
2020
1FE0
ENDCHAR
STARTCHAR p4E5D
ENCODING 20061
SWIDTH 440 0
DWIDTH 13 0
BBX 11 12 0 -2
BITMAP
1000
1000
1000
7F00
1100
1100
1100
1100
2100
2100
4120
80E0
ENDCHAR
STARTCHAR p4E5E
ENCODING 20062
SWIDTH 440 0
DWIDTH 13 0
BBX 11 12 0 -2
BITMAP
2000
2000
3FE0
4000
8000
3F80
0300
0C00
1000
2020
2020
1FE0
ENDCHAR
STARTCHAR p4E5F
ENCODING 20063
SWIDTH 440 0
DWIDTH 13 0
BBX 11 12 0 -2
BITMAP
0400
0400
25C0
2640
3C40
E440
2440
25C0
2400
2020
2020
1FE0
ENDCHAR
STARTCHAR p4E60
ENCODING 20064
SWIDTH 440 0
DWIDTH 13 0
BBX 11 12 0 -2
BITMAP
7FE0
0020
0020
3020
0C20
0020
0020
0220
0C20
7020
0040
0380
ENDCHAR
STARTCHAR p4E61
ENCODING 20065
SWIDTH 440 0
DWIDTH 13 0
BBX 11 12 0 -2
BITMAP
0400
0800
1080
2100
7E20
0420
0840
3FC0
0080
0100
0600
7800
ENDCHAR
STARTCHAR p4E66
ENCODING 20070
SWIDTH 440 0
DWIDTH 13 0
BBX 11 12 0 -2
BITMAP
0880
0840
7F20
0900
0900
0900
FFC0
0840
0840
0840
0980
0800
ENDCHAR
STARTCHAR p4E69
ENCODING 20073
SWIDTH 440 0
DWIDTH 13 0
BBX 11 12 0 -2
BITMAP
1100
1100
1D00
1100
1100
1100
7D00
4500
4500
4520
7D20
44E0
ENDCHAR
STARTCHAR p4E70
ENCODING 20080
SWIDTH 440 0
DWIDTH 13 0
BBX 11 12 0 -2
BITMAP
7FE0
0020
2420
1400
4400
2400
0400
FFE0
0A00
1100
2080
C060
ENDCHAR
STARTCHAR p4E71
ENCODING 20081
SWIDTH 440 0
DWIDTH 13 0
BBX 11 12 0 -2
BITMAP
1D00
7100
1100
1100
FF00
1100
1100
7D00
4500
4520
4520
7CE0
ENDCHAR
STARTCHAR p4E73
ENCODING 20083
SWIDTH 440 0
DWIDTH 13 0
BBX 11 12 0 -2
BITMAP
1D00
E100
9300
5500
0100
FD00
0900
1100
FF00
1120
1120
30E0
ENDCHAR
STARTCHAR p4E7E
ENCODING 20094
SWIDTH 440 0
DWIDTH 13 0
BBX 11 12 0 -2
BITMAP
2100
F900
23E0
FA00
8C00
FBC0
8880
F900
2200
FA20
2220
21E0
ENDCHAR
STARTCHAR p4E86
ENCODING 20102
SWIDTH 440 0
DWIDTH 13 0
BBX 11 12 0 -2
BITMAP
0000
3FC0
0080
0100
0200
0200
0200
0200
0200
0200
0200
0E00
ENDCHAR
STARTCHAR p4E88
ENCODING 20104
SWIDTH 440 0
DWIDTH 13 0
BBX 11 12 0 -2
BITMAP
7FC0
0080
1100
0A00
0400
FFE0
0420
0440
0400
0400
0400
0C00
ENDCHAR
STARTCHAR p4E89
ENCODING 20105
SWIDTH 440 0
DWIDTH 13 0
BBX 11 12 0 -2
BITMAP
2000
3F00
4200
BFC0
0440
FFE0
0440
0440
7FC0
0440
0400
0C00
ENDCHAR
STARTCHAR p4E8B
ENCODING 20107
SWIDTH 440 0
DWIDTH 13 0
BBX 11 12 0 -2
BITMAP
0400
FFE0
0400
3F80
2480
7FC0
0440
FFE0
0440
7FC0
0400
1C00
ENDCHAR
STARTCHAR p4E8C
ENCODING 20108
SWIDTH 440 0
DWIDTH 13 0
BBX 11 12 0 -2
BITMAP
0000
7FC0
0000
0000
0000
0000
0000
0000
0000
FFE0
0000
0000
ENDCHAR
STARTCHAR p4E8D
ENCODING 20109
SWIDTH 440 0
DWIDTH 13 0
BBX 11 12 0 -2
BITMAP
7FC0
0000
0000
0000
FFE0
0400
0400
0400
0400
0400
0400
1C00
ENDCHAR
STARTCHAR p4E8E
ENCODING 20110
SWIDTH 440 0
DWIDTH 13 0
BBX 11 12 0 -2
BITMAP
7FC0
0400
0400
0400
0400
FFE0
0400
0400
0400
0400
0400
0C00
ENDCHAR
STARTCHAR p4E8F
ENCODING 20111
SWIDTH 440 0
DWIDTH 13 0
BBX 11 12 0 -2
BITMAP
3F80
0000
0000
FFE0
0800
1000
3F80
2080
0080
0080
0080
0300
ENDCHAR
STARTCHAR p4E91
ENCODING 20113
SWIDTH 440 0
DWIDTH 13 0
BBX 11 12 0 -2
BITMAP
0000
3F80
0000
0000
0000
FFE0
0800
1000
2100
4080
FFC0
0040
ENDCHAR
STARTCHAR p4E92
ENCODING 20114
SWIDTH 440 0
DWIDTH 13 0
BBX 11 12 0 -2
BITMAP
0000
7FC0
1000
1000
1F80
1080
2080
2080
3F00
0100
0100
FFE0
ENDCHAR
STARTCHAR p4E93
ENCODING 20115
SWIDTH 440 0
DWIDTH 13 0
BBX 11 12 0 -2
BITMAP
7FC0
0000
0000
0000
FFE0
1100
1100
1100
2100
2100
4100
8100
ENDCHAR
STARTCHAR p4E94
ENCODING 20116
SWIDTH 440 0
DWIDTH 13 0
BBX 11 12 0 -2
BITMAP
0000
7FC0
0800
0800
0800
7F80
1080
1080
1080
1080
1080
FFE0
ENDCHAR
STARTCHAR p4E95
ENCODING 20117
SWIDTH 440 0
DWIDTH 13 0
BBX 11 12 0 -2
BITMAP
1100
1100
7FC0
1100
1100
1100
FFE0
1100
1100
1100
2100
4100
ENDCHAR
STARTCHAR p4E98
ENCODING 20120
SWIDTH 440 0
DWIDTH 13 0
BBX 11 12 0 -2
BITMAP
0000
7FC0
0000
3F80
2080
2080
3F80
2080
2080
3F80
0000
FFE0
ENDCHAR
STARTCHAR p4E9A
ENCODING 20122
SWIDTH 440 0
DWIDTH 13 0
BBX 11 12 0 -2
BITMAP
FFC0
1200
1200
9240
9240
9240
5280
5280
1200
1200
1200
FFE0
ENDCHAR
STARTCHAR p4E9B
ENCODING 20123
SWIDTH 440 0
DWIDTH 13 0
BBX 11 12 0 -2
BITMAP
1100
5120
5DC0
5100
5100
5D20
F0E0
0000
3F80
0000
0000
FFE0
ENDCHAR
STARTCHAR p4E9F
ENCODING 20127
SWIDTH 440 0
DWIDTH 13 0
BBX 11 12 0 -2
BITMAP
7FC0
0100
0600
75C0
5440
5540
5480
7540
4620
0C00
0000
FFE0
ENDCHAR
STARTCHAR p4EA0
ENCODING 20128
SWIDTH 440 0
DWIDTH 13 0
BBX 11 12 0 -2
BITMAP
0000
0000
0000
0800
0400
FFE0
0000
0000
0000
0000
0000
0000
ENDCHAR
STARTCHAR p4EA1
ENCODING 20129
SWIDTH 440 0
DWIDTH 13 0
BBX 11 12 0 -2
BITMAP
0400
0200
FFE0
2000
2000
2000
2000
2000
2000
2000
2000
1FC0
ENDCHAR
STARTCHAR p4EA2
ENCODING 20130
SWIDTH 440 0
DWIDTH 13 0
BBX 11 12 0 -2
BITMAP
0800
0400
FFE0
0000
1F00
1100
1100
1100
1100
1100
2120
C0E0
ENDCHAR
STARTCHAR p4EA4
ENCODING 20132
SWIDTH 440 0
DWIDTH 13 0
BBX 11 12 0 -2
BITMAP
0800
0400
FFE0
0000
2080
4040
9120
1100
0A00
0600
1980
E060
ENDCHAR
STARTCHAR p4EA5
ENCODING 20133
SWIDTH 440 0
DWIDTH 13 0
BBX 11 12 0 -2
BITMAP
0800
0400
FFE0
1000
2100
7E00
0440
1880
6300
0600
1980
E060
ENDCHAR
STARTCHAR p4EA6
ENCODING 20134
SWIDTH 440 0
DWIDTH 13 0
BBX 11 12 0 -2
BITMAP
0800
0400
FFE0
0900
0900
4940
4940
8920
1120
1100
2100
4300
ENDCHAR
STARTCHAR p4EA7
ENCODING 20135
SWIDTH 440 0
DWIDTH 13 0
BBX 11 12 0 -2
BITMAP
0200
7FE0
1080
0880
0900
7FE0
4000
4000
4000
4000
4000
8000
ENDCHAR
STARTCHAR p4EA8
ENCODING 20136
SWIDTH 440 0
DWIDTH 13 0
BBX 11 12 0 -2
BITMAP
0400
FFE0
0000
3F80
2080
3F80
0000
3F80
0200
0400
0400
1C00
ENDCHAR
STARTCHAR p4EA9
ENCODING 20137
SWIDTH 440 0
DWIDTH 13 0
BBX 11 12 0 -2
BITMAP
0400
FFE0
0000
0000
7FC0
4440
4440
7FC0
4440
4440
7FC0
4040
ENDCHAR
STARTCHAR p4EAB
ENCODING 20139
SWIDTH 440 0
DWIDTH 13 0
BBX 11 12 0 -2
BITMAP
0400
FFE0
0000
3F80
2080
3F80
0000
3F80
0200
FFE0
0400
1C00
ENDCHAR
STARTCHAR p4EAC
ENCODING 20140
SWIDTH 440 0
DWIDTH 13 0
BBX 11 12 0 -2
BITMAP
0400
FFE0
0000
3F80
2080
2080
3F80
0400
2480
4440
8420
1C00
ENDCHAR
STARTCHAR p4EAD
ENCODING 20141
SWIDTH 440 0
DWIDTH 13 0
BBX 11 12 0 -2
BITMAP
0400
FFE0
0000
3F80
2080
3F80
0000
FFE0
8020
3F80
0400
0C00
ENDCHAR
STARTCHAR p4EAE
ENCODING 20142
SWIDTH 440 0
DWIDTH 13 0
BBX 11 12 0 -2
BITMAP
0400
FFE0
0000
3F80
2080
FFE0
8020
9F20
1100
1120
2120
C0E0
ENDCHAR
STARTCHAR p4EB2
ENCODING 20146
SWIDTH 440 0
DWIDTH 13 0
BBX 11 12 0 -2
BITMAP
0400
7FC0
2080
1100
FFE0
0400
0400
7FC0
1500
2480
C460
0C00
ENDCHAR
STARTCHAR p4EB3
ENCODING 20147
SWIDTH 440 0
DWIDTH 13 0
BBX 11 12 0 -2
BITMAP
0400
FFE0
2080
3F80
0000
FFE0
8020
BFA0
0800
7FC0
0820
07E0
ENDCHAR
STARTCHAR p4EB5
ENCODING 20149
SWIDTH 440 0
DWIDTH 13 0
BBX 11 12 0 -2
BITMAP
0400
FFE0
2200
F780
2280
F2A0
2460
6800
1220
E140
2480
3860
ENDCHAR
STARTCHAR p4EBA
ENCODING 20154
SWIDTH 440 0
DWIDTH 13 0
BBX 11 12 0 -2
BITMAP
0400
0400
0400
0400
0400
0400
0A00
0A00
1100
2080
4040
8020
ENDCHAR
STARTCHAR p4EBB
ENCODING 20155
SWIDTH 440 0
DWIDTH 13 0
BBX 11 12 0 -2
BITMAP
0100
0100
0200
0400
0C00
1400
0400
0400
0400
0400
0400
0400
ENDCHAR
STARTCHAR p4EBF
ENCODING 20159
SWIDTH 440 0
DWIDTH 13 0
BBX 11 12 0 -2
BITMAP
1000
17C0
2040
2080
6100
A200
2400
2400
2800
2820
2820
27E0
ENDCHAR
STARTCHAR p4EC0
ENCODING 20160
SWIDTH 440 0
DWIDTH 13 0
BBX 11 12 0 -2
BITMAP
1100
1100
2100
2100
6FE0
A100
2100
2100
2100
2100
2100
2100
ENDCHAR
STARTCHAR p4EC1
ENCODING 20161
SWIDTH 440 0
DWIDTH 13 0
BBX 11 12 0 -2
BITMAP
1000
1000
27C0
2000
6000
A000
2000
2000
2000
2000
2FE0
2000
ENDCHAR
STARTCHAR p4EC2
ENCODING 20162
SWIDTH 440 0
DWIDTH 13 0
BBX 11 12 0 -2
BITMAP
1100
1100
2100
27E0
6120
A120
2120
2120
2220
2220
2420
28C0
ENDCHAR
STARTCHAR p4EC3
ENCODING 20163
SWIDTH 440 0
DWIDTH 13 0
BBX 11 12 0 -2
BITMAP
1000
1FE0
2100
2100
6100
A100
2100
2100
2100
2100
2100
2300
ENDCHAR
STARTCHAR p4EC4
ENCODING 20164
SWIDTH 440 0
DWIDTH 13 0
BBX 11 12 0 -2
BITMAP
7FE0
4000
4200
4200
4200
4200
4200
4500
4500
4880
9040
A020
ENDCHAR
STARTCHAR p4EC5
ENCODING 20165
SWIDTH 440 0
DWIDTH 13 0
BBX 11 12 0 -2
BITMAP
1000
2FC0
2040
6840
A880
2880
2500
2500
2200
2300
2480
2860
ENDCHAR
STARTCHAR p4EC6
ENCODING 20166
SWIDTH 440 0
DWIDTH 13 0
BBX 11 12 0 -2
BITMAP
1100
1100
2100
2180
6140
A140
2120
2120
2100
2100
2100
2100
ENDCHAR
STARTCHAR p4EC7
ENCODING 20167
SWIDTH 440 0
DWIDTH 13 0
BBX 11 12 0 -2
BITMAP
2400
2400
4400
5F80
C480
4480
4480
4480
4880
48A0
50A0
6060
ENDCHAR
STARTCHAR p4EC9
ENCODING 20169
SWIDTH 440 0
DWIDTH 13 0
BBX 11 12 0 -2
BITMAP
1000
1780
2480
2480
6480
A480
2480
2480
2480
2480
28A0
3060
ENDCHAR
STARTCHAR p4ECA
ENCODING 20170
SWIDTH 440 0
DWIDTH 13 0
BBX 11 12 0 -2
BITMAP
0400
0A00
1100
2080
C860
0400
7F80
0080
0100
0200
0400
0800
ENDCHAR
STARTCHAR p4ECB
ENCODING 20171
SWIDTH 440 0
DWIDTH 13 0
BBX 11 12 0 -2
BITMAP
0400
0A00
1100
2080
C060
1100
1100
1100
1100
1100
2100
4100
ENDCHAR
STARTCHAR p4ECD
ENCODING 20173
SWIDTH 440 0
DWIDTH 13 0
BBX 11 12 0 -2
BITMAP
1000
17C0
2240
2240
6280
A2E0
2220
2220
2220
2420
2420
29C0
ENDCHAR
STARTCHAR p4ECE
ENCODING 20174
SWIDTH 440 0
DWIDTH 13 0
BBX 11 12 0 -2
BITMAP
2100
2100
2100
2100
2100
2100
2100
2280
5280
4C40
8440
8820
ENDCHAR
STARTCHAR p4ED1
ENCODING 20177
SWIDTH 440 0
DWIDTH 13 0
BBX 11 12 0 -2
BITMAP
0400
0600
0900
1080
2040
D020
1180
1E00
1000
1040
1040
0FC0
ENDCHAR
STARTCHAR p4ED3
ENCODING 20179
SWIDTH 440 0
DWIDTH 13 0
BBX 11 12 0 -2
BITMAP
0600
0900
1080
2040
DFA0
1080
1080
1080
1380
1020
1020
0FE0
ENDCHAR
STARTCHAR p4ED4
ENCODING 20180
SWIDTH 440 0
DWIDTH 13 0
BBX 11 12 0 -2
BITMAP
1000
17C0
2080
2100
6100
AFE0
2100
2100
2100
2100
2100
2300
ENDCHAR
STARTCHAR p4ED5
ENCODING 20181
SWIDTH 440 0
DWIDTH 13 0
BBX 11 12 0 -2
BITMAP
1100
1100
2100
2100
6FE0
A100
2100
2100
2100
2100
2FE0
2000
ENDCHAR
STARTCHAR p4ED6
ENCODING 20182
SWIDTH 440 0
DWIDTH 13 0
BBX 11 12 0 -2
BITMAP
1200
1200
2AC0
6B40
AE40
3A40
2A40
2AC0
2A00
2A20
2820
27E0
ENDCHAR
STARTCHAR p4ED7
ENCODING 20183
SWIDTH 440 0
DWIDTH 13 0
BBX 11 12 0 -2
BITMAP
1080
1080
2080
6FE0
A080
2480
2480
2280
2100
2280
2440
2820
ENDCHAR
STARTCHAR p4ED8
ENCODING 20184
SWIDTH 440 0
DWIDTH 13 0
BBX 11 12 0 -2
BITMAP
1080
1080
2080
2FE0
6080
A880
2480
2480
2080
2080
2080
2380
ENDCHAR
STARTCHAR p4ED9
ENCODING 20185
SWIDTH 440 0
DWIDTH 13 0
BBX 11 12 0 -2
BITMAP
1100
1100
2100
2920
6920
A920
2920
2920
2920
2920
2FE0
2820
ENDCHAR
STARTCHAR p4EDD
ENCODING 20189
SWIDTH 440 0
DWIDTH 13 0
BBX 11 12 0 -2
BITMAP
0400
0A00
1100
2080
C060
0000
7FC0
0400
0400
0400
0400
FFE0
ENDCHAR
STARTCHAR p4EDE
ENCODING 20190
SWIDTH 440 0
DWIDTH 13 0
BBX 11 12 0 -2
BITMAP
1000
17E0
2120
2120
6520
A520
2920
2120
2220
2220
2420
28C0
ENDCHAR
STARTCHAR p4EDF
ENCODING 20191
SWIDTH 440 0
DWIDTH 13 0
BBX 11 12 0 -2
BITMAP
10C0
1700
2100
2100
6100
AFE0
2100
2100
2100
2100
2100
2100
ENDCHAR
STARTCHAR p4EE1
ENCODING 20193
SWIDTH 440 0
DWIDTH 13 0
BBX 11 12 0 -2
BITMAP
1200
1200
27E0
2400
6800
A7C0
2080
2100
2200
2420
2420
23E0
ENDCHAR
STARTCHAR p4EE3
ENCODING 20195
SWIDTH 440 0
DWIDTH 13 0
BBX 11 12 0 -2
BITMAP
1280
1240
2200
23E0
6E00
A200
2200
2200
2100
2120
20A0
2060
ENDCHAR
STARTCHAR p4EE4
ENCODING 20196
SWIDTH 440 0
DWIDTH 13 0
BBX 11 12 0 -2
BITMAP
0400
0A00
1100
2880
C460
0000
7FC0
0080
3100
0A00
0400
0200
ENDCHAR
STARTCHAR p4EE5
ENCODING 20197
SWIDTH 440 0
DWIDTH 13 0
BBX 11 12 0 -2
BITMAP
4040
4040
4840
4440
4240
4040
4880
5080
6100
4280
0C40
3020
ENDCHAR
STARTCHAR p4EE8
ENCODING 20200
SWIDTH 440 0
DWIDTH 13 0
BBX 11 12 0 -2
BITMAP
1000
17C0
2000
2000
6000
A7C0
2000
2000
2000
2000
2FE0
2000
ENDCHAR
STARTCHAR p4EEA
ENCODING 20202
SWIDTH 440 0
DWIDTH 13 0
BBX 11 12 0 -2
BITMAP
1200
2100
2940
6840
A440
2480
2280
2100
2280
2480
2840
3020
ENDCHAR
STARTCHAR p4EEB
ENCODING 20203
SWIDTH 440 0
DWIDTH 13 0
BBX 11 12 0 -2
BITMAP
1100
1100
2200
2200
6480
A880
2100
2100
2240
2440
2FE0
2020
ENDCHAR
STARTCHAR p4EEC
ENCODING 20204
SWIDTH 440 0
DWIDTH 13 0
BBX 11 12 0 -2
BITMAP
1400
22E0
2820
6820
A820
2820
2820
2820
2820
2820
2820
2860
ENDCHAR
STARTCHAR p4EF0
ENCODING 20208
SWIDTH 440 0
DWIDTH 13 0
BBX 11 12 0 -2
BITMAP
13E0
2D20
2920
6920
A920
2920
2920
2920
2B20
2D60
2100
2100
ENDCHAR
STARTCHAR p4EF2
ENCODING 20210
SWIDTH 440 0
DWIDTH 13 0
BBX 11 12 0 -2
BITMAP
1100
1100
2FE0
2920
6920
A920
2920
2FE0
2100
2100
2100
2100
ENDCHAR
STARTCHAR p4EF3
ENCODING 20211
SWIDTH 440 0
DWIDTH 13 0
BBX 11 12 0 -2
BITMAP
1900
1900
2900
2920
6940
AF80
2900
2900
2900
2B20
2D20
28E0
ENDCHAR
STARTCHAR p4EF5
ENCODING 20213
SWIDTH 440 0
DWIDTH 13 0
BBX 11 12 0 -2
BITMAP
2400
2400
27C0
6900
A100
2100
2FE0
2100
2100
2100
2100
2100
ENDCHAR
STARTCHAR p4EF6
ENCODING 20214
SWIDTH 440 0
DWIDTH 13 0
BBX 11 12 0 -2
BITMAP
1100
1500
2500
67C0
A900
2100
2100
2FE0
2100
2100
2100
2100
ENDCHAR
STARTCHAR p4EF7
ENCODING 20215
SWIDTH 440 0
DWIDTH 13 0
BBX 11 12 0 -2
BITMAP
1100
2280
2440
6820
A000
2280
2280
2280
2280
2480
2480
2880
ENDCHAR
STARTCHAR p4EFB
ENCODING 20219
SWIDTH 440 0
DWIDTH 13 0
BBX 11 12 0 -2
BITMAP
10C0
2F00
2100
6100
A100
2FE0
2100
2100
2100
2100
2100
2FE0
ENDCHAR
STARTCHAR p4EFD
ENCODING 20221
SWIDTH 440 0
DWIDTH 13 0
BBX 11 12 0 -2
BITMAP
1280
2280
2440
6440
A820
27C0
2240
2240
2240
2440
2440
2980
ENDCHAR
STARTCHAR p4EFF
ENCODING 20223
SWIDTH 440 0
DWIDTH 13 0
BBX 11 12 0 -2
BITMAP
1200
2100
2FE0
6200
A200
23C0
2240
2240
2240
2440
2440
2980
ENDCHAR
STARTCHAR p4F01
ENCODING 20225
SWIDTH 440 0
DWIDTH 13 0
BBX 11 12 0 -2
BITMAP
0400
0A00
1100
2080
C460
0400
2400
27C0
2400
2400
2400
FFE0
ENDCHAR
STARTCHAR p4F09
ENCODING 20233
SWIDTH 440 0
DWIDTH 13 0
BBX 11 12 0 -2
BITMAP
1200
1200
2FE0
6000
A780
2480
2480
2480
2480
24A0
28A0
3060
ENDCHAR
STARTCHAR p4F0A
ENCODING 20234
SWIDTH 440 0
DWIDTH 13 0
BBX 11 12 0 -2
BITMAP
1000
2FC0
2240
6240
AFE0
2240
2240
2FC0
2240
2200
2400
2800
ENDCHAR
STARTCHAR p4F0D
ENCODING 20237
SWIDTH 440 0
DWIDTH 13 0
BBX 11 12 0 -2
BITMAP
1000
2FE0
2200
6200
A200
2FC0
2440
2440
2440
2440
2440
2FE0
ENDCHAR
STARTCHAR p4F0E
ENCODING 20238
SWIDTH 440 0
DWIDTH 13 0
BBX 11 12 0 -2
BITMAP
1100
1100
2FE0
2100
6100
A7C0
2440
2440
2280
2180
2240
2C20
ENDCHAR
STARTCHAR p4F0F
ENCODING 20239
SWIDTH 440 0
DWIDTH 13 0
BBX 11 12 0 -2
BITMAP
1140
2120
2100
6FE0
A100
2100
2100
2280
2280
2440
2440
2820
ENDCHAR
STARTCHAR p4F10
ENCODING 20240
SWIDTH 440 0
DWIDTH 13 0
BBX 11 12 0 -2
BITMAP
1280
1240
2200
63E0
AE00
2240
2240
2280
2100
2320
2CA0
2060
ENDCHAR
STARTCHAR p4F11
ENCODING 20241
SWIDTH 440 0
DWIDTH 13 0
BBX 11 12 0 -2
BITMAP
1100
1100
2100
2FE0
6100
A300
2380
2580
2940
3120
2100
2100
ENDCHAR
STARTCHAR p4F17
ENCODING 20247
SWIDTH 440 0
DWIDTH 13 0
BBX 11 12 0 -2
BITMAP
0400
0A00
1100
2080
C060
1100
1100
1100
1100
2A80
4440
8820
ENDCHAR
STARTCHAR p4F18
ENCODING 20248
SWIDTH 440 0
DWIDTH 13 0
BBX 11 12 0 -2
BITMAP
1280
1240
2200
2FE0
6200
A200
2300
2300
2500
2520
2920
30E0
ENDCHAR
STARTCHAR p4F19
ENCODING 20249
SWIDTH 440 0
DWIDTH 13 0
BBX 11 12 0 -2
BITMAP
1100
2100
2920
6520
A540
2100
2100
2280
2280
2440
2440
2820
ENDCHAR
STARTCHAR p4F1A
ENCODING 20250
SWIDTH 440 0
DWIDTH 13 0
BBX 11 12 0 -2
BITMAP
0400
0A00
1100
2080
DF60
0000
0000
7FC0
0800
1080
23C0
7C40
ENDCHAR
STARTCHAR p4F1B
ENCODING 20251
SWIDTH 440 0
DWIDTH 13 0
BBX 11 12 0 -2
BITMAP
1000
1FE0
2800
2C40
6A80
A900
2900
2A80
2C40
2840
2800
2FE0
ENDCHAR
STARTCHAR p4F1E
ENCODING 20254
SWIDTH 440 0
DWIDTH 13 0
BBX 11 12 0 -2
BITMAP
0400
0A00
1100
2080
C460
2480
1500
0400
FFE0
0400
0400
0400
ENDCHAR
STARTCHAR p4F1F
ENCODING 20255
SWIDTH 440 0
DWIDTH 13 0
BBX 11 12 0 -2
BITMAP
1200
1FE0
2200
2200
6FC0
A200
3FE0
2220
2220
2220
22C0
2200
ENDCHAR
STARTCHAR p4F20
ENCODING 20256
SWIDTH 440 0
DWIDTH 13 0
BBX 11 12 0 -2
BITMAP
1100
1100
2FE0
2200
6FE0
A200
2400
27E0
2040
2480
2300
20C0
ENDCHAR
STARTCHAR p4F22
ENCODING 20258
SWIDTH 440 0
DWIDTH 13 0
BBX 11 12 0 -2
BITMAP
1000
2FE0
2080
6480
A880
2FE0
2180
2280
2480
2880
3080
2380
ENDCHAR
STARTCHAR p4F24
ENCODING 20260
SWIDTH 440 0
DWIDTH 13 0
BBX 11 12 0 -2
BITMAP
2400
2400
27E0
6900
A100
2FE0
2120
2120
2220
2220
2420
28C0
ENDCHAR
STARTCHAR p4F25
ENCODING 20261
SWIDTH 440 0
DWIDTH 13 0
BBX 11 12 0 -2
BITMAP
1440
1480
2500
2400
6400
AFE0
2500
2500
2480
2480
2540
2620
ENDCHAR
STARTCHAR p4F26
ENCODING 20262
SWIDTH 440 0
DWIDTH 13 0
BBX 11 12 0 -2
BITMAP
1100
1280
2440
2820
6000
A420
24C0
2700
2400
2420
2420
23E0
ENDCHAR
STARTCHAR p4F27
ENCODING 20263
SWIDTH 440 0
DWIDTH 13 0
BBX 11 12 0 -2
BITMAP
1100
2280
2440
6820
A7C0
2440
2440
25C0
2400
2420
2420
23E0
ENDCHAR
STARTCHAR p4F2A
ENCODING 20266
SWIDTH 440 0
DWIDTH 13 0
BBX 11 12 0 -2
BITMAP
1500
1300
2100
2FE0
6220
A220
2220
2320
24A0
2420
2820
30C0
ENDCHAR
STARTCHAR p4F2B
ENCODING 20267
SWIDTH 440 0
DWIDTH 13 0
BBX 11 12 0 -2
BITMAP
1200
1100
2FE0
2820
6820
A820
2000
2000
2000
2000
2FE0
2000
ENDCHAR
STARTCHAR p4F2F
ENCODING 20271
SWIDTH 440 0
DWIDTH 13 0
BBX 11 12 0 -2
BITMAP
1100
1200
27E0
2420
6420
A420
27E0
2420
2420
2420
27E0
2420
ENDCHAR
STARTCHAR p4F30
ENCODING 20272
SWIDTH 440 0
DWIDTH 13 0
BBX 11 12 0 -2
BITMAP
1100
1100
2FE0
2100
6100
A100
27C0
2440
2440
2440
27C0
2440
ENDCHAR
STARTCHAR p4F32
ENCODING 20274
SWIDTH 440 0
DWIDTH 13 0
BBX 11 12 0 -2
BITMAP
17E0
1420
2420
27E0
6400
A500
2520
25C0
2500
2500
2920
28E0
ENDCHAR
STARTCHAR p4F34
ENCODING 20276
SWIDTH 440 0
DWIDTH 13 0
BBX 11 12 0 -2
BITMAP
2200
2A40
4680
4200
CFC0
4200
4200
5FE0
4200
4200
4200
4200
ENDCHAR
STARTCHAR p4F36
ENCODING 20278
SWIDTH 440 0
DWIDTH 13 0
BBX 11 12 0 -2
BITMAP
2200
2300
4480
4840
D220
4100
4FC0
4040
4080
4D00
4300
40C0
ENDCHAR
STARTCHAR p4F38
ENCODING 20280
SWIDTH 440 0
DWIDTH 13 0
BBX 11 12 0 -2
BITMAP
1100
1100
2FE0
6920
A920
2FE0
2920
2920
2FE0
2920
2100
2100
ENDCHAR
STARTCHAR p4F3A
ENCODING 20282
SWIDTH 440 0
DWIDTH 13 0
BBX 11 12 0 -2
BITMAP
1000
17E0
2020
2020
67A0
A020
2720
2520
2520
2720
2020
2060
ENDCHAR
STARTCHAR p4F3C
ENCODING 20284
SWIDTH 440 0
DWIDTH 13 0
BBX 11 12 0 -2
BITMAP
1240
2140
2940
6840
A840
2840
2940
2A40
2C40
28A0
2120
2620
ENDCHAR
STARTCHAR p4F3D
ENCODING 20285
SWIDTH 440 0
DWIDTH 13 0
BBX 11 12 0 -2
BITMAP
2800
2800
5EE0
4AA0
CAA0
4AA0
4AA0
4AA0
4AA0
4AA0
52E0
66A0
ENDCHAR
STARTCHAR p4F43
ENCODING 20291
SWIDTH 440 0
DWIDTH 13 0
BBX 11 12 0 -2
BITMAP
1000
2FE0
2920
6920
A920
2FE0
2920
2920
2920
2920
2FE0
2820
ENDCHAR
STARTCHAR p4F46
ENCODING 20294
SWIDTH 440 0
DWIDTH 13 0
BBX 11 12 0 -2
BITMAP
1000
27C0
2440
6440
A7C0
2440
2440
2440
27C0
2000
2000
2FE0
ENDCHAR
STARTCHAR p4F4D
ENCODING 20301
SWIDTH 440 0
DWIDTH 13 0
BBX 11 12 0 -2
BITMAP
1200
1100
2FE0
6000
A440
2440
2440
2240
2280
2280
2100
2FE0
ENDCHAR
STARTCHAR p4F4E
ENCODING 20302
SWIDTH 440 0
DWIDTH 13 0
BBX 11 12 0 -2
BITMAP
10C0
1F00
2900
2900
6900
AFE0
2900
2900
2880
28A0
2A60
2D20
ENDCHAR
STARTCHAR p4F4F
ENCODING 20303
SWIDTH 440 0
DWIDTH 13 0
BBX 11 12 0 -2
BITMAP
1200
1100
2FE0
6100
A100
2100
27C0
2100
2100
2100
2100
2FE0
ENDCHAR
STARTCHAR p4F50
ENCODING 20304
SWIDTH 440 0
DWIDTH 13 0
BBX 11 12 0 -2
BITMAP
1200
1200
2FE0
2400
6400
A400
27C0
2900
2900
3100
2100
2FE0
ENDCHAR
STARTCHAR p4F51
ENCODING 20305
SWIDTH 440 0
DWIDTH 13 0
BBX 11 12 0 -2
BITMAP
1100
1100
2FE0
6200
A200
2400
2FE0
3420
2420
2420
27E0
2420
ENDCHAR
STARTCHAR p4F53
ENCODING 20307
SWIDTH 440 0
DWIDTH 13 0
BBX 11 12 0 -2
BITMAP
1100
2100
2FE0
6100
A380
2380
2540
2940
3120
27C0
2100
2100
ENDCHAR
STARTCHAR p4F55
ENCODING 20309
SWIDTH 440 0
DWIDTH 13 0
BBX 11 12 0 -2
BITMAP
1000
2FE0
2040
6040
AF40
2940
2940
2940
2F40
2940
2040
20C0
ENDCHAR
STARTCHAR p4F57
ENCODING 20311
SWIDTH 440 0
DWIDTH 13 0
BBX 11 12 0 -2
BITMAP
1200
1100
2FE0
2820
6820
A400
24C0
2700
2400
2420
2420
23E0
ENDCHAR
STARTCHAR p4F58
ENCODING 20312
SWIDTH 440 0
DWIDTH 13 0
BBX 11 12 0 -2
BITMAP
0400
0A00
1100
2080
DF60
0000
7FC0
0400
2480
4440
8420
1C00
ENDCHAR
STARTCHAR p4F59
ENCODING 20313
SWIDTH 440 0
DWIDTH 13 0
BBX 11 12 0 -2
BITMAP
0400
0A00
1100
2080
DF60
0400
7FC0
0400
2480
2440
4440
1C00
ENDCHAR
STARTCHAR p4F5A
ENCODING 20314
SWIDTH 440 0
DWIDTH 13 0
BBX 11 12 0 -2
BITMAP
1100
1500
27C0
2500
6900
A100
2FE0
2100
2280
2280
2440
2820
ENDCHAR
STARTCHAR p4F5B
ENCODING 20315
SWIDTH 440 0
DWIDTH 13 0
BBX 11 12 0 -2
BITMAP
1280
1280
2FE0
62A0
AFE0
2A80
2A80
2FE0
22A0
22A0
24C0
2880
ENDCHAR
STARTCHAR p4F5C
ENCODING 20316
SWIDTH 440 0
DWIDTH 13 0
BBX 11 12 0 -2
BITMAP
1400
2400
27E0
6A00
B200
23E0
2200
2200
23E0
2200
2200
2200
ENDCHAR
STARTCHAR p4F5D
ENCODING 20317
SWIDTH 440 0
DWIDTH 13 0
BBX 11 12 0 -2
BITMAP
1400
1400
27E0
6820
B7A0
24A0
24A0
24A0
27A0
2420
2020
20C0
ENDCHAR
STARTCHAR p4F5E
ENCODING 20318
SWIDTH 440 0
DWIDTH 13 0
BBX 11 12 0 -2
BITMAP
1000
17C0
2000
2FE0
6000
A200
2FE0
2480
2880
2500
2380
2C60
ENDCHAR
STARTCHAR p4F5F
ENCODING 20319
SWIDTH 440 0
DWIDTH 13 0
BBX 11 12 0 -2
BITMAP
1400
17C0
2440
2A80
6280
A100
2280
2C60
2100
2080
2300
20C0
ENDCHAR
STARTCHAR p4F60
ENCODING 20320
SWIDTH 440 0
DWIDTH 13 0
BBX 11 12 0 -2
BITMAP
1400
1400
27E0
2420
6940
A100
2540
2540
2920
2920
2100
2300
ENDCHAR
STARTCHAR p4F63
ENCODING 20323
SWIDTH 440 0
DWIDTH 13 0
BBX 11 12 0 -2
BITMAP
17E0
2520
2520
67E0
A520
2520
2520
27E0
2520
2520
2520
2960
ENDCHAR
STARTCHAR p4F64
ENCODING 20324
SWIDTH 440 0
DWIDTH 13 0
BBX 11 12 0 -2
BITMAP
2000
2FE0
2400
4400
C780
4480
4680
4580
4880
49A0
4AA0
4C60
ENDCHAR
STARTCHAR p4F65
ENCODING 20325
SWIDTH 440 0
DWIDTH 13 0
BBX 11 12 0 -2
BITMAP
0400
0A00
1100
2080
DF60
0000
2480
2480
1500
1100
0200
FFE0
ENDCHAR
STARTCHAR p4F67
ENCODING 20327
SWIDTH 440 0
DWIDTH 13 0
BBX 11 12 0 -2
BITMAP
1200
1200
23C0
2200
6200
AFE0
2200
2280
2240
2220
2200
2200
ENDCHAR
STARTCHAR p4F69
ENCODING 20329
SWIDTH 440 0
DWIDTH 13 0
BBX 11 12 0 -2
BITMAP
2000
3FC0
5040
5F40
D240
5F40
5B40
5B40
5B40
5B40
6260
4220
ENDCHAR
STARTCHAR p4F6C
ENCODING 20332
SWIDTH 440 0
DWIDTH 13 0
BBX 11 12 0 -2
BITMAP
1400
2FA0
2440
6480
BFE0
2200
2400
2CC0
3700
2420
2420
23E0
ENDCHAR
STARTCHAR p4F6F
ENCODING 20335
SWIDTH 440 0
DWIDTH 13 0
BBX 11 12 0 -2
BITMAP
1480
2500
2FC0
6200
A200
2FC0
2200
2200
3FE0
2200
2200
2200
ENDCHAR
STARTCHAR p4F70
ENCODING 20336
SWIDTH 440 0
DWIDTH 13 0
BBX 11 12 0 -2
BITMAP
1000
1FE0
2200
2FC0
6840
A840
2FC0
2840
2840
2840
2FC0
2840
ENDCHAR
STARTCHAR p4F73
ENCODING 20339
SWIDTH 440 0
DWIDTH 13 0
BBX 11 12 0 -2
BITMAP
1100
27C0
2100
6100
AFE0
2000
2100
2100
27C0
2100
2100
2FE0
ENDCHAR
STARTCHAR p4F74
ENCODING 20340
SWIDTH 440 0
DWIDTH 13 0
BBX 11 12 0 -2
BITMAP
1FE0
1440
2440
67C0
A440
2440
27C0
2440
2440
2FE0
2040
2040
ENDCHAR
STARTCHAR p4F76
ENCODING 20342
SWIDTH 440 0
DWIDTH 13 0
BBX 11 12 0 -2
BITMAP
1100
1100
2FE0
2100
6100
A7C0
2000
27C0
2440
2440
27C0
2440
ENDCHAR
STARTCHAR p4F7B
ENCODING 20347
SWIDTH 440 0
DWIDTH 13 0
BBX 11 12 0 -2
BITMAP
2500
2500
4500
5520
CD40
4500
4D80
5560
4500
4900
4920
50E0
ENDCHAR
STARTCHAR p4F7C
ENCODING 20348
SWIDTH 440 0
DWIDTH 13 0
BBX 11 12 0 -2
BITMAP
1200
1100
2FE0
2280
6440
A820
2440
2280
2100
2280
2440
2820
ENDCHAR
STARTCHAR p4F7E
ENCODING 20350
SWIDTH 440 0
DWIDTH 13 0
BBX 11 12 0 -2
BITMAP
1280
2280
2440
6820
A7C0
2440
27C0
2440
27C0
2440
2440
24C0
ENDCHAR
STARTCHAR p4F7F
ENCODING 20351
SWIDTH 440 0
DWIDTH 13 0
BBX 11 12 0 -2
BITMAP
1100
2FE0
2100
6FE0
A920
2920
2FE0
2100
2900
2600
2580
3860
ENDCHAR
STARTCHAR p4F83
ENCODING 20355
SWIDTH 440 0
DWIDTH 13 0
BBX 11 12 0 -2
BITMAP
2F80
2880
2880
4880
4F80
C000
4A80
4A80
4A80
4A80
4AA0
5260
ENDCHAR
STARTCHAR p4F84
ENCODING 20356
SWIDTH 440 0
DWIDTH 13 0
BBX 11 12 0 -2
BITMAP
1000
1FE0
2200
6280
A440
2FE0
2100
2100
2FE0
2100
2100
2FE0
ENDCHAR
STARTCHAR p4F88
ENCODING 20360
SWIDTH 440 0
DWIDTH 13 0
BBX 11 12 0 -2
BITMAP
1200
13C0
2440
2A80
6100
A200
2D00
21E0
2220
2540
2180
2E00
ENDCHAR
STARTCHAR p4F89
ENCODING 20361
SWIDTH 440 0
DWIDTH 13 0
BBX 11 12 0 -2
BITMAP
1100
2FE0
2280
6440
ABA0
2000
2FE0
2200
27C0
2040
2240
2180
ENDCHAR
STARTCHAR p4F8B
ENCODING 20363
SWIDTH 440 0
DWIDTH 13 0
BBX 11 12 0 -2
BITMAP
2020
3EA0
48A0
48A0
CEA0
52A0
52A0
6AA0
44A0
4420
4820
50E0
ENDCHAR
STARTCHAR p4F8D
ENCODING 20365
SWIDTH 440 0
DWIDTH 13 0
BBX 11 12 0 -2
BITMAP
1100
17C0
2100
2100
6FE0
A040
2040
2FE0
2040
2440
2240
20C0
ENDCHAR
STARTCHAR p4F8F
ENCODING 20367
SWIDTH 440 0
DWIDTH 13 0
BBX 11 12 0 -2
BITMAP
1500
1500
27C0
6500
A900
2100
2FE0
2300
2580
2940
3120
2100
ENDCHAR
STARTCHAR p4F91
ENCODING 20369
SWIDTH 440 0
DWIDTH 13 0
BBX 11 12 0 -2
BITMAP
1200
1200
2FE0
6400
A7C0
2C40
37C0
2440
27C0
2440
2440
24C0
ENDCHAR
STARTCHAR p4F94
ENCODING 20372
SWIDTH 440 0
DWIDTH 13 0
BBX 11 12 0 -2
BITMAP
1200
1280
2440
2FE0
6000
A500
27C0
2900
2100
2FE0
2100
2100
ENDCHAR
STARTCHAR p4F97
ENCODING 20375
SWIDTH 440 0
DWIDTH 13 0
BBX 11 12 0 -2
BITMAP
1000
2FE0
2820
6BA0
A820
2820
2BA0
2AA0
2AA0
2BA0
2820
2860
ENDCHAR
STARTCHAR p4F9B
ENCODING 20379
SWIDTH 440 0
DWIDTH 13 0
BBX 11 12 0 -2
BITMAP
1280
1280
2280
2FE0
6280
A280
2280
2FE0
2000
2280
2440
2820
ENDCHAR
STARTCHAR p4F9D
ENCODING 20381
SWIDTH 440 0
DWIDTH 13 0
BBX 11 12 0 -2
BITMAP
1200
1100
2FE0
2200
6200
A520
2540
2C80
3480
2440
2540
2620
ENDCHAR
STARTCHAR p4FA0
ENCODING 20384
SWIDTH 440 0
DWIDTH 13 0
BBX 11 12 0 -2
BITMAP
1200
2200
2FC0
6200
AA40
2A80
3FE0
2200
2500
2480
2840
3020
ENDCHAR
STARTCHAR p4FA3
ENCODING 20387
SWIDTH 440 0
DWIDTH 13 0
BBX 11 12 0 -2
BITMAP
17C0
1440
2440
2440
67C0
A000
2FE0
2820
2820
2820
2FE0
2820
ENDCHAR
STARTCHAR p4FA5
ENCODING 20389
SWIDTH 440 0
DWIDTH 13 0
BBX 11 12 0 -2
BITMAP
1200
23E0
2E40
6180
A320
2CE0
2000
2FE0
2280
2280
24A0
2860
ENDCHAR
STARTCHAR p4FA6
ENCODING 20390
SWIDTH 440 0
DWIDTH 13 0
BBX 11 12 0 -2
BITMAP
1100
11E0
2100
27E0
6420
A520
2520
2520
2520
2520
2280
2C60
ENDCHAR
STARTCHAR p4FA7
ENCODING 20391
SWIDTH 440 0
DWIDTH 13 0
BBX 11 12 0 -2
BITMAP
3E20
52A0
52A0
DAA0
5AA0
5AA0
5AA0
5AA0
5AA0
4C20
4A20
5160
ENDCHAR
STARTCHAR p4FA8
ENCODING 20392
SWIDTH 440 0
DWIDTH 13 0
BBX 11 12 0 -2
BITMAP
21C0
2E00
2200
5FE0
C500
4880
5060
4480
4480
4480
4880
5080
ENDCHAR
STARTCHAR p4FA9
ENCODING 20393
SWIDTH 440 0
DWIDTH 13 0
BBX 11 12 0 -2
BITMAP
1100
1280
2440
6820
A7C0
2000
2000
2FE0
2200
2240
24E0
2F20
ENDCHAR
STARTCHAR p4FAA
ENCODING 20394
SWIDTH 440 0
DWIDTH 13 0
BBX 11 12 0 -2
BITMAP
1100
1FE0
2440
6280
A100
2280
2C60
2280
2280
2280
2480
2880
ENDCHAR
STARTCHAR p4FAC
ENCODING 20396
SWIDTH 440 0
DWIDTH 13 0
BBX 11 12 0 -2
BITMAP
1100
1100
2FE0
2920
6100
A200
2520
2D40
3480
2480
2540
2620
ENDCHAR
STARTCHAR p4FAE
ENCODING 20398
SWIDTH 440 0
DWIDTH 13 0
BBX 11 12 0 -2
BITMAP
2800
2FE0
5000
4FC0
CA40
4940
7FE0
5240
5140
5FE0
4040
4180
ENDCHAR
STARTCHAR p4FAF
ENCODING 20399
SWIDTH 440 0
DWIDTH 13 0
BBX 11 12 0 -2
BITMAP
17C0
1040
2040
6FE0
A400
27C0
2900
2100
2FE0
2280
2440
2820
ENDCHAR
STARTCHAR p4FB5
ENCODING 20405
SWIDTH 440 0
DWIDTH 13 0
BBX 11 12 0 -2
BITMAP
2FC0
2040
2FC0
4040
CFC0
4000
5FE0
5020
4780
4480
4300
5CE0
ENDCHAR
STARTCHAR p4FBF
ENCODING 20415
SWIDTH 440 0
DWIDTH 13 0
BBX 11 12 0 -2
BITMAP
1FE0
1100
2FE0
2920
6FE0
A920
2920
2FE0
2100
2A00
2600
39E0
ENDCHAR
STARTCHAR p4FC3
ENCODING 20419
SWIDTH 440 0
DWIDTH 13 0
BBX 11 12 0 -2
BITMAP
17C0
2440
2440
6440
A7C0
2100
2500
25C0
2500
2500
2B00
31E0
ENDCHAR
STARTCHAR p4FC4
ENCODING 20420
SWIDTH 440 0
DWIDTH 13 0
BBX 11 12 0 -2
BITMAP
1280
2CC0
24A0
6480
AFE0
2480
24A0
26A0
3CC0
24A0
2560
2C20
ENDCHAR
STARTCHAR p4FC5
ENCODING 20421
SWIDTH 440 0
DWIDTH 13 0
BBX 11 12 0 -2
BITMAP
1140
1120
2100
2FE0
6100
A920
2540
2380
2540
2920
2100
2300
ENDCHAR
STARTCHAR p4FCA
ENCODING 20426
SWIDTH 440 0
DWIDTH 13 0
BBX 11 12 0 -2
BITMAP
1200
1280
2440
2FE0
6440
AA20
23C0
2440
2A80
2100
2280
2C60
ENDCHAR
STARTCHAR p4FCE
ENCODING 20430
SWIDTH 440 0
DWIDTH 13 0
BBX 11 12 0 -2
BITMAP
27C0
2440
2440
5440
8FC0
2440
2440
27C0
5440
4C40
8440
0FE0
ENDCHAR
STARTCHAR p4FCF
ENCODING 20431
SWIDTH 440 0
DWIDTH 13 0
BBX 11 12 0 -2
BITMAP
1100
1520
2340
6100
A7E0
2420
27E0
2420
27E0
2420
2420
2460
ENDCHAR
STARTCHAR p4FD0
ENCODING 20432
SWIDTH 440 0
DWIDTH 13 0
BBX 11 12 0 -2
BITMAP
2620
3C20
24A0
64A0
BFA0
24A0
2EA0
2DA0
34A0
2420
2420
24E0
ENDCHAR
STARTCHAR p4FD1
ENCODING 20433
SWIDTH 440 0
DWIDTH 13 0
BBX 11 12 0 -2
BITMAP
1FE0
1440
2280
2FE0
6920
AFE0
2920
2920
2FE0
2920
2920
2960
ENDCHAR
STARTCHAR p4FD7
ENCODING 20439
SWIDTH 440 0
DWIDTH 13 0
BBX 11 12 0 -2
BITMAP
1280
2440
2920
6280
A440
2820
27C0
2440
2440
2440
27C0
2440
ENDCHAR
STARTCHAR p4FD8
ENCODING 20440
SWIDTH 440 0
DWIDTH 13 0
BBX 11 12 0 -2
BITMAP
11E0
2E00
2920
6540
A000
27C0
2080
2100
2FE0
2100
2100
2700
ENDCHAR
STARTCHAR p4FDA
ENCODING 20442
SWIDTH 440 0
DWIDTH 13 0
BBX 11 12 0 -2
BITMAP
1000
1FC0
2A40
2FC0
6A40
AA40
2FC0
2200
2FC0
2200
2200
3FE0
ENDCHAR
STARTCHAR p4FDC
ENCODING 20444
SWIDTH 440 0
DWIDTH 13 0
BBX 11 12 0 -2
BITMAP
1200
1FC0
2A40
2FC0
6A40
AFC0
2000
2FE0
2400
27C0
2040
2180
ENDCHAR
STARTCHAR p4FDD
ENCODING 20445
SWIDTH 440 0
DWIDTH 13 0
BBX 11 12 0 -2
BITMAP
17C0
1440
2440
2440
67C0
A100
2FE0
2100
2380
2540
2920
2100
ENDCHAR
STARTCHAR p4FDE
ENCODING 20446
SWIDTH 440 0
DWIDTH 13 0
BBX 11 12 0 -2
BITMAP
0E00
1100
2080
DF60
0000
7840
4A40
7A40
4A40
7A40
4840
58C0
ENDCHAR
STARTCHAR p4FDF
ENCODING 20447
SWIDTH 440 0
DWIDTH 13 0
BBX 11 12 0 -2
BITMAP
1100
1200
2440
2FE0
6400
A7C0
2900
2FE0
2100
2280
2440
2820
ENDCHAR
STARTCHAR p4FE1
ENCODING 20449
SWIDTH 440 0
DWIDTH 13 0
BBX 11 12 0 -2
BITMAP
2200
3FE0
4000
CFC0
4000
4FC0
4000
4FC0
4840
4840
4FC0
4840
ENDCHAR
STARTCHAR p4FE3
ENCODING 20451
SWIDTH 440 0
DWIDTH 13 0
BBX 11 12 0 -2
BITMAP
17C0
1440
2440
27C0
6000
A7C0
2100
2100
2FE0
2280
2440
2820
ENDCHAR
STARTCHAR p4FE6
ENCODING 20454
SWIDTH 440 0
DWIDTH 13 0
BBX 11 12 0 -2
BITMAP
1100
2FE0
2100
6FC0
A200
2FE0
2240
2440
27E0
2A40
3140
20C0
ENDCHAR
STARTCHAR p4FE8
ENCODING 20456
SWIDTH 440 0
DWIDTH 13 0
BBX 11 12 0 -2
BITMAP
2FE0
2280
2AA0
46C0
4280
CFE0
4800
4800
4800
4800
5000
6000
ENDCHAR
STARTCHAR p4FE9
ENCODING 20457
SWIDTH 440 0
DWIDTH 13 0
BBX 11 12 0 -2
BITMAP
1000
2FE0
2280
6280
AFE0
2AA0
2AA0
2AA0
2DA0
2D60
2820
2860
ENDCHAR
STARTCHAR p4FEA
ENCODING 20458
SWIDTH 440 0
DWIDTH 13 0
BBX 11 12 0 -2
BITMAP
2000
2FE0
2000
6EE0
AAA0
2AA0
2AA0
2EE0
2AA0
2AA0
2AA0
2AA0
ENDCHAR
STARTCHAR p4FED
ENCODING 20461
SWIDTH 440 0
DWIDTH 13 0
BBX 11 12 0 -2
BITMAP
1100
2280
2440
6820
A7C0
2000
2940
2540
2540
2040
2080
2FE0
ENDCHAR
STARTCHAR p4FEE
ENCODING 20462
SWIDTH 440 0
DWIDTH 13 0
BBX 11 12 0 -2
BITMAP
2400
27E0
4A40
5180
D240
54A0
5100
5640
5180
5620
40C0
4700
ENDCHAR
STARTCHAR p4FEF
ENCODING 20463
SWIDTH 440 0
DWIDTH 13 0
BBX 11 12 0 -2
BITMAP
2100
3FE0
5000
5240
D440
5DE0
5440
5540
54C0
5440
5440
64C0
ENDCHAR
STARTCHAR p4FF1
ENCODING 20465
SWIDTH 440 0
DWIDTH 13 0
BBX 11 12 0 -2
BITMAP
17C0
2440
2440
67C0
A440
27C0
2440
2440
2FE0
2280
2440
2820
ENDCHAR
STARTCHAR p4FF3
ENCODING 20467
SWIDTH 440 0
DWIDTH 13 0
BBX 11 12 0 -2
BITMAP
1280
1280
2EE0
2280
6280
AEE0
2280
2280
2EE0
2280
2280
2280
ENDCHAR
STARTCHAR p4FF8
ENCODING 20472
SWIDTH 440 0
DWIDTH 13 0
BBX 11 12 0 -2
BITMAP
1200
1FE0
2200
2FC0
6400
BFE0
2A80
3740
2220
2FC0
2200
2200
ENDCHAR
STARTCHAR p4FFA
ENCODING 20474
SWIDTH 440 0
DWIDTH 13 0
BBX 11 12 0 -2
BITMAP
2200
2FE0
4500
4880
D260
4F80
4A80
4F80
4A80
4F80
4220
43E0
ENDCHAR
STARTCHAR p4FFE
ENCODING 20478
SWIDTH 440 0
DWIDTH 13 0
BBX 11 12 0 -2
BITMAP
2400
3FC0
5240
5FC0
D240
5240
5FC0
4500
4900
7FE0
4100
4100
ENDCHAR
STARTCHAR p500C
ENCODING 20492
SWIDTH 440 0
DWIDTH 13 0
BBX 11 12 0 -2
BITMAP
1100
2FE0
2820
67C0
A440
27C0
2400
27E0
2420
2420
27E0
2420
ENDCHAR
STARTCHAR p500D
ENCODING 20493
SWIDTH 440 0
DWIDTH 13 0
BBX 11 12 0 -2
BITMAP
1200
2FC0
2000
6880
A500
3FE0
2000
2FC0
2840
2840
2FC0
2840
ENDCHAR
STARTCHAR p500F
ENCODING 20495
SWIDTH 440 0
DWIDTH 13 0
BBX 11 12 0 -2
BITMAP
2400
27E0
4440
5A80
D180
5660
5100
5140
57E0
5280
4440
4820
ENDCHAR
STARTCHAR p5012
ENCODING 20498
SWIDTH 440 0
DWIDTH 13 0
BBX 11 12 0 -2
BITMAP
2020
3E20
48A0
52A0
DEA0
48A0
48A0
5EA0
48A0
4820
4E20
58E0
ENDCHAR
STARTCHAR p5014
ENCODING 20500
SWIDTH 440 0
DWIDTH 13 0
BBX 11 12 0 -2
BITMAP
1FE0
2820
2820
6FE0
A880
2AA0
2AA0
2BE0
2880
2AA0
32A0
23E0
ENDCHAR
STARTCHAR p5018
ENCODING 20504
SWIDTH 440 0
DWIDTH 13 0
BBX 11 12 0 -2
BITMAP
1100
2920
2540
6100
AFE0
2820
2BA0
2AA0
2AA0
2BA0
2820
2860
ENDCHAR
STARTCHAR p5019
ENCODING 20505
SWIDTH 440 0
DWIDTH 13 0
BBX 11 12 0 -2
BITMAP
27C0
2040
5040
5FE0
D400
57C0
5900
5100
5FE0
5280
4440
5820
ENDCHAR
STARTCHAR p501A
ENCODING 20506
SWIDTH 440 0
DWIDTH 13 0
BBX 11 12 0 -2
BITMAP
1200
2FC0
2500
6880
B040
3FE0
2040
2F40
2940
2F40
2840
20C0
ENDCHAR
STARTCHAR p501C
ENCODING 20508
SWIDTH 440 0
DWIDTH 13 0
BBX 11 12 0 -2
BITMAP
1FE0
2820
2920
6BA0
A920
2BA0
2820
2BA0
2AA0
2BA0
2820
3060
ENDCHAR
STARTCHAR p501F
ENCODING 20511
SWIDTH 440 0
DWIDTH 13 0
BBX 11 12 0 -2
BITMAP
2480
2FC0
4480
4480
DFE0
4000
4FC0
4840
4FC0
4840
4FC0
4840
ENDCHAR
STARTCHAR p5021
ENCODING 20513
SWIDTH 440 0
DWIDTH 13 0
BBX 11 12 0 -2
BITMAP
17C0
2440
27C0
6440
A7C0
2000
2FE0
2820
2FE0
2820
2FE0
2820
ENDCHAR
STARTCHAR p5025
ENCODING 20517
SWIDTH 440 0
DWIDTH 13 0
BBX 11 12 0 -2
BITMAP
1100
2FE0
2820
2AA0
6440
A820
2000
27C0
2100
2100
2100
2FE0
ENDCHAR
STARTCHAR p5026
ENCODING 20518
SWIDTH 440 0
DWIDTH 13 0
BBX 11 12 0 -2
BITMAP
2A40
2680
4FC0
4200
DFE0
4480
4840
57A0
4480
4580
4420
43E0
ENDCHAR
STARTCHAR p5028
ENCODING 20520
SWIDTH 440 0
DWIDTH 13 0
BBX 11 12 0 -2
BITMAP
2FC0
2840
2840
4FC0
4900
C900
4FE0
4900
4FC0
4C40
5440
57C0
ENDCHAR
STARTCHAR p5029
ENCODING 20521
SWIDTH 440 0
DWIDTH 13 0
BBX 11 12 0 -2
BITMAP
1100
2FE0
2100
67C0
A100
2FE0
2440
27C0
2440
27C0
2440
24C0
ENDCHAR
STARTCHAR p502A
ENCODING 20522
SWIDTH 440 0
DWIDTH 13 0
BBX 11 12 0 -2
BITMAP
1200
2DC0
2840
6DC0
A840
2840
2FC0
2500
2500
2520
2920
30E0
ENDCHAR
STARTCHAR p502C
ENCODING 20524
SWIDTH 440 0
DWIDTH 13 0
BBX 11 12 0 -2
BITMAP
1200
13E0
2200
2FC0
6840
AFC0
2840
2FC0
2200
3FE0
2200
2200
ENDCHAR
STARTCHAR p502D
ENCODING 20525
SWIDTH 440 0
DWIDTH 13 0
BBX 11 12 0 -2
BITMAP
23C0
2E00
2200
5FE0
4A80
D260
4400
5FE0
4880
4900
4700
58C0
ENDCHAR
STARTCHAR p502E
ENCODING 20526
SWIDTH 440 0
DWIDTH 13 0
BBX 11 12 0 -2
BITMAP
2FC0
2A40
4FC0
4A40
CA40
4FC0
4200
5FE0
4680
4A40
5220
4200
ENDCHAR
STARTCHAR p503A
ENCODING 20538
SWIDTH 440 0
DWIDTH 13 0
BBX 11 12 0 -2
BITMAP
1100
2FE0
2100
67C0
A100
2FE0
2000
27C0
2540
2540
2280
2C60
ENDCHAR
STARTCHAR p503C
ENCODING 20540
SWIDTH 440 0
DWIDTH 13 0
BBX 11 12 0 -2
BITMAP
1100
2FE0
2100
67C0
A440
27C0
2440
27C0
2440
27C0
2440
2FE0
ENDCHAR
STARTCHAR p503E
ENCODING 20542
SWIDTH 440 0
DWIDTH 13 0
BBX 11 12 0 -2
BITMAP
23E0
2080
5100
53E0
DA20
52A0
52A0
52A0
52A0
5A80
4140
4620
ENDCHAR
STARTCHAR p5043
ENCODING 20547
SWIDTH 440 0
DWIDTH 13 0
BBX 11 12 0 -2
BITMAP
1FE0
2800
2BC0
6A40
AAC0
2BC0
2900
2FE0
2A40
2980
2A40
2FE0
ENDCHAR
STARTCHAR p5047
ENCODING 20551
SWIDTH 440 0
DWIDTH 13 0
BBX 11 12 0 -2
BITMAP
3DC0
5440
5440
D440
5DC0
5000
5DC0
5140
5D40
5080
5140
5620
ENDCHAR
STARTCHAR p5048
ENCODING 20552
SWIDTH 440 0
DWIDTH 13 0
BBX 11 12 0 -2
BITMAP
17C0
1440
27C0
2440
67C0
A200
27E0
2D20
36A0
2420
27A0
20C0
ENDCHAR
STARTCHAR p504C
ENCODING 20556
SWIDTH 440 0
DWIDTH 13 0
BBX 11 12 0 -2
BITMAP
1480
1FE0
2480
2200
6FE0
A200
2400
2FC0
3440
2440
27C0
2440
ENDCHAR
STARTCHAR p504E
ENCODING 20558
SWIDTH 440 0
DWIDTH 13 0
BBX 11 12 0 -2
BITMAP
1FC0
2A40
2FC0
6A40
AFC0
2000
3FE0
2920
2940
2880
2A40
2C20
ENDCHAR
STARTCHAR p504F
ENCODING 20559
SWIDTH 440 0
DWIDTH 13 0
BBX 11 12 0 -2
BITMAP
2200
3FE0
5020
5FE0
D000
5FE0
5AA0
5AA0
5FE0
6AA0
6AA0
4860
ENDCHAR
STARTCHAR p5055
ENCODING 20565
SWIDTH 440 0
DWIDTH 13 0
BBX 11 12 0 -2
BITMAP
1480
16A0
24C0
26A0
6C60
A100
27C0
2440
27C0
2440
27C0
2440
ENDCHAR
STARTCHAR p505A
ENCODING 20570
SWIDTH 440 0
DWIDTH 13 0
BBX 11 12 0 -2
BITMAP
2900
2900
4900
5DE0
CA40
4940
5D40
5540
5480
5C80
5140
4620
ENDCHAR
STARTCHAR p505C
ENCODING 20572
SWIDTH 440 0
DWIDTH 13 0
BBX 11 12 0 -2
BITMAP
1100
2FE0
2000
67C0
A440
27C0
2000
2FE0
2820
27C0
2100
2300
ENDCHAR
STARTCHAR p5065
ENCODING 20581
SWIDTH 440 0
DWIDTH 13 0
BBX 11 12 0 -2
BITMAP
2100
3BC0
4940
4FE0
D140
5BC0
4900
4FC0
6900
57E0
5900
67E0
ENDCHAR
STARTCHAR p506C
ENCODING 20588
SWIDTH 440 0
DWIDTH 13 0
BBX 11 12 0 -2
BITMAP
2800
2FC0
5540
4D40
C740
49C0
5240
4580
4000
5A40
68A0
4780
ENDCHAR
STARTCHAR p5076
ENCODING 20598
SWIDTH 440 0
DWIDTH 13 0
BBX 11 12 0 -2
BITMAP
1FC0
2A40
2FC0
6A40
AA40
2FC0
2200
3FE0
32A0
37A0
3020
3060
ENDCHAR
STARTCHAR p5077
ENCODING 20599
SWIDTH 440 0
DWIDTH 13 0
BBX 11 12 0 -2
BITMAP
1100
1280
2440
2BA0
6000
AEA0
2AA0
2EA0
2AA0
2EA0
2A20
2A60
ENDCHAR
STARTCHAR p507B
ENCODING 20603
SWIDTH 440 0
DWIDTH 13 0
BBX 11 12 0 -2
BITMAP
2A40
2680
5FE0
4700
CA80
5260
4400
5FE0
4880
4500
4300
5CE0
ENDCHAR
STARTCHAR p507E
ENCODING 20606
SWIDTH 440 0
DWIDTH 13 0
BBX 11 12 0 -2
BITMAP
2200
2FC0
4200
C880
5FE0
4880
5FC0
5040
5240
5240
4500
58C0
ENDCHAR
STARTCHAR p507F
ENCODING 20607
SWIDTH 440 0
DWIDTH 13 0
BBX 11 12 0 -2
BITMAP
2920
2540
2FE0
6820
A820
27C0
2000
2FE0
2200
2200
2440
2FE0
ENDCHAR
STARTCHAR p5080
ENCODING 20608
SWIDTH 440 0
DWIDTH 13 0
BBX 11 12 0 -2
BITMAP
1400
2FC0
2A40
6FC0
AA40
2A40
2FC0
2500
2540
25E0
2920
31E0
ENDCHAR
STARTCHAR p5085
ENCODING 20613
SWIDTH 440 0
DWIDTH 13 0
BBX 11 12 0 -2
BITMAP
2280
3FE0
2A40
6FC0
AA40
2FC0
2A40
2080
3FE0
2880
2480
2180
ENDCHAR
STARTCHAR p5088
ENCODING 20616
SWIDTH 440 0
DWIDTH 13 0
BBX 11 12 0 -2
BITMAP
3FE0
2500
2500
5FC0
5540
D540
5FC0
4200
5FE0
4A80
5240
6220
ENDCHAR
STARTCHAR p508D
ENCODING 20621
SWIDTH 440 0
DWIDTH 13 0
BBX 11 12 0 -2
BITMAP
1100
2FE0
2440
6280
AFE0
2920
2FE0
2200
23E0
2220
2420
28C0
ENDCHAR
STARTCHAR p50A3
ENCODING 20643
SWIDTH 440 0
DWIDTH 13 0
BBX 11 12 0 -2
BITMAP
2200
3FE0
4200
4FC0
C400
5FE0
4880
7260
4A80
4700
5AC0
4600
ENDCHAR
STARTCHAR p50A5
ENCODING 20645
SWIDTH 440 0
DWIDTH 13 0
BBX 11 12 0 -2
BITMAP
2920
2540
2100
6FE0
A820
27C0
2440
27C0
2280
2280
24A0
2860
ENDCHAR
STARTCHAR p50A7
ENCODING 20647
SWIDTH 440 0
DWIDTH 13 0
BBX 11 12 0 -2
BITMAP
1100
2FE0
2820
67C0
A400
27E0
2480
2480
2FE0
2000
2240
2C20
ENDCHAR
STARTCHAR p50A8
ENCODING 20648
SWIDTH 440 0
DWIDTH 13 0
BBX 11 12 0 -2
BITMAP
2100
33C0
4920
4140
DBE0
4900
4BC0
4E40
4BC0
4E40
5BC0
4240
ENDCHAR
STARTCHAR p50A9
ENCODING 20649
SWIDTH 440 0
DWIDTH 13 0
BBX 11 12 0 -2
BITMAP
2120
2140
3DE0
4740
4540
D5E0
4940
49E0
5540
6540
41E0
4100
ENDCHAR
STARTCHAR p50AC
ENCODING 20652
SWIDTH 440 0
DWIDTH 13 0
BBX 11 12 0 -2
BITMAP
1520
2520
27E0
6240
A480
2FE0
3480
27E0
2480
27E0
2480
27E0
ENDCHAR
STARTCHAR p50B2
ENCODING 20658
SWIDTH 440 0
DWIDTH 13 0
BBX 11 12 0 -2
BITMAP
2880
3E80
4900
5DE0
CB40
5D40
5140
5D40
5480
5480
6540
4E20
ENDCHAR
STARTCHAR p50BA
ENCODING 20666
SWIDTH 440 0
DWIDTH 13 0
BBX 11 12 0 -2
BITMAP
2900
2DC0
5540
6D40
C880
5060
4700
4000
5FC0
4200
5240
6620
ENDCHAR
STARTCHAR p50BB
ENCODING 20667
SWIDTH 440 0
DWIDTH 13 0
BBX 11 12 0 -2
BITMAP
1100
2FE0
2AA0
6920
AAA0
2FE0
2440
2A20
27C0
2A40
2180
2E60
ENDCHAR
STARTCHAR p50CF
ENCODING 20687
SWIDTH 440 0
DWIDTH 13 0
BBX 11 12 0 -2
BITMAP
1200
2780
2880
7FE0
A920
2FE0
2500
2AA0
25C0
2AC0
24A0
2B00
ENDCHAR
STARTCHAR p50D6
ENCODING 20694
SWIDTH 440 0
DWIDTH 13 0
BBX 11 12 0 -2
BITMAP
1200
2FE0
2200
6FC0
A840
2FC0
2480
2FE0
2000
2FC0
2840
2FC0
ENDCHAR
STARTCHAR p50DA
ENCODING 20698
SWIDTH 440 0
DWIDTH 13 0
BBX 11 12 0 -2
BITMAP
2200
3FE0
5540
4880
CFC0
58A0
4F80
4880
4F80
4200
4A40
5620
ENDCHAR
STARTCHAR p50E6
ENCODING 20710
SWIDTH 440 0
DWIDTH 13 0
BBX 11 12 0 -2
BITMAP
3140
2920
5D00
43E0
DD00
5500
5D00
4980
6D80
6A80
4AA0
5C60
ENDCHAR
STARTCHAR p50E7
ENCODING 20711
SWIDTH 440 0
DWIDTH 13 0
BBX 11 12 0 -2
BITMAP
2880
4500
5FE0
D220
56A0
5FE0
4000
4FC0
4840
4FC0
4840
4FC0
ENDCHAR
STARTCHAR p50EC
ENCODING 20716
SWIDTH 440 0
DWIDTH 13 0
BBX 11 12 0 -2
BITMAP
2480
2900
4FE0
5900
CFC0
4900
4FC0
4900
4FE0
4000
5540
5520
ENDCHAR
STARTCHAR p50ED
ENCODING 20717
SWIDTH 440 0
DWIDTH 13 0
BBX 11 12 0 -2
BITMAP
2FE0
2440
5540
5FE0
C440
4AC0
5160
4FC0
4840
4FC0
4840
4FC0
ENDCHAR
STARTCHAR p50EE
ENCODING 20718
SWIDTH 440 0
DWIDTH 13 0
BBX 11 12 0 -2
BITMAP
2200
2FC0
4480
5FE0
C200
4FC0
4A40
4FC0
4A40
4FC0
4200
5FE0
ENDCHAR
STARTCHAR p50F3
ENCODING 20723
SWIDTH 440 0
DWIDTH 13 0
BBX 11 12 0 -2
BITMAP
3FE0
2500
3FC0
5540
D540
5FC0
5240
4A80
5FE0
4680
4A40
5220
ENDCHAR
STARTCHAR p50F5
ENCODING 20725
SWIDTH 440 0
DWIDTH 13 0
BBX 11 12 0 -2
BITMAP
3FE0
2A40
4FC0
4A40
CFC0
4000
5FE0
4FC0
4A40
4FC0
4A40
5FE0
ENDCHAR
STARTCHAR p50FB
ENCODING 20731
SWIDTH 440 0
DWIDTH 13 0
BBX 11 12 0 -2
BITMAP
3C80
37E0
5540
5540
DC80
53E0
5C80
7480
57E0
5480
5C80
5480
ENDCHAR
STARTCHAR p5106
ENCODING 20742
SWIDTH 440 0
DWIDTH 13 0
BBX 11 12 0 -2
BITMAP
3500
3500
5FE0
5540
D240
5D40
6540
5D40
5480
5C80
4540
5A20
ENDCHAR
STARTCHAR p5107
ENCODING 20743
SWIDTH 440 0
DWIDTH 13 0
BBX 11 12 0 -2
BITMAP
3FC0
3540
5540
5FC0
C000
7FE0
5040
5FC0
4A20
5940
6A80
4C60
ENDCHAR
STARTCHAR p510B
ENCODING 20747
SWIDTH 440 0
DWIDTH 13 0
BBX 11 12 0 -2
BITMAP
2780
2900
5FE0
5280
D540
5FE0
5000
57C0
5000
57C0
5440
67C0
ENDCHAR
STARTCHAR p5112
ENCODING 20754
SWIDTH 440 0
DWIDTH 13 0
BBX 11 12 0 -2
BITMAP
2FC0
2200
5FE0
5220
CEC0
4000
5FE0
4200
5FE0
5520
5520
5560
ENDCHAR
STARTCHAR p5121
ENCODING 20769
SWIDTH 440 0
DWIDTH 13 0
BBX 11 12 0 -2
BITMAP
3FC0
5240
5FC0
D240
5FC0
4000
7FE0
6AA0
7FE0
6AA0
7FE0
6220
ENDCHAR
STARTCHAR p513F
ENCODING 20799
SWIDTH 440 0
DWIDTH 13 0
BBX 11 12 0 -2
BITMAP
1200
1200
1200
1200
1200
1200
1200
1200
2200
2220
4220
81E0
ENDCHAR
STARTCHAR p5140
ENCODING 20800
SWIDTH 440 0
DWIDTH 13 0
BBX 11 12 0 -2
BITMAP
0000
FFE0
1100
1100
1100
1100
1100
1100
2100
2120
4120
80E0
ENDCHAR
STARTCHAR p5141
ENCODING 20801
SWIDTH 440 0
DWIDTH 13 0
BBX 11 12 0 -2
BITMAP
0800
0800
1100
2080
7FC0
1240
1200
1200
2200
2220
4220
81E0
ENDCHAR
STARTCHAR p5143
ENCODING 20803
SWIDTH 440 0
DWIDTH 13 0
BBX 11 12 0 -2
BITMAP
1F80
0000
0000
0000
7FE0
0900
0900
0900
1100
1120
2120
C0E0
ENDCHAR
STARTCHAR p5144
ENCODING 20804
SWIDTH 440 0
DWIDTH 13 0
BBX 11 12 0 -2
BITMAP
3FC0
2040
2040
2040
2040
3FC0
0900
0900
0900
1100
2120
C0E0
ENDCHAR
STARTCHAR p5145
ENCODING 20805
SWIDTH 440 0
DWIDTH 13 0
BBX 11 12 0 -2
BITMAP
0400
FFE0
0800
1100
2080
7FC0
1240
1200
1200
2220
2220
41E0
ENDCHAR
STARTCHAR p5146
ENCODING 20806
SWIDTH 440 0
DWIDTH 13 0
BBX 11 12 0 -2
BITMAP
0A00
0A00
4A40
2A80
1B00
0A00
3B00
CAC0
0A00
1200
2220
C1E0
ENDCHAR
STARTCHAR p5148
ENCODING 20808
SWIDTH 440 0
DWIDTH 13 0
BBX 11 12 0 -2
BITMAP
2400
2400
3FC0
4400
8400
FFE0
1100
1100
1100
1120
2120
C0E0
ENDCHAR
STARTCHAR p5149
ENCODING 20809
SWIDTH 440 0
DWIDTH 13 0
BBX 11 12 0 -2
BITMAP
0400
4440
2440
2480
0400
FFE0
1100
1100
1100
1100
2120
C0E0
ENDCHAR
STARTCHAR p514B
ENCODING 20811
SWIDTH 440 0
DWIDTH 13 0
BBX 11 12 0 -2
BITMAP
0400
0400
FFE0
0400
3F80
2080
2080
3F80
1200
1220
2220
C1E0
ENDCHAR
STARTCHAR p514D
ENCODING 20813
SWIDTH 440 0
DWIDTH 13 0
BBX 11 12 0 -2
BITMAP
2000
3F00
4200
8400
7FC0
4440
4440
7FC0
0A00
1220
2220
C1E0
ENDCHAR
STARTCHAR p5151
ENCODING 20817
SWIDTH 440 0
DWIDTH 13 0
BBX 11 12 0 -2
BITMAP
2100
1200
7F80
4080
4080
4080
7F80
1200
1200
1200
2220
C1E0
ENDCHAR
STARTCHAR p5154
ENCODING 20820
SWIDTH 440 0
DWIDTH 13 0
BBX 11 12 0 -2
BITMAP
1000
1F00
2200
7FC0
A440
2440
3FC0
2400
0A80
1240
2220
C1E0
ENDCHAR
STARTCHAR p5155
ENCODING 20821
SWIDTH 440 0
DWIDTH 13 0
BBX 11 12 0 -2
BITMAP
7BC0
4A40
4A40
4E40
4040
4040
7FC0
0A00
0A00
1220
2220
C1E0
ENDCHAR
STARTCHAR p5156
ENCODING 20822
SWIDTH 440 0
DWIDTH 13 0
BBX 11 12 0 -2
BITMAP
0400
FFE0
0000
2080
4840
9020
2080
7FC0
1100
1100
2120
C0E0
ENDCHAR
STARTCHAR p515A
ENCODING 20826
SWIDTH 440 0
DWIDTH 13 0
BBX 11 12 0 -2
BITMAP
4440
2480
FFE0
8020
BFA0
2080
2080
3F80
1200
1200
2220
C1E0
ENDCHAR
STARTCHAR p515C
ENCODING 20828
SWIDTH 440 0
DWIDTH 13 0
BBX 11 12 0 -2
BITMAP
2800
DEC0
9240
9E40
9240
B240
DEC0
0000
1200
1200
2220
C1E0
ENDCHAR
STARTCHAR p5162
ENCODING 20834
SWIDTH 440 0
DWIDTH 13 0
BBX 11 12 0 -2
BITMAP
2100
2100
FFE0
2100
FFC0
8C40
FFC0
5280
5280
5A80
94A0
0860
ENDCHAR
STARTCHAR p5165
ENCODING 20837
SWIDTH 440 0
DWIDTH 13 0
BBX 11 12 0 -2
BITMAP
0800
0400
0400
0200
0200
0500
0500
0880
1080
2040
4040
8020
ENDCHAR
STARTCHAR p5168
ENCODING 20840
SWIDTH 440 0
DWIDTH 13 0
BBX 11 12 0 -2
BITMAP
0400
0A00
1100
2080
DF60
0400
0400
1F00
0400
0400
0400
7FC0
ENDCHAR
STARTCHAR p516B
ENCODING 20843
SWIDTH 440 0
DWIDTH 13 0
BBX 11 12 0 -2
BITMAP
1200
1200
1200
1200
1200
1200
1200
2100
2100
4080
8040
0000
ENDCHAR
STARTCHAR p516C
ENCODING 20844
SWIDTH 440 0
DWIDTH 13 0
BBX 11 12 0 -2
BITMAP
1100
1100
2080
2080
4040
8820
0800
0800
1100
1080
23C0
7C40
ENDCHAR
STARTCHAR p516D
ENCODING 20845
SWIDTH 440 0
DWIDTH 13 0
BBX 11 12 0 -2
BITMAP
0800
0400
0000
FFE0
0000
0000
1200
1100
2080
2080
4040
8040
ENDCHAR
STARTCHAR p516E
ENCODING 20846
SWIDTH 440 0
DWIDTH 13 0
BBX 11 12 0 -2
BITMAP
1100
1100
2080
4040
BFA0
0800
1000
1F80
0080
0080
0080
0700
ENDCHAR
STARTCHAR p5170
ENCODING 20848
SWIDTH 440 0
DWIDTH 13 0
BBX 11 12 0 -2
BITMAP
2080
1080
1100
7FC0
0000
0000
0000
3F80
0000
0000
0000
FFE0
ENDCHAR
STARTCHAR p5171
ENCODING 20849
SWIDTH 440 0
DWIDTH 13 0
BBX 11 12 0 -2
BITMAP
1100
1100
1100
7FC0
1100
1100
1100
FFE0
0000
1100
2080
C060
ENDCHAR
STARTCHAR p5173
ENCODING 20851
SWIDTH 440 0
DWIDTH 13 0
BBX 11 12 0 -2
BITMAP
2080
1100
7FC0
0400
0400
0400
FFE0
0400
0A00
1100
2080
C060
ENDCHAR
STARTCHAR p5174
ENCODING 20852
SWIDTH 440 0
DWIDTH 13 0
BBX 11 12 0 -2
BITMAP
0800
4440
2440
2080
0100
0000
FFE0
0000
1100
2080
4040
8020
ENDCHAR
STARTCHAR p5175
ENCODING 20853
SWIDTH 440 0
DWIDTH 13 0
BBX 11 12 0 -2
BITMAP
01C0
3E00
2000
3FC0
2200
2200
2200
FFE0
0000
2080
4040
8020
ENDCHAR
STARTCHAR p5176
ENCODING 20854
SWIDTH 440 0
DWIDTH 13 0
BBX 11 12 0 -2
BITMAP
1100
7FC0
1100
1F00
1100
1F00
1100
1100
FFE0
0000
3180
C060
ENDCHAR
STARTCHAR p5177
ENCODING 20855
SWIDTH 440 0
DWIDTH 13 0
BBX 11 12 0 -2
BITMAP
3F80
2080
3F80
2080
3F80
2080
3F80
2080
FFE0
1100
2080
C060
ENDCHAR
STARTCHAR p5178
ENCODING 20856
SWIDTH 440 0
DWIDTH 13 0
BBX 11 12 0 -2
BITMAP
0A00
0A00
7FC0
4A40
4A40
7FC0
4A40
4A40
FFE0
1100
2080
C060
ENDCHAR
STARTCHAR p5179
ENCODING 20857
SWIDTH 440 0
DWIDTH 13 0
BBX 11 12 0 -2
BITMAP
2040
1080
FFE0
1100
2100
2A40
4A40
7380
1080
2940
4A20
7BE0
ENDCHAR
STARTCHAR p517B
ENCODING 20859
SWIDTH 440 0
DWIDTH 13 0
BBX 11 12 0 -2
BITMAP
1100
7FC0
0400
3F80
0400
FFE0
1100
2080
D160
1100
2100
4100
ENDCHAR
STARTCHAR p517C
ENCODING 20860
SWIDTH 440 0
DWIDTH 13 0
BBX 11 12 0 -2
BITMAP
2100
FFE0
1200
7F80
1280
FFE0
1280
7F80
1300
3280
5240
9220
ENDCHAR
STARTCHAR p517D
ENCODING 20861
SWIDTH 440 0
DWIDTH 13 0
BBX 11 12 0 -2
BITMAP
1100
7FC0
4440
7FC0
4440
7FC0
0000
FFE0
0000
3F80
2080
3F80
ENDCHAR
STARTCHAR p5180
ENCODING 20864
SWIDTH 440 0
DWIDTH 13 0
BBX 11 12 0 -2
BITMAP
0A60
FB80
0A20
FFE0
4440
7FC0
4440
FFE0
1100
FFE0
2080
C060
ENDCHAR
STARTCHAR p5181
ENCODING 20865
SWIDTH 440 0
DWIDTH 13 0
BBX 11 12 0 -2
BITMAP
8FE0
5420
FFE0
AC00
FD40
AFE0
FD40
27E0
FE80
26A0
2B40
2A20
ENDCHAR
STARTCHAR p5182
ENCODING 20866
SWIDTH 440 0
DWIDTH 13 0
BBX 11 12 0 -2
BITMAP
FFE0
8020
8020
8020
8020
8020
8020
8020
8020
8020
8020
8060
ENDCHAR
STARTCHAR p5185
ENCODING 20869
SWIDTH 440 0
DWIDTH 13 0
BBX 11 12 0 -2
BITMAP
0400
0400
7FE0
4420
4420
4420
4A20
5120
60A0
4020
4020
40E0
ENDCHAR
STARTCHAR p5188
ENCODING 20872
SWIDTH 440 0
DWIDTH 13 0
BBX 11 12 0 -2
BITMAP
7FE0
4020
4020
60A0
5120
4A20
4420
4A20
5120
60A0
4020
40E0
ENDCHAR
STARTCHAR p5189
ENCODING 20873
SWIDTH 440 0
DWIDTH 13 0
BBX 11 12 0 -2
BITMAP
0400
0400
7FC0
4440
4440
7FC0
4440
4440
FFE0
4040
4040
40C0
ENDCHAR
STARTCHAR p518C
ENCODING 20876
SWIDTH 440 0
DWIDTH 13 0
BBX 11 12 0 -2
BITMAP
7BC0
4A40
4A40
4A40
4A40
FFE0
4A40
4A40
4A40
4A40
8A40
9CC0
ENDCHAR
STARTCHAR p518D
ENCODING 20877
SWIDTH 440 0
DWIDTH 13 0
BBX 11 12 0 -2
BITMAP
FFE0
0400
7FC0
4440
4440
7FC0
4440
4440
FFE0
4040
4040
41C0
ENDCHAR
STARTCHAR p5192
ENCODING 20882
SWIDTH 440 0
DWIDTH 13 0
BBX 11 12 0 -2
BITMAP
7FE0
4020
5E20
43A0
4020
3FC0
2040
3FC0
2040
3FC0
2040
3FC0
ENDCHAR
STARTCHAR p5195
ENCODING 20885
SWIDTH 440 0
DWIDTH 13 0
BBX 11 12 0 -2
BITMAP
7FC0
4040
5F40
4040
3F00
2200
7FC0
A440
3FC0
0A00
1220
E1E0
ENDCHAR
STARTCHAR p5196
ENCODING 20886
SWIDTH 440 0
DWIDTH 13 0
BBX 11 12 0 -2
BITMAP
0000
0000
0000
0000
FFE0
8020
8020
0000
0000
0000
0000
0000
ENDCHAR
STARTCHAR p5197
ENCODING 20887
SWIDTH 440 0
DWIDTH 13 0
BBX 11 12 0 -2
BITMAP
0000
FFE0
8020
8020
1F00
1100
1100
1100
1100
1120
2120
C0E0
ENDCHAR
STARTCHAR p5199
ENCODING 20889
SWIDTH 440 0
DWIDTH 13 0
BBX 11 12 0 -2
BITMAP
FFE0
8020
A020
3FC0
2000
2000
3FC0
0040
0040
FF40
0040
0380
ENDCHAR
STARTCHAR p519B
ENCODING 20891
SWIDTH 440 0
DWIDTH 13 0
BBX 11 12 0 -2
BITMAP
FFE0
8420
8820
7FC0
1000
2200
3FC0
0200
0200
FFE0
0200
0200
ENDCHAR
STARTCHAR p519C
ENCODING 20892
SWIDTH 440 0
DWIDTH 13 0
BBX 11 12 0 -2
BITMAP
0400
FFE0
8420
8820
0800
1440
2480
6300
A200
2100
2C80
3060
ENDCHAR
STARTCHAR p51A0
ENCODING 20896
SWIDTH 440 0
DWIDTH 13 0
BBX 11 12 0 -2
BITMAP
FFE0
8020
7080
0080
07E0
F880
5480
5280
5080
51A0
5020
8FE0
ENDCHAR
STARTCHAR p51A2
ENCODING 20898
SWIDTH 440 0
DWIDTH 13 0
BBX 11 12 0 -2
BITMAP
FFE0
8020
BFA0
0400
1800
6440
0A80
3700
CA80
3280
C240
0C00
ENDCHAR
STARTCHAR p51A4
ENCODING 20900
SWIDTH 440 0
DWIDTH 13 0
BBX 11 12 0 -2
BITMAP
FFE0
9020
9F20
2200
7F80
A480
2480
3F80
2B00
1280
2220
C1E0
ENDCHAR
STARTCHAR p51A5
ENCODING 20901
SWIDTH 440 0
DWIDTH 13 0
BBX 11 12 0 -2
BITMAP
FFE0
8020
BFA0
2080
3F80
2080
3F80
0400
FFE0
1100
2080
C060
ENDCHAR
STARTCHAR p51AB
ENCODING 20907
SWIDTH 440 0
DWIDTH 13 0
BBX 11 12 0 -2
BITMAP
0000
0800
0400
0200
0000
0000
0000
0100
0200
0400
0800
0000
ENDCHAR
STARTCHAR p51AC
ENCODING 20908
SWIDTH 440 0
DWIDTH 13 0
BBX 11 12 0 -2
BITMAP
1000
1FC0
3080
4900
0600
0900
3080
CC60
0300
0000
1E00
01C0
ENDCHAR
STARTCHAR p51AF
ENCODING 20911
SWIDTH 440 0
DWIDTH 13 0
BBX 11 12 0 -2
BITMAP
8FC0
4040
2440
0440
0440
2400
27E0
2020
4020
4FA0
8020
01C0
ENDCHAR
STARTCHAR p51B0
ENCODING 20912
SWIDTH 440 0
DWIDTH 13 0
BBX 11 12 0 -2
BITMAP
8200
4200
0220
3A40
0A80
4B00
4B00
4A80
9280
9240
A220
0E00
ENDCHAR
STARTCHAR p51B1
ENCODING 20913
SWIDTH 440 0
DWIDTH 13 0
BBX 11 12 0 -2
BITMAP
9FE0
4400
2400
07C0
0840
2840
2840
4840
4F80
8080
8080
1FE0
ENDCHAR
STARTCHAR p51B2
ENCODING 20914
SWIDTH 440 0
DWIDTH 13 0
BBX 11 12 0 -2
BITMAP
8100
4100
2FE0
0920
0920
0920
2920
2FE0
2920
4100
4100
8100
ENDCHAR
STARTCHAR p51B3
ENCODING 20915
SWIDTH 440 0
DWIDTH 13 0
BBX 11 12 0 -2
BITMAP
0200
8200
4FC0
2240
0240
0240
5FE0
4200
4500
8480
8840
3020
ENDCHAR
STARTCHAR p51B5
ENCODING 20917
SWIDTH 440 0
DWIDTH 13 0
BBX 11 12 0 -2
BITMAP
8FC0
4840
2840
0840
0840
0FC0
2500
2500
4900
4920
9120
20E0
ENDCHAR
STARTCHAR p51B6
ENCODING 20918
SWIDTH 440 0
DWIDTH 13 0
BBX 11 12 0 -2
BITMAP
8200
4200
2480
0840
1FE0
0000
2FC0
2840
4840
4840
8FC0
0840
ENDCHAR
STARTCHAR p51B7
ENCODING 20919
SWIDTH 440 0
DWIDTH 13 0
BBX 11 12 0 -2
BITMAP
0200
4300
2480
0840
1220
0100
4FE0
4040
4880
8500
8200
0100
ENDCHAR
STARTCHAR p51BB
ENCODING 20923
SWIDTH 440 0
DWIDTH 13 0
BBX 11 12 0 -2
BITMAP
0200
8200
5FE0
2400
0500
0900
5FE0
4100
4540
8920
9120
0700
ENDCHAR
STARTCHAR p51BC
ENCODING 20924
SWIDTH 440 0
DWIDTH 13 0
BBX 11 12 0 -2
BITMAP
0100
8900
4FC0
0900
1100
0100
2FE0
2280
4280
44A0
88A0
1060
ENDCHAR
STARTCHAR p51BD
ENCODING 20925
SWIDTH 440 0
DWIDTH 13 0
BBX 11 12 0 -2
BITMAP
1F20
8820
48A0
4EA0
12A0
12A0
2AA0
0AA0
44A0
4420
8820
9060
ENDCHAR
STARTCHAR p51C0
ENCODING 20928
SWIDTH 440 0
DWIDTH 13 0
BBX 11 12 0 -2
BITMAP
0400
8F80
5100
4FC0
0240
1FE0
4240
4240
4FC0
8200
8200
0E00
ENDCHAR
STARTCHAR p51C4
ENCODING 20932
SWIDTH 440 0
DWIDTH 13 0
BBX 11 12 0 -2
BITMAP
0200
9FE0
4240
3FE0
0240
5FC0
4200
5FE0
4480
8900
8700
38E0
ENDCHAR
STARTCHAR p51C6
ENCODING 20934
SWIDTH 440 0
DWIDTH 13 0
BBX 11 12 0 -2
BITMAP
0480
8500
4FE0
1900
2900
0FC0
4900
4FC0
4900
8900
8FE0
0800
ENDCHAR
STARTCHAR p51C7
ENCODING 20935
SWIDTH 440 0
DWIDTH 13 0
BBX 11 12 0 -2
BITMAP
0840
8940
4940
3D20
0A20
4880
5C80
5900
A940
A920
8BE0
0820
ENDCHAR
STARTCHAR p51C9
ENCODING 20937
SWIDTH 440 0
DWIDTH 13 0
BBX 11 12 0 -2
BITMAP
0400
8200
5FE0
0000
0FC0
0840
4840
4FC0
4200
8A80
9240
2620
ENDCHAR
STARTCHAR p51CB
ENCODING 20939
SWIDTH 440 0
DWIDTH 13 0
BBX 11 12 0 -2
BITMAP
8FE0
4820
2920
0BA0
0920
2BA0
2820
4BA0
4AA0
8BA0
1020
1060
ENDCHAR
STARTCHAR p51CC
ENCODING 20940
SWIDTH 440 0
DWIDTH 13 0
BBX 11 12 0 -2
BITMAP
0200
8FC0
4200
4200
1FE0
0880
5460
4780
4C80
9300
8480
1860
ENDCHAR
STARTCHAR p51CF
ENCODING 20943
SWIDTH 440 0
DWIDTH 13 0
BBX 11 12 0 -2
BITMAP
0140
8120
5FE0
5100
1D00
1140
5D40
5540
5580
9C80
A1A0
2260
ENDCHAR
STARTCHAR p51D1
ENCODING 20945
SWIDTH 440 0
DWIDTH 13 0
BBX 11 12 0 -2
BITMAP
0200
9FC0
4200
5FC0
0400
3FE0
0880
5740
6220
5FC0
8500
98C0
ENDCHAR
STARTCHAR p51DB
ENCODING 20955
SWIDTH 440 0
DWIDTH 13 0
BBX 11 12 0 -2
BITMAP
8200
BFE0
4000
5FC0
1540
1540
5FC0
4000
7FE0
8A80
9240
2620
ENDCHAR
STARTCHAR p51DD
ENCODING 20957
SWIDTH 440 0
DWIDTH 13 0
BBX 11 12 0 -2
BITMAP
2BE0
B020
6540
1C80
23E0
38A0
5080
9280
FEE0
9280
AB80
44E0
ENDCHAR
STARTCHAR p51E0
ENCODING 20960
SWIDTH 440 0
DWIDTH 13 0
BBX 11 12 0 -2
BITMAP
1F00
1100
1100
1100
1100
1100
1100
1100
2100
2120
4120
80E0
ENDCHAR
STARTCHAR p51E1
ENCODING 20961
SWIDTH 440 0
DWIDTH 13 0
BBX 11 12 0 -2
BITMAP
1F00
1100
1100
1100
1900
1500
1500
1100
2100
2120
4120
80E0
ENDCHAR
STARTCHAR p51E4
ENCODING 20964
SWIDTH 440 0
DWIDTH 13 0
BBX 11 12 0 -2
BITMAP
3F80
2080
2080
2F80
2180
2980
2A80
2480
2A80
5180
40A0
8060
ENDCHAR
STARTCHAR p51EB
ENCODING 20971
SWIDTH 440 0
DWIDTH 13 0
BBX 11 12 0 -2
BITMAP
0800
7F80
5080
4D00
4000
7FC0
0040
3E40
2380
2200
4220
81E0
ENDCHAR
STARTCHAR p51ED
ENCODING 20973
SWIDTH 440 0
DWIDTH 13 0
BBX 11 12 0 -2
BITMAP
11C0
2700
6100
AFE0
2100
2100
27C0
0000
1F00
1100
2120
C0E0
ENDCHAR
STARTCHAR p51EF
ENCODING 20975
SWIDTH 440 0
DWIDTH 13 0
BBX 11 12 0 -2
BITMAP
2000
AB80
AA80
FA80
0280
FA80
0A80
FA80
8280
8480
B4A0
C860
ENDCHAR
STARTCHAR p51F0
ENCODING 20976
SWIDTH 440 0
DWIDTH 13 0
BBX 11 12 0 -2
BITMAP
7F80
4880
5E80
5280
5E80
5280
5E80
4880
5E80
48A0
BF60
8020
ENDCHAR
STARTCHAR p51F3
ENCODING 20979
SWIDTH 440 0
DWIDTH 13 0
BBX 11 12 0 -2
BITMAP
7280
9F40
6080
BF60
2100
3F00
1200
FFE0
0000
3E00
2240
C3C0
ENDCHAR
STARTCHAR p51F5
ENCODING 20981
SWIDTH 440 0
DWIDTH 13 0
BBX 11 12 0 -2
BITMAP
0000
4020
4020
4020
4020
4020
4020
4020
4020
4020
7FE0
4020
ENDCHAR
STARTCHAR p51F6
ENCODING 20982
SWIDTH 440 0
DWIDTH 13 0
BBX 11 12 0 -2
BITMAP
0080
2080
9120
8A20
8420
8A20
9120
A0A0
80A0
8020
FFE0
8020
ENDCHAR
STARTCHAR p51F8
ENCODING 20984
SWIDTH 440 0
DWIDTH 13 0
BBX 11 12 0 -2
BITMAP
1F00
1100
1100
1100
F1E0
8020
8020
8020
8020
8020
FFE0
8020
ENDCHAR
STARTCHAR p51F9
ENCODING 20985
SWIDTH 440 0
DWIDTH 13 0
BBX 11 12 0 -2
BITMAP
0000
79E0
4920
4920
4920
4F20
4020
4020
4020
4020
7FE0
4020
ENDCHAR
STARTCHAR p51FA
ENCODING 20986
SWIDTH 440 0
DWIDTH 13 0
BBX 11 12 0 -2
BITMAP
0400
4440
4440
4440
4440
7FC0
0400
8420
8420
8420
8420
FFE0
ENDCHAR
STARTCHAR p51FB
ENCODING 20987
SWIDTH 440 0
DWIDTH 13 0
BBX 11 12 0 -2
BITMAP
0400
0400
7FC0
0400
0400
FFE0
0400
4440
4440
4440
7FC0
4040
ENDCHAR
STARTCHAR p51FC
ENCODING 20988
SWIDTH 440 0
DWIDTH 13 0
BBX 11 12 0 -2
BITMAP
0200
0240
5AA0
4B20
4B20
52A0
52A0
6260
4E20
4020
7FE0
4020
ENDCHAR
STARTCHAR p51FD
ENCODING 20989
SWIDTH 440 0
DWIDTH 13 0
BBX 11 12 0 -2
BITMAP
3FC0
0080
0100
1280
4B20
4220
4B20
52A0
4620
4020
7FE0
4020
ENDCHAR
STARTCHAR p51FF
ENCODING 20991
SWIDTH 440 0
DWIDTH 13 0
BBX 11 12 0 -2
BITMAP
9120
5140
1100
FFE0
0000
4A40
5F40
4440
5F40
4440
4440
7FC0
ENDCHAR
STARTCHAR p5200
ENCODING 20992
SWIDTH 440 0
DWIDTH 13 0
BBX 11 12 0 -2
BITMAP
0000
3FE0
0420
0420
0420
0420
0420
0820
0820
1020
2120
C0C0
ENDCHAR
STARTCHAR p5201
ENCODING 20993
SWIDTH 440 0
DWIDTH 13 0
BBX 11 12 0 -2
BITMAP
0000
7FE0
0020
0020
0120
0220
0420
0820
3020
C020
0240
0180
ENDCHAR
STARTCHAR p5202
ENCODING 20994
SWIDTH 440 0
DWIDTH 13 0
BBX 11 12 0 -2
BITMAP
0100
1100
1100
1100
1100
1100
1100
1100
1100
1100
0100
0300
ENDCHAR
STARTCHAR p5203
ENCODING 20995
SWIDTH 440 0
DWIDTH 13 0
BBX 11 12 0 -2
BITMAP
0000
3FE0
0420
0420
2420
2420
4420
4820
0820
1020
2020
C1C0
ENDCHAR
STARTCHAR p5206
ENCODING 20998
SWIDTH 440 0
DWIDTH 13 0
BBX 11 12 0 -2
BITMAP
1100
1100
2080
4040
8020
3F80
0880
0880
0880
1080
2080
C300
ENDCHAR
STARTCHAR p5207
ENCODING 20999
SWIDTH 440 0
DWIDTH 13 0
BBX 11 12 0 -2
BITMAP
2000
27E0
2120
F920
2120
2120
2120
2120
2A20
3220
2420
08C0
ENDCHAR
STARTCHAR p5208
ENCODING 21000
SWIDTH 440 0
DWIDTH 13 0
BBX 11 12 0 -2
BITMAP
0420
4420
4520
2920
2920
1120
1120
2920
2920
4420
8420
0060
ENDCHAR
STARTCHAR p520A
ENCODING 21002
SWIDTH 440 0
DWIDTH 13 0
BBX 11 12 0 -2
BITMAP
7C20
1020
1120
1120
1120
FD20
1120
1120
1120
1020
1020
10E0
ENDCHAR
STARTCHAR p520D
ENCODING 21005
SWIDTH 440 0
DWIDTH 13 0
BBX 11 12 0 -2
BITMAP
0800
1FC0
2040
C080
3FE0
0020
0020
3FE0
0020
0020
7FE0
0020
ENDCHAR
STARTCHAR p520E
ENCODING 21006
SWIDTH 440 0
DWIDTH 13 0
BBX 11 12 0 -2
BITMAP
4020
40A0
7EA0
AAA0
2AA0
4AA0
52A0
92A0
22A0
4220
8220
0CE0
ENDCHAR
STARTCHAR p5211
ENCODING 21009
SWIDTH 440 0
DWIDTH 13 0
BBX 11 12 0 -2
BITMAP
7E20
2420
24A0
24A0
24A0
FEA0
24A0
24A0
24A0
2420
4420
8460
ENDCHAR
STARTCHAR p5212
ENCODING 21010
SWIDTH 440 0
DWIDTH 13 0
BBX 11 12 0 -2
BITMAP
2820
2420
20A0
3EA0
E0A0
22A0
24A0
18A0
10A0
2A20
4620
82E0
ENDCHAR
STARTCHAR p5216
ENCODING 21014
SWIDTH 440 0
DWIDTH 13 0
BBX 11 12 0 -2
BITMAP
7C20
4520
4520
7D20
4520
4520
4520
7D20
4520
4520
8420
8C60
ENDCHAR
STARTCHAR p5217
ENCODING 21015
SWIDTH 440 0
DWIDTH 13 0
BBX 11 12 0 -2
BITMAP
0020
FC20
2120
2120
3D20
4520
A920
2920
1120
2120
4020
80E0
ENDCHAR
STARTCHAR p5218
ENCODING 21016
SWIDTH 440 0
DWIDTH 13 0
BBX 11 12 0 -2
BITMAP
2020
1020
FD20
0920
8920
4920
2920
1120
1120
2820
4420
84E0
ENDCHAR
STARTCHAR p5219
ENCODING 21017
SWIDTH 440 0
DWIDTH 13 0
BBX 11 12 0 -2
BITMAP
7C20
4420
54A0
54A0
54A0
54A0
54A0
54A0
54A0
2820
4420
8260
ENDCHAR
STARTCHAR p521A
ENCODING 21018
SWIDTH 440 0
DWIDTH 13 0
BBX 11 12 0 -2
BITMAP
FE20
82A0
82A0
C6A0
AAA0
92A0
92A0
AAA0
C6A0
8220
8220
8EE0
ENDCHAR
STARTCHAR p521B
ENCODING 21019
SWIDTH 440 0
DWIDTH 13 0
BBX 11 12 0 -2
BITMAP
1020
2820
44A0
82A0
7CA0
44A0
44A0
44A0
5CA0
4020
4220
3EE0
ENDCHAR
STARTCHAR p521D
ENCODING 21021
SWIDTH 440 0
DWIDTH 13 0
BBX 11 12 0 -2
BITMAP
4000
27E0
F920
1120
2120
2920
7120
A920
2220
2220
2420
28C0
ENDCHAR
STARTCHAR p5220
ENCODING 21024
SWIDTH 440 0
DWIDTH 13 0
BBX 11 12 0 -2
BITMAP
EE20
AAA0
AAA0
AAA0
AAA0
FFA0
AAA0
AAA0
AAA0
AAA0
AA20
B660
ENDCHAR
STARTCHAR p5224
ENCODING 21028
SWIDTH 440 0
DWIDTH 13 0
BBX 11 12 0 -2
BITMAP
1020
9220
5520
1120
7D20
1120
1120
FD20
1120
1020
2020
C0E0
ENDCHAR
STARTCHAR p5228
ENCODING 21032
SWIDTH 440 0
DWIDTH 13 0
BBX 11 12 0 -2
BITMAP
4020
7E20
82A0
7AA0
4AA0
4AA0
7AA0
42A0
4CA0
4020
4220
3EE0
ENDCHAR
STARTCHAR p5229
ENCODING 21033
SWIDTH 440 0
DWIDTH 13 0
BBX 11 12 0 -2
BITMAP
0C20
7020
1120
1120
FD20
1120
3120
3920
5520
5020
9020
10E0
ENDCHAR
STARTCHAR p522B
ENCODING 21035
SWIDTH 440 0
DWIDTH 13 0
BBX 11 12 0 -2
BITMAP
7C20
4520
4520
7D20
0120
2120
7D20
2520
2520
2420
4420
98E0
ENDCHAR
STARTCHAR p522D
ENCODING 21037
SWIDTH 440 0
DWIDTH 13 0
BBX 11 12 0 -2
BITMAP
7C20
08A0
10A0
28A0
C6A0
00A0
7CA0
10A0
10A0
1020
FE20
0060
ENDCHAR
STARTCHAR p522E
ENCODING 21038
SWIDTH 440 0
DWIDTH 13 0
BBX 11 12 0 -2
BITMAP
0E20
F0A0
10A0
FEA0
10A0
10A0
7EA0
42A0
42A0
4220
7E20
42E0
ENDCHAR
STARTCHAR p5230
ENCODING 21040
SWIDTH 440 0
DWIDTH 13 0
BBX 11 12 0 -2
BITMAP
FC20
2120
2920
4520
FD20
1520
1120
7D20
1120
1120
1C20
F0E0
ENDCHAR
STARTCHAR p5233
ENCODING 21043
SWIDTH 440 0
DWIDTH 13 0
BBX 11 12 0 -2
BITMAP
1020
FEA0
28A0
44A0
BAA0
00A0
FEA0
20A0
3CA0
0420
0420
3860
ENDCHAR
STARTCHAR p5236
ENCODING 21046
SWIDTH 440 0
DWIDTH 13 0
BBX 11 12 0 -2
BITMAP
1020
5020
7EA0
90A0
10A0
FEA0
10A0
7EA0
52A0
5220
5620
1060
ENDCHAR
STARTCHAR p5237
ENCODING 21047
SWIDTH 440 0
DWIDTH 13 0
BBX 11 12 0 -2
BITMAP
7E20
4220
42A0
7EA0
40A0
48A0
7EA0
6AA0
6AA0
6A20
AE20
8860
ENDCHAR
STARTCHAR p5238
ENCODING 21048
SWIDTH 440 0
DWIDTH 13 0
BBX 11 12 0 -2
BITMAP
2480
1500
0400
7FC0
0800
FFE0
1100
2080
DFE0
0880
1080
6300
ENDCHAR
STARTCHAR p5239
ENCODING 21049
SWIDTH 440 0
DWIDTH 13 0
BBX 11 12 0 -2
BITMAP
4220
24A0
18A0
24A0
42A0
10A0
FEA0
10A0
54A0
9220
1020
30E0
ENDCHAR
STARTCHAR p523A
ENCODING 21050
SWIDTH 440 0
DWIDTH 13 0
BBX 11 12 0 -2
BITMAP
1020
1020
FEA0
10A0
7CA0
54A0
54A0
5CA0
30A0
5820
9620
10E0
ENDCHAR
STARTCHAR p523B
ENCODING 21051
SWIDTH 440 0
DWIDTH 13 0
BBX 11 12 0 -2
BITMAP
1020
FF20
10A0
24A0
44A0
78A0
12A0
24A0
C8A0
1420
2220
C160
ENDCHAR
STARTCHAR p523D
ENCODING 21053
SWIDTH 440 0
DWIDTH 13 0
BBX 11 12 0 -2
BITMAP
0820
14A0
22A0
41A0
BCA0
00A0
7EA0
10A0
12A0
2220
7F20
0160
ENDCHAR
STARTCHAR p523F
ENCODING 21055
SWIDTH 440 0
DWIDTH 13 0
BBX 11 12 0 -2
BITMAP
1020
9220
92A0
FEA0
00A0
40A0
7CA0
44A0
A8A0
1020
2020
C060
ENDCHAR
STARTCHAR p5240
ENCODING 21056
SWIDTH 440 0
DWIDTH 13 0
BBX 11 12 0 -2
BITMAP
2020
A420
A520
FD20
0120
F920
0920
F920
8120
8020
9820
E0E0
ENDCHAR
STARTCHAR p5241
ENCODING 21057
SWIDTH 440 0
DWIDTH 13 0
BBX 11 12 0 -2
BITMAP
7820
48A0
48A0
4AA0
86A0
10A0
FEA0
10A0
38A0
54A0
9220
1060
ENDCHAR
STARTCHAR p5242
ENCODING 21058
SWIDTH 440 0
DWIDTH 13 0
BBX 11 12 0 -2
BITMAP
0820
FF20
42A0
24A0
18A0
24A0
C3A0
24A0
24A0
2420
4420
8460
ENDCHAR
STARTCHAR p5243
ENCODING 21059
SWIDTH 440 0
DWIDTH 13 0
BBX 11 12 0 -2
BITMAP
4420
28A0
FEA0
12A0
7EA0
50A0
50A0
7EA0
32A0
5220
9C20
1060
ENDCHAR
STARTCHAR p524A
ENCODING 21066
SWIDTH 440 0
DWIDTH 13 0
BBX 11 12 0 -2
BITMAP
9220
5420
10A0
FEA0
82A0
82A0
FEA0
82A0
FEA0
8220
8220
8660
ENDCHAR
STARTCHAR p524C
ENCODING 21068
SWIDTH 440 0
DWIDTH 13 0
BBX 11 12 0 -2
BITMAP
1020
FE20
10A0
7CA0
54A0
54A0
7CA0
10A0
38A0
5420
9220
10E0
ENDCHAR
STARTCHAR p524D
ENCODING 21069
SWIDTH 440 0
DWIDTH 13 0
BBX 11 12 0 -2
BITMAP
2080
1100
FFE0
0000
7840
4A40
7A40
4A40
7A40
4A40
4840
58C0
ENDCHAR
STARTCHAR p5250
ENCODING 21072
SWIDTH 440 0
DWIDTH 13 0
BBX 11 12 0 -2
BITMAP
7C20
44A0
44A0
7CA0
10A0
FEA0
92A0
92A0
AAA0
C620
8220
8660
ENDCHAR
STARTCHAR p5251
ENCODING 21073
SWIDTH 440 0
DWIDTH 13 0
BBX 11 12 0 -2
BITMAP
1020
2820
44A0
BAA0
00A0
24A0
94A0
54A0
44A0
0820
FE20
00E0
ENDCHAR
STARTCHAR p5254
ENCODING 21076
SWIDTH 440 0
DWIDTH 13 0
BBX 11 12 0 -2
BITMAP
7E20
42A0
7EA0
42A0
7EA0
20A0
7EA0
96A0
2AA0
D220
2220
CC60
ENDCHAR
STARTCHAR p5256
ENCODING 21078
SWIDTH 440 0
DWIDTH 13 0
BBX 11 12 0 -2
BITMAP
1020
FEA0
00A0
44A0
28A0
FEA0
00A0
7CA0
44A0
4420
7C20
44E0
ENDCHAR
STARTCHAR p525C
ENCODING 21084
SWIDTH 440 0
DWIDTH 13 0
BBX 11 12 0 -2
BITMAP
1020
FE20
82A0
00A0
8EA0
EAA0
AAA0
ACA0
68A0
2A20
4C20
8860
ENDCHAR
STARTCHAR p525E
ENCODING 21086
SWIDTH 440 0
DWIDTH 13 0
BBX 11 12 0 -2
BITMAP
1020
FEA0
28A0
44A0
00A0
FEA0
04A0
74A0
54A0
7420
4420
0C60
ENDCHAR
STARTCHAR p5261
ENCODING 21089
SWIDTH 440 0
DWIDTH 13 0
BBX 11 12 0 -2
BITMAP
1020
52A0
94A0
30A0
48A0
84A0
10A0
52A0
94A0
2820
4420
8260
ENDCHAR
STARTCHAR p5265
ENCODING 21093
SWIDTH 440 0
DWIDTH 13 0
BBX 11 12 0 -2
BITMAP
7C20
04A0
7CA0
04A0
04A0
FFA0
08A0
4AA0
2CA0
4A20
8920
3860
ENDCHAR
STARTCHAR p5267
ENCODING 21095
SWIDTH 440 0
DWIDTH 13 0
BBX 11 12 0 -2
BITMAP
7E20
4220
42A0
7EA0
48A0
7EA0
48A0
7EA0
62A0
A220
BE20
22E0
ENDCHAR
STARTCHAR p5269
ENCODING 21097
SWIDTH 440 0
DWIDTH 13 0
BBX 11 12 0 -2
BITMAP
1C20
7020
10A0
FEA0
54A0
D6A0
54A0
D6A0
38A0
5420
9220
1060
ENDCHAR
STARTCHAR p526A
ENCODING 21098
SWIDTH 440 0
DWIDTH 13 0
BBX 11 12 0 -2
BITMAP
1080
FFE0
0000
7D20
4520
7D20
4460
0000
7FC0
0840
1040
6180
ENDCHAR
STARTCHAR p526F
ENCODING 21103
SWIDTH 440 0
DWIDTH 13 0
BBX 11 12 0 -2
BITMAP
FE20
0020
7CA0
44A0
7CA0
00A0
FEA0
92A0
FEA0
9220
FE20
82E0
ENDCHAR
STARTCHAR p5272
ENCODING 21106
SWIDTH 440 0
DWIDTH 13 0
BBX 11 12 0 -2
BITMAP
1020
FE20
92A0
7CA0
10A0
7CA0
10A0
FEA0
10A0
7C20
4420
7C60
ENDCHAR
STARTCHAR p527D
ENCODING 21117
SWIDTH 440 0
DWIDTH 13 0
BBX 11 12 0 -2
BITMAP
FF20
2820
FEA0
AAA0
FEA0
00A0
7CA0
00A0
FEA0
1020
9420
B260
ENDCHAR
STARTCHAR p527F
ENCODING 21119
SWIDTH 440 0
DWIDTH 13 0
BBX 11 12 0 -2
BITMAP
5420
A8A0
54A0
FEA0
92A0
FEA0
92A0
FEA0
10A0
FEA0
5420
9260
ENDCHAR
STARTCHAR p5281
ENCODING 21121
SWIDTH 440 0
DWIDTH 13 0
BBX 11 12 0 -2
BITMAP
2820
24A0
7EA0
C8A0
7EA0
48A0
7EA0
48A0
7EA0
0020
5520
9560
ENDCHAR
STARTCHAR p5282
ENCODING 21122
SWIDTH 440 0
DWIDTH 13 0
BBX 11 12 0 -2
BITMAP
FF20
8020
D4A0
A4A0
FFA0
A5A0
AAA0
AAA0
FAA0
A220
A520
C960
ENDCHAR
STARTCHAR p5288
ENCODING 21128
SWIDTH 440 0
DWIDTH 13 0
BBX 11 12 0 -2
BITMAP
7C80
47E0
7D40
43E0
7C80
A7E0
3C80
0000
7FE0
0820
1020
E1C0
ENDCHAR
STARTCHAR p5290
ENCODING 21136
SWIDTH 440 0
DWIDTH 13 0
BBX 11 12 0 -2
BITMAP
4420
FE20
48A0
7EA0
C8A0
7EA0
48A0
7EA0
00A0
7E20
1820
E660
ENDCHAR
STARTCHAR p5293
ENCODING 21139
SWIDTH 440 0
DWIDTH 13 0
BBX 11 12 0 -2
BITMAP
1020
7CA0
44A0
7CA0
44A0
FEA0
92A0
FEA0
92A0
FEA0
4420
8460
ENDCHAR
STARTCHAR p529B
ENCODING 21147
SWIDTH 440 0
DWIDTH 13 0
BBX 11 12 0 -2
BITMAP
0400
0400
3FE0
0420
0420
0420
0420
0820
0820
1020
2020
C1C0
ENDCHAR
STARTCHAR p529D
ENCODING 21149
SWIDTH 440 0
DWIDTH 13 0
BBX 11 12 0 -2
BITMAP
0100
0100
7900
0FE0
4920
2920
1120
1120
2A20
4A20
8420
08C0
ENDCHAR
STARTCHAR p529E
ENCODING 21150
SWIDTH 440 0
DWIDTH 13 0
BBX 11 12 0 -2
BITMAP
0800
0800
0800
7F80
0880
48C0
48A0
88A0
1080
1080
2480
C300
ENDCHAR
STARTCHAR p529F
ENCODING 21151
SWIDTH 440 0
DWIDTH 13 0
BBX 11 12 0 -2
BITMAP
0100
0100
F900
27E0
2120
2120
2120
2120
3A20
E220
0420
08C0
ENDCHAR
STARTCHAR p52A0
ENCODING 21152
SWIDTH 440 0
DWIDTH 13 0
BBX 11 12 0 -2
BITMAP
2000
21E0
FD20
2520
2520
2520
2520
2520
2520
25E0
4520
9800
ENDCHAR
STARTCHAR p52A1
ENCODING 21153
SWIDTH 440 0
DWIDTH 13 0
BBX 11 12 0 -2
BITMAP
1000
1F80
3080
4900
0600
1980
E060
0400
7FC0
0840
3040
C380
ENDCHAR
STARTCHAR p52A2
ENCODING 21154
SWIDTH 440 0
DWIDTH 13 0
BBX 11 12 0 -2
BITMAP
0100
F900
4100
47E0
7920
4920
4920
4920
4920
4A20
8A20
B4C0
ENDCHAR
STARTCHAR p52A3
ENCODING 21155
SWIDTH 440 0
DWIDTH 13 0
BBX 11 12 0 -2
BITMAP
0400
2480
4440
85A0
0600
F800
0800
7FC0
0840
1040
2040
C380
ENDCHAR
STARTCHAR p52A8
ENCODING 21160
SWIDTH 440 0
DWIDTH 13 0
BBX 11 12 0 -2
BITMAP
0100
7100
0100
07E0
F920
2120
2120
5120
8A20
FA20
0420
08C0
ENDCHAR
STARTCHAR p52A9
ENCODING 21161
SWIDTH 440 0
DWIDTH 13 0
BBX 11 12 0 -2
BITMAP
7900
4900
4BE0
7920
4920
4920
7920
4920
4920
4D20
F220
04C0
ENDCHAR
STARTCHAR p52AA
ENCODING 21162
SWIDTH 440 0
DWIDTH 13 0
BBX 11 12 0 -2
BITMAP
2000
FBE0
4820
4940
3080
2940
C220
0800
7FC0
0840
1040
E180
ENDCHAR
STARTCHAR p52AB
ENCODING 21163
SWIDTH 440 0
DWIDTH 13 0
BBX 11 12 0 -2
BITMAP
2100
2100
F900
27E0
2120
F920
4120
5120
8A20
FA20
0420
08C0
ENDCHAR
STARTCHAR p52AC
ENCODING 21164
SWIDTH 440 0
DWIDTH 13 0
BBX 11 12 0 -2
BITMAP
4100
4100
7900
8BE0
0920
E920
A920
A920
E920
AA20
0A20
34C0
ENDCHAR
STARTCHAR p52AD
ENCODING 21165
SWIDTH 440 0
DWIDTH 13 0
BBX 11 12 0 -2
BITMAP
F900
4900
4900
4BE0
B120
0120
F920
8920
8920
8A20
FA20
8CC0
ENDCHAR
STARTCHAR p52B1
ENCODING 21169
SWIDTH 440 0
DWIDTH 13 0
BBX 11 12 0 -2
BITMAP
7D00
4100
43E0
7D20
5120
5D20
5520
5520
5520
5520
A520
CAC0
ENDCHAR
STARTCHAR p52B2
ENCODING 21170
SWIDTH 440 0
DWIDTH 13 0
BBX 11 12 0 -2
BITMAP
F900
1100
2100
57E0
8920
0120
F920
2120
2220
3A20
E420
09C0
ENDCHAR
STARTCHAR p52B3
ENCODING 21171
SWIDTH 440 0
DWIDTH 13 0
BBX 11 12 0 -2
BITMAP
1100
FFE0
1100
0000
FFE0
8020
8820
3F80
0880
1080
2080
C300
ENDCHAR
STARTCHAR p52BE
ENCODING 21182
SWIDTH 440 0
DWIDTH 13 0
BBX 11 12 0 -2
BITMAP
2100
1100
FD00
23E0
4920
7120
2520
4920
9220
2A20
4420
88C0
ENDCHAR
STARTCHAR p52BF
ENCODING 21183
SWIDTH 440 0
DWIDTH 13 0
BBX 11 12 0 -2
BITMAP
2200
F780
2280
3680
E280
25A0
6860
0400
7FC0
0840
3040
C380
ENDCHAR
STARTCHAR p52C3
ENCODING 21187
SWIDTH 440 0
DWIDTH 13 0
BBX 11 12 0 -2
BITMAP
2100
2100
FD00
23E0
FD20
8520
7920
1120
3A20
E220
2420
68C0
ENDCHAR
STARTCHAR p52C7
ENCODING 21191
SWIDTH 440 0
DWIDTH 13 0
BBX 11 12 0 -2
BITMAP
3FC0
0880
3FE0
2220
3FE0
2220
3FE0
0400
7FE0
0820
3020
C0C0
ENDCHAR
STARTCHAR p52C9
ENCODING 21193
SWIDTH 440 0
DWIDTH 13 0
BBX 11 12 0 -2
BITMAP
2100
3D00
4900
FFC0
5540
5540
5540
7D40
2A40
2D80
4820
87E0
ENDCHAR
STARTCHAR p52CB
ENCODING 21195
SWIDTH 440 0
DWIDTH 13 0
BBX 11 12 0 -2
BITMAP
7D00
4500
7D00
03E0
7D20
4520
5520
5520
5520
2920
4A20
84C0
ENDCHAR
STARTCHAR p52D0
ENCODING 21200
SWIDTH 440 0
DWIDTH 13 0
BBX 11 12 0 -2
BITMAP
7900
1100
2100
FBE0
2120
6120
0120
F920
A920
A920
FA20
04C0
ENDCHAR
STARTCHAR p52D2
ENCODING 21202
SWIDTH 440 0
DWIDTH 13 0
BBX 11 12 0 -2
BITMAP
5100
FD00
5100
77E0
2120
F920
A920
F920
2120
FE20
2220
24C0
ENDCHAR
STARTCHAR p52D6
ENCODING 21206
SWIDTH 440 0
DWIDTH 13 0
BBX 11 12 0 -2
BITMAP
FD00
8500
B500
87E0
B520
7920
4920
7920
4920
7A20
4C20
78C0
ENDCHAR
STARTCHAR p52D8
ENCODING 21208
SWIDTH 440 0
DWIDTH 13 0
BBX 11 12 0 -2
BITMAP
4900
FD00
4900
7BE0
4920
7920
4920
FD20
A920
C520
8220
7CC0
ENDCHAR
STARTCHAR p52DF
ENCODING 21215
SWIDTH 440 0
DWIDTH 13 0
BBX 11 12 0 -2
BITMAP
1100
FFE0
2080
3F80
2080
3F80
0800
FFE0
2440
DFA0
0880
7380
ENDCHAR
STARTCHAR p52E4
ENCODING 21220
SWIDTH 440 0
DWIDTH 13 0
BBX 11 12 0 -2
BITMAP
5100
FD00
53E0
5120
FD20
A520
FD20
2120
F920
2220
3A20
E4C0
ENDCHAR
STARTCHAR p52F0
ENCODING 21232
SWIDTH 440 0
DWIDTH 13 0
BBX 11 12 0 -2
BITMAP
23E0
FAA0
2BE0
4AA0
9AA0
03E0
5000
FCA0
5520
5700
5520
ACE0
ENDCHAR
STARTCHAR p52F9
ENCODING 21241
SWIDTH 440 0
DWIDTH 13 0
BBX 11 12 0 -2
BITMAP
1000
1000
3FE0
2020
4020
8020
0020
0020
0020
0020
0020
01C0
ENDCHAR
STARTCHAR p52FA
ENCODING 21242
SWIDTH 440 0
DWIDTH 13 0
BBX 11 12 0 -2
BITMAP
1000
1000
1FE0
2020
2020
4820
8420
0220
0020
0020
0020
00C0
ENDCHAR
STARTCHAR p52FE
ENCODING 21246
SWIDTH 440 0
DWIDTH 13 0
BBX 11 12 0 -2
BITMAP
1000
1000
3FE0
2020
4820
8820
1020
1220
2120
7FA0
0020
00C0
ENDCHAR
STARTCHAR p52FF
ENCODING 21247
SWIDTH 440 0
DWIDTH 13 0
BBX 11 12 0 -2
BITMAP
2000
2000
3FE0
2920
4920
9120
1220
2220
C420
0820
1240
6180
ENDCHAR
STARTCHAR p5300
ENCODING 21248
SWIDTH 440 0
DWIDTH 13 0
BBX 11 12 0 -2
BITMAP
2000
2000
3FE0
4020
9820
0620
0020
0120
0620
3820
0240
0180
ENDCHAR
STARTCHAR p5305
ENCODING 21253
SWIDTH 440 0
DWIDTH 13 0
BBX 11 12 0 -2
BITMAP
2000
3FC0
2040
4040
BE40
2240
2240
3E40
2180
2020
2020
1FE0
ENDCHAR
STARTCHAR p5306
ENCODING 21254
SWIDTH 440 0
DWIDTH 13 0
BBX 11 12 0 -2
BITMAP
2000
2000
3FE0
24A0
44A0
98A0
0D20
1320
62A0
0420
1820
60C0
ENDCHAR
STARTCHAR p5308
ENCODING 21256
SWIDTH 440 0
DWIDTH 13 0
BBX 11 12 0 -2
BITMAP
2000
3FE0
4020
9120
0A20
24A0
2AA0
31A0
20A0
3FA0
0020
01C0
ENDCHAR
STARTCHAR p530D
ENCODING 21261
SWIDTH 440 0
DWIDTH 13 0
BBX 11 12 0 -2
BITMAP
4000
7FE0
8920
FFA0
0820
7F20
4920
7F20
4920
7F20
4920
4BC0
ENDCHAR
STARTCHAR p530F
ENCODING 21263
SWIDTH 440 0
DWIDTH 13 0
BBX 11 12 0 -2
BITMAP
2200
FA00
57C0
8840
7740
0540
FD40
4740
F440
9580
1420
63E0
ENDCHAR
STARTCHAR p5310
ENCODING 21264
SWIDTH 440 0
DWIDTH 13 0
BBX 11 12 0 -2
BITMAP
2000
7FE0
8020
7F20
2220
3E20
0020
7F20
4920
7F20
4920
7F60
ENDCHAR
STARTCHAR p5315
ENCODING 21269
SWIDTH 440 0
DWIDTH 13 0
BBX 11 12 0 -2
BITMAP
2000
2000
2040
2180
2600
3800
2000
2000
2020
2020
1FE0
0000
ENDCHAR
STARTCHAR p5316
ENCODING 21270
SWIDTH 440 0
DWIDTH 13 0
BBX 11 12 0 -2
BITMAP
1200
1200
2220
2240
6280
A300
2600
2A00
2200
2220
2220
21E0
ENDCHAR
STARTCHAR p5317
ENCODING 21271
SWIDTH 440 0
DWIDTH 13 0
BBX 11 12 0 -2
BITMAP
0A00
0A00
0A20
0A40
FB80
0A00
0A00
0A00
0A00
3A20
CA20
09E0
ENDCHAR
STARTCHAR p5319
ENCODING 21273
SWIDTH 440 0
DWIDTH 13 0
BBX 11 12 0 -2
BITMAP
7D00
4500
7D20
45C0
7D00
0100
FF00
5120
5D20
50E0
B000
8FE0
ENDCHAR
STARTCHAR p531A
ENCODING 21274
SWIDTH 440 0
DWIDTH 13 0
BBX 11 12 0 -2
BITMAP
7FE0
4000
4000
4000
4000
4000
4000
4000
4000
4000
4000
7FE0
ENDCHAR
STARTCHAR p531D
ENCODING 21277
SWIDTH 440 0
DWIDTH 13 0
BBX 11 12 0 -2
BITMAP
7FE0
4000
4200
5FC0
5240
5240
5240
5240
52C0
4200
4000
7FE0
ENDCHAR
STARTCHAR p5320
ENCODING 21280
SWIDTH 440 0
DWIDTH 13 0
BBX 11 12 0 -2
BITMAP
FFE0
8000
81C0
9E00
9000
9FC0
9100
9100
9100
A100
8000
FFE0
ENDCHAR
STARTCHAR p5321
ENCODING 21281
SWIDTH 440 0
DWIDTH 13 0
BBX 11 12 0 -2
BITMAP
0000
7FE0
4000
5FC0
4200
4200
4F80
4200
4200
5FC0
4000
7FE0
ENDCHAR
STARTCHAR p5323
ENCODING 21283
SWIDTH 440 0
DWIDTH 13 0
BBX 11 12 0 -2
BITMAP
FFE0
8000
9FC0
9240
9FC0
9240
9FC0
8200
8200
8200
8000
FFE0
ENDCHAR
STARTCHAR p5326
ENCODING 21286
SWIDTH 440 0
DWIDTH 13 0
BBX 11 12 0 -2
BITMAP
FFE0
A200
FA00
A780
D280
FA80
9280
9A80
F2A0
9460
8000
FFE0
ENDCHAR
STARTCHAR p532A
ENCODING 21290
SWIDTH 440 0
DWIDTH 13 0
BBX 11 12 0 -2
BITMAP
FFE0
8000
8900
F9E0
8900
B9C0
8900
F9E0
8900
8900
8000
FFE0
ENDCHAR
STARTCHAR p532E
ENCODING 21294
SWIDTH 440 0
DWIDTH 13 0
BBX 11 12 0 -2
BITMAP
FFE0
8200
9FC0
9240
BFE0
8000
9FC0
9240
9540
8880
9040
FFE0
ENDCHAR
STARTCHAR p5339
ENCODING 21305
SWIDTH 440 0
DWIDTH 13 0
BBX 11 12 0 -2
BITMAP
7FE0
4900
4900
4900
4900
4900
5120
5120
60E0
4000
4000
3FE0
ENDCHAR
STARTCHAR p533A
ENCODING 21306
SWIDTH 440 0
DWIDTH 13 0
BBX 11 12 0 -2
BITMAP
7FE0
4000
4000
5040
4880
4500
4200
4500
4880
5040
4000
7FE0
ENDCHAR
STARTCHAR p533B
ENCODING 21307
SWIDTH 440 0
DWIDTH 13 0
BBX 11 12 0 -2
BITMAP
7FE0
4000
4800
4FC0
5200
4200
7FE0
4500
4880
7060
4000
7FE0
ENDCHAR
STARTCHAR p533E
ENCODING 21310
SWIDTH 440 0
DWIDTH 13 0
BBX 11 12 0 -2
BITMAP
FFE0
8400
BF80
A080
BF80
A000
BFC0
B540
DFC0
9540
8000
FFE0
ENDCHAR
STARTCHAR p533F
ENCODING 21311
SWIDTH 440 0
DWIDTH 13 0
BBX 11 12 0 -2
BITMAP
FFE0
9100
FFC0
9100
8800
FFC0
9000
BF80
D080
9F80
8000
FFE0
ENDCHAR
STARTCHAR p5341
ENCODING 21313
SWIDTH 440 0
DWIDTH 13 0
BBX 11 12 0 -2
BITMAP
0400
0400
0400
0400
0400
FFE0
0400
0400
0400
0400
0400
0400
ENDCHAR
STARTCHAR p5343
ENCODING 21315
SWIDTH 440 0
DWIDTH 13 0
BBX 11 12 0 -2
BITMAP
03C0
7C00
0400
0400
0400
FFE0
0400
0400
0400
0400
0400
0400
ENDCHAR
STARTCHAR p5345
ENCODING 21317
SWIDTH 440 0
DWIDTH 13 0
BBX 11 12 0 -2
BITMAP
2480
2480
2480
2480
2480
FFE0
2480
2480
2480
4480
4480
8080
ENDCHAR
STARTCHAR p5347
ENCODING 21319
SWIDTH 440 0
DWIDTH 13 0
BBX 11 12 0 -2
BITMAP
0D00
7100
1100
1100
1100
FFE0
1100
1100
2100
2100
4100
8100
ENDCHAR
STARTCHAR p5348
ENCODING 21320
SWIDTH 440 0
DWIDTH 13 0
BBX 11 12 0 -2
BITMAP
2000
2000
3FC0
4400
8400
0400
FFE0
0400
0400
0400
0400
0400
ENDCHAR
STARTCHAR p5349
ENCODING 21321
SWIDTH 440 0
DWIDTH 13 0
BBX 11 12 0 -2
BITMAP
0400
0400
7FC0
0400
0400
2080
2080
FFE0
2080
2080
4080
8080
ENDCHAR
STARTCHAR p534A
ENCODING 21322
SWIDTH 440 0
DWIDTH 13 0
BBX 11 12 0 -2
BITMAP
0400
4440
2480
1500
0400
7FC0
0400
0400
FFE0
0400
0400
0400
ENDCHAR
STARTCHAR p534E
ENCODING 21326
SWIDTH 440 0
DWIDTH 13 0
BBX 11 12 0 -2
BITMAP
1220
2240
6380
AE00
2220
21E0
0400
0400
FFE0
0400
0400
0400
ENDCHAR
STARTCHAR p534F
ENCODING 21327
SWIDTH 440 0
DWIDTH 13 0
BBX 11 12 0 -2
BITMAP
2200
2200
2200
27C0
F240
2240
2660
2A40
2240
2240
2440
2980
ENDCHAR
STARTCHAR p5351
ENCODING 21329
SWIDTH 440 0
DWIDTH 13 0
BBX 11 12 0 -2
BITMAP
0800
7FC0
4440
7FC0
4440
4440
7FC0
0A00
3200
FFE0
0200
0200
ENDCHAR
STARTCHAR p5352
ENCODING 21330
SWIDTH 440 0
DWIDTH 13 0
BBX 11 12 0 -2
BITMAP
0400
FFE0
0000
1080
1080
2940
4A20
0400
FFE0
0400
0400
0400
ENDCHAR
STARTCHAR p5353
ENCODING 21331
SWIDTH 440 0
DWIDTH 13 0
BBX 11 12 0 -2
BITMAP
0400
07E0
0400
7FC0
4040
7FC0
4040
7FC0
0400
FFE0
0400
0400
ENDCHAR
STARTCHAR p5355
ENCODING 21333
SWIDTH 440 0
DWIDTH 13 0
BBX 11 12 0 -2
BITMAP
2080
1100
7FC0
4440
7FC0
4440
4440
7FC0
0400
FFE0
0400
0400
ENDCHAR
STARTCHAR p5356
ENCODING 21334
SWIDTH 440 0
DWIDTH 13 0
BBX 11 12 0 -2
BITMAP
0400
7FC0
0400
0400
FFE0
2020
9420
4400
FFE0
0A00
3180
C060
ENDCHAR
STARTCHAR p5357
ENCODING 21335
SWIDTH 440 0
DWIDTH 13 0
BBX 11 12 0 -2
BITMAP
0400
FFE0
0400
7FC0
5140
4A40
5F40
4440
5F40
4440
4440
41C0
ENDCHAR
STARTCHAR p535A
ENCODING 21338
SWIDTH 440 0
DWIDTH 13 0
BBX 11 12 0 -2
BITMAP
4240
5FE0
4200
EFC0
4A40
4FC0
4A40
4080
5FE0
4080
4880
4580
ENDCHAR
STARTCHAR p535C
ENCODING 21340
SWIDTH 440 0
DWIDTH 13 0
BBX 11 12 0 -2
BITMAP
0800
0800
0800
0800
0A00
0900
0880
0840
0800
0800
0800
0800
ENDCHAR
STARTCHAR p535E
ENCODING 21342
SWIDTH 440 0
DWIDTH 13 0
BBX 11 12 0 -2
BITMAP
0400
0200
FFE0
0400
0400
0500
0480
0440
0400
0400
0400
0400
ENDCHAR
STARTCHAR p535F
ENCODING 21343
SWIDTH 440 0
DWIDTH 13 0
BBX 11 12 0 -2
BITMAP
0200
F200
9200
9280
9280
9240
9240
9240
F200
9200
0200
0200
ENDCHAR
STARTCHAR p5360
ENCODING 21344
SWIDTH 440 0
DWIDTH 13 0
BBX 11 12 0 -2
BITMAP
0400
0400
07E0
0400
0400
0400
7FC0
4040
4040
4040
7FC0
4040
ENDCHAR
STARTCHAR p5361
ENCODING 21345
SWIDTH 440 0
DWIDTH 13 0
BBX 11 12 0 -2
BITMAP
0400
0400
0780
0400
0400
FFE0
0400
0700
0480
0440
0400
0400
ENDCHAR
STARTCHAR p5362
ENCODING 21346
SWIDTH 440 0
DWIDTH 13 0
BBX 11 12 0 -2
BITMAP
0400
07E0
0400
0400
3FC0
2040
2040
3FC0
2040
2000
4000
8000
ENDCHAR
STARTCHAR p5363
ENCODING 21347
SWIDTH 440 0
DWIDTH 13 0
BBX 11 12 0 -2
BITMAP
0400
07E0
0400
7FC0
4040
7F40
4140
4140
7F40
4040
7FC0
4040
ENDCHAR
STARTCHAR p5364
ENCODING 21348
SWIDTH 440 0
DWIDTH 13 0
BBX 11 12 0 -2
BITMAP
0400
07E0
0400
7FC0
4040
5140
4A40
4440
4A40
5140
7FC0
4040
ENDCHAR
STARTCHAR p5366
ENCODING 21350
SWIDTH 440 0
DWIDTH 13 0
BBX 11 12 0 -2
BITMAP
2100
F900
2100
2100
FD80
2140
2120
F920
2100
2100
3D00
E100
ENDCHAR
STARTCHAR p5367
ENCODING 21351
SWIDTH 440 0
DWIDTH 13 0
BBX 11 12 0 -2
BITMAP
FD00
9100
9100
9100
FD80
8540
8520
FD20
9100
9100
9100
FD00
ENDCHAR
STARTCHAR p5369
ENCODING 21353
SWIDTH 440 0
DWIDTH 13 0
BBX 11 12 0 -2
BITMAP
1F80
1080
1080
1080
1080
1080
1080
1080
1300
1000
1000
1000
ENDCHAR
STARTCHAR p536B
ENCODING 21355
SWIDTH 440 0
DWIDTH 13 0
BBX 11 12 0 -2
BITMAP
0000
7FC0
0840
0840
0840
0840
0840
0840
0B80
0800
0800
FFE0
ENDCHAR
STARTCHAR p536E
ENCODING 21358
SWIDTH 440 0
DWIDTH 13 0
BBX 11 12 0 -2
BITMAP
07C0
7800
4000
7FE0
4000
5F80
5080
5080
5380
5020
9020
8FE0
ENDCHAR
STARTCHAR p536F
ENCODING 21359
SWIDTH 440 0
DWIDTH 13 0
BBX 11 12 0 -2
BITMAP
1DE0
6120
4920
4920
4920
4920
4920
5920
6920
09E0
1100
6100
ENDCHAR
STARTCHAR p5370
ENCODING 21360
SWIDTH 440 0
DWIDTH 13 0
BBX 11 12 0 -2
BITMAP
1800
63E0
4220
4220
7A20
4220
4220
4220
5A20
62C0
0200
0200
ENDCHAR
STARTCHAR p5371
ENCODING 21361
SWIDTH 440 0
DWIDTH 13 0
BBX 11 12 0 -2
BITMAP
1000
1F80
2100
7FE0
A000
2F80
2880
2880
2B80
2800
4820
87E0
ENDCHAR
STARTCHAR p5373
ENCODING 21363
SWIDTH 440 0
DWIDTH 13 0
BBX 11 12 0 -2
BITMAP
FBE0
8A20
FA20
8A20
8A20
FA20
8220
9220
9220
BAE0
CA00
0200
ENDCHAR
STARTCHAR p5374
ENCODING 21364
SWIDTH 440 0
DWIDTH 13 0
BBX 11 12 0 -2
BITMAP
1000
11E0
7D20
1120
1120
FF20
2120
2120
4920
FD60
0500
0100
ENDCHAR
STARTCHAR p5375
ENCODING 21365
SWIDTH 440 0
DWIDTH 13 0
BBX 11 12 0 -2
BITMAP
3800
C3E0
8A20
CA20
AB20
AAA0
8AA0
BA20
CA20
12E0
2200
C200
ENDCHAR
STARTCHAR p5377
ENCODING 21367
SWIDTH 440 0
DWIDTH 13 0
BBX 11 12 0 -2
BITMAP
2480
1500
7FC0
0800
FFE0
1100
2080
5F40
9120
1700
1040
0FC0
ENDCHAR
STARTCHAR p5378
ENCODING 21368
SWIDTH 440 0
DWIDTH 13 0
BBX 11 12 0 -2
BITMAP
4000
7DE0
9120
1120
FD20
1120
5120
5D20
5120
51C0
5D00
E100
ENDCHAR
STARTCHAR p537A
ENCODING 21370
SWIDTH 440 0
DWIDTH 13 0
BBX 11 12 0 -2
BITMAP
3F80
0100
F640
1580
2C80
DF60
0000
3F00
2100
2700
2040
1FC0
ENDCHAR
STARTCHAR p537F
ENCODING 21375
SWIDTH 440 0
DWIDTH 13 0
BBX 11 12 0 -2
BITMAP
6EE0
8AA0
AAA0
AEA0
AAA0
AAA0
AEA0
E8A0
AAA0
2AE0
4E80
9A80
ENDCHAR
STARTCHAR p5382
ENCODING 21378
SWIDTH 440 0
DWIDTH 13 0
BBX 11 12 0 -2
BITMAP
3FE0
2000
2000
2000
2000
2000
2000
2000
2000
4000
4000
8000
ENDCHAR
STARTCHAR p5384
ENCODING 21380
SWIDTH 440 0
DWIDTH 13 0
BBX 11 12 0 -2
BITMAP
3FE0
2000
2000
2FC0
2840
2840
2840
29C0
2800
4820
4820
87E0
ENDCHAR
STARTCHAR p5385
ENCODING 21381
SWIDTH 440 0
DWIDTH 13 0
BBX 11 12 0 -2
BITMAP
7FE0
4000
4000
4000
5FE0
4200
4200
4200
4200
4200
8200
8600
ENDCHAR
STARTCHAR p5386
ENCODING 21382
SWIDTH 440 0
DWIDTH 13 0
BBX 11 12 0 -2
BITMAP
7FE0
4000
4400
4400
5FC0
4440
4440
4440
4840
4840
9040
A380
ENDCHAR
STARTCHAR p5389
ENCODING 21385
SWIDTH 440 0
DWIDTH 13 0
BBX 11 12 0 -2
BITMAP
3FE0
2000
2000
3FE0
2400
2400
27E0
2420
2420
4820
4820
90C0
ENDCHAR
STARTCHAR p538B
ENCODING 21387
SWIDTH 440 0
DWIDTH 13 0
BBX 11 12 0 -2
BITMAP
7FE0
4000
4200
4200
4200
5FC0
4200
4280
4240
4200
8200
BFE0
ENDCHAR
STARTCHAR p538C
ENCODING 21388
SWIDTH 440 0
DWIDTH 13 0
BBX 11 12 0 -2
BITMAP
7FE0
4000
4280
4240
4200
7FE0
4200
4500
4500
4880
9040
A020
ENDCHAR
STARTCHAR p538D
ENCODING 21389
SWIDTH 440 0
DWIDTH 13 0
BBX 11 12 0 -2
BITMAP
7FE0
4000
4400
7FE0
4800
5200
5FC0
4200
4200
7FE0
8200
8200
ENDCHAR
STARTCHAR p5395
ENCODING 21397
SWIDTH 440 0
DWIDTH 13 0
BBX 11 12 0 -2
BITMAP
7FE0
4000
7E20
62A0
6AA0
6AA0
6AA0
6AA0
6AA0
5420
9420
A2E0
ENDCHAR
STARTCHAR p5398
ENCODING 21400
SWIDTH 440 0
DWIDTH 13 0
BBX 11 12 0 -2
BITMAP
7FE0
4000
5FC0
5240
5FC0
5240
5240
5FC0
4200
5FC0
8200
BFE0
ENDCHAR
STARTCHAR p539A
ENCODING 21402
SWIDTH 440 0
DWIDTH 13 0
BBX 11 12 0 -2
BITMAP
7FE0
4000
5FC0
5040
5FC0
5040
5FC0
4080
7FE0
4200
8200
8600
ENDCHAR
STARTCHAR p539D
ENCODING 21405
SWIDTH 440 0
DWIDTH 13 0
BBX 11 12 0 -2
BITMAP
7FE0
4000
4480
5FE0
4480
5FE0
4000
4FC0
4840
4FC0
8840
8FC0
ENDCHAR
STARTCHAR p539F
ENCODING 21407
SWIDTH 440 0
DWIDTH 13 0
BBX 11 12 0 -2
BITMAP
7FE0
4200
4400
5FC0
5040
5FC0
5040
5FC0
4200
5240
9220
A620
ENDCHAR
STARTCHAR p53A2
ENCODING 21410
SWIDTH 440 0
DWIDTH 13 0
BBX 11 12 0 -2
BITMAP
7FE0
4000
4BE0
4A20
7E20
4BE0
5A20
5BE0
6E20
6A20
4BE0
8A20
ENDCHAR
STARTCHAR p53A3
ENCODING 21411
SWIDTH 440 0
DWIDTH 13 0
BBX 11 12 0 -2
BITMAP
7FE0
4240
5FE0
4500
4880
7FE0
5240
5FC0
5240
5FC0
8200
8200
ENDCHAR
STARTCHAR p53A5
ENCODING 21413
SWIDTH 440 0
DWIDTH 13 0
BBX 11 12 0 -2
BITMAP
7FE0
4000
5500
7FE0
4920
6A40
6A80
7E80
4880
4940
9240
A420
ENDCHAR
STARTCHAR p53A6
ENCODING 21414
SWIDTH 440 0
DWIDTH 13 0
BBX 11 12 0 -2
BITMAP
7FE0
4000
5FC0
4200
4FC0
4840
4FC0
4840
4FC0
5480
8300
BCE0
ENDCHAR
STARTCHAR p53A8
ENCODING 21416
SWIDTH 440 0
DWIDTH 13 0
BBX 11 12 0 -2
BITMAP
7FE0
4000
7C40
4040
5DE0
5440
5440
5D40
40C0
5440
8E40
B0C0
ENDCHAR
STARTCHAR p53A9
ENCODING 21417
SWIDTH 440 0
DWIDTH 13 0
BBX 11 12 0 -2
BITMAP
7FE0
4000
5FE0
5480
5E80
5680
57E0
5C80
5080
55A0
9DA0
9260
ENDCHAR
STARTCHAR p53AE
ENCODING 21422
SWIDTH 440 0
DWIDTH 13 0
BBX 11 12 0 -2
BITMAP
7FE0
4000
5460
7F80
5500
5DE0
5540
5540
7F40
4140
9540
A240
ENDCHAR
STARTCHAR p53B6
ENCODING 21430
SWIDTH 440 0
DWIDTH 13 0
BBX 11 12 0 -2
BITMAP
0000
0400
0400
0400
0800
0880
1080
1040
21C0
7E20
0020
0000
ENDCHAR
STARTCHAR p53BB
ENCODING 21435
SWIDTH 440 0
DWIDTH 13 0
BBX 11 12 0 -2
BITMAP
0400
0400
7FC0
0400
0400
0400
FFE0
0400
0800
1080
2040
7FE0
ENDCHAR
STARTCHAR p53BF
ENCODING 21439
SWIDTH 440 0
DWIDTH 13 0
BBX 11 12 0 -2
BITMAP
3F80
2080
3F80
2080
3F80
2080
2080
FFE0
1000
1100
2080
7FC0
ENDCHAR
STARTCHAR p53C1
ENCODING 21441
SWIDTH 440 0
DWIDTH 13 0
BBX 11 12 0 -2
BITMAP
0900
1080
3FC0
0800
FFE0
1100
2080
DF60
0000
3F80
0000
FFE0
ENDCHAR
STARTCHAR p53C2
ENCODING 21442
SWIDTH 440 0
DWIDTH 13 0
BBX 11 12 0 -2
BITMAP
1200
2100
7F80
1000
FFE0
2500
4880
B260
0C80
3100
0600
7800
ENDCHAR
STARTCHAR p53C8
ENCODING 21448
SWIDTH 440 0
DWIDTH 13 0
BBX 11 12 0 -2
BITMAP
0000
7FC0
0040
2040
2080
1080
1100
0A00
0400
0A00
3180
C060
ENDCHAR
STARTCHAR p53C9
ENCODING 21449
SWIDTH 440 0
DWIDTH 13 0
BBX 11 12 0 -2
BITMAP
7FC0
0040
2840
2440
2280
1080
1100
0A00
0400
0A00
3180
C060
ENDCHAR
STARTCHAR p53CA
ENCODING 21450
SWIDTH 440 0
DWIDTH 13 0
BBX 11 12 0 -2
BITMAP
7F80
1080
1100
1200
13C0
1840
1840
1480
2500
2300
4480
9860
ENDCHAR
STARTCHAR p53CB
ENCODING 21451
SWIDTH 440 0
DWIDTH 13 0
BBX 11 12 0 -2
BITMAP
0800
0800
FFE0
0800
0800
1FC0
1040
2880
2500
4600
9980
6060
ENDCHAR
STARTCHAR p53CC
ENCODING 21452
SWIDTH 440 0
DWIDTH 13 0
BBX 11 12 0 -2
BITMAP
0000
FBC0
0840
0A40
4A40
2A80
1280
1100
2900
2680
4240
8420
ENDCHAR
STARTCHAR p53CD
ENCODING 21453
SWIDTH 440 0
DWIDTH 13 0
BBX 11 12 0 -2
BITMAP
01C0
3E00
2000
2000
3FC0
2040
3080
2880
2500
4200
4D80
B060
ENDCHAR
STARTCHAR p53D1
ENCODING 21457
SWIDTH 440 0
DWIDTH 13 0
BBX 11 12 0 -2
BITMAP
2480
2440
4400
7FE0
0800
0F80
1080
1900
2500
4200
8D80
3060
ENDCHAR
STARTCHAR p53D4
ENCODING 21460
SWIDTH 440 0
DWIDTH 13 0
BBX 11 12 0 -2
BITMAP
1000
13E0
1C20
1020
1120
FD20
1140
5940
5480
9480
1140
3620
ENDCHAR
STARTCHAR p53D6
ENCODING 21462
SWIDTH 440 0
DWIDTH 13 0
BBX 11 12 0 -2
BITMAP
FC00
4BE0
4820
7A20
4A20
4940
7940
4880
4C80
F940
0A40
0C20
ENDCHAR
STARTCHAR p53D7
ENCODING 21463
SWIDTH 440 0
DWIDTH 13 0
BBX 11 12 0 -2
BITMAP
03C0
7C00
2440
1280
FFE0
8020
BFA0
1080
0900
0600
1980
E060
ENDCHAR
STARTCHAR p53D8
ENCODING 21464
SWIDTH 440 0
DWIDTH 13 0
BBX 11 12 0 -2
BITMAP
0400
FFE0
0A00
2A80
4A40
8A20
3F80
2080
1100
0E00
3180
C060
ENDCHAR
STARTCHAR p53D9
ENCODING 21465
SWIDTH 440 0
DWIDTH 13 0
BBX 11 12 0 -2
BITMAP
1000
2BE0
4420
B820
1220
1240
7D40
1180
5880
5540
9240
3420
ENDCHAR
STARTCHAR p53DB
ENCODING 21467
SWIDTH 440 0
DWIDTH 13 0
BBX 11 12 0 -2
BITMAP
28C0
B700
6400
2400
F7C0
2440
2540
F540
2480
2580
4A40
9420
ENDCHAR
STARTCHAR p53DF
ENCODING 21471
SWIDTH 440 0
DWIDTH 13 0
BBX 11 12 0 -2
BITMAP
0400
75C0
4440
75C0
4440
7FC0
0400
7FC0
2080
1100
0E00
F1E0
ENDCHAR
STARTCHAR p53E0
ENCODING 21472
SWIDTH 440 0
DWIDTH 13 0
BBX 11 12 0 -2
BITMAP
3F80
1100
2A80
7FC0
2A80
5540
FFE0
2080
2480
3F80
2080
FFE0
ENDCHAR
STARTCHAR p53E3
ENCODING 21475
SWIDTH 440 0
DWIDTH 13 0
BBX 11 12 0 -2
BITMAP
0000
0000
7FC0
4040
4040
4040
4040
4040
4040
4040
7FC0
4040
ENDCHAR
STARTCHAR p53E4
ENCODING 21476
SWIDTH 440 0
DWIDTH 13 0
BBX 11 12 0 -2
BITMAP
0400
0400
FFE0
0400
0400
0400
7FC0
4040
4040
4040
7FC0
4040
ENDCHAR
STARTCHAR p53E5
ENCODING 21477
SWIDTH 440 0
DWIDTH 13 0
BBX 11 12 0 -2
BITMAP
2000
3FE0
2020
4020
9F20
1120
1120
1120
1F20
1120
0020
00C0
ENDCHAR
STARTCHAR p53E6
ENCODING 21478
SWIDTH 440 0
DWIDTH 13 0
BBX 11 12 0 -2
BITMAP
3FC0
2040
2040
2040
3FC0
0400
7FE0
0420
0420
0820
3020
C1C0
ENDCHAR
STARTCHAR p53E8
ENCODING 21480
SWIDTH 440 0
DWIDTH 13 0
BBX 11 12 0 -2
BITMAP
0000
F7E0
9120
9120
9120
9120
9120
9120
F220
9220
0420
08C0
ENDCHAR
STARTCHAR p53E9
ENCODING 21481
SWIDTH 440 0
DWIDTH 13 0
BBX 11 12 0 -2
BITMAP
79E0
4920
4920
4920
4920
4920
4920
7920
4960
4100
0100
0100
ENDCHAR
STARTCHAR p53EA
ENCODING 21482
SWIDTH 440 0
DWIDTH 13 0
BBX 11 12 0 -2
BITMAP
3F80
2080
2080
2080
2080
2080
3F80
0000
1100
2080
4040
8020
ENDCHAR
STARTCHAR p53EB
ENCODING 21483
SWIDTH 440 0
DWIDTH 13 0
BBX 11 12 0 -2
BITMAP
0040
F440
9440
9440
9440
9440
9440
95C0
F640
9040
0040
0040
ENDCHAR
STARTCHAR p53EC
ENCODING 21484
SWIDTH 440 0
DWIDTH 13 0
BBX 11 12 0 -2
BITMAP
7FC0
0840
0840
1040
2380
4000
3FC0
2040
2040
2040
3FC0
2040
ENDCHAR
STARTCHAR p53ED
ENCODING 21485
SWIDTH 440 0
DWIDTH 13 0
BBX 11 12 0 -2
BITMAP
F280
9280
9280
9280
9280
9280
9280
F280
9480
0440
0840
1020
ENDCHAR
STARTCHAR p53EE
ENCODING 21486
SWIDTH 440 0
DWIDTH 13 0
BBX 11 12 0 -2
BITMAP
F7E0
9080
9080
9080
9080
9080
9080
9080
F080
9080
8080
0380
ENDCHAR
STARTCHAR p53EF
ENCODING 21487
SWIDTH 440 0
DWIDTH 13 0
BBX 11 12 0 -2
BITMAP
0000
FFE0
0080
0080
7C80
4480
4480
4480
7C80
4480
0080
0380
ENDCHAR
STARTCHAR p53F0
ENCODING 21488
SWIDTH 440 0
DWIDTH 13 0
BBX 11 12 0 -2
BITMAP
0400
0800
1080
2040
7FE0
0000
3FC0
2040
2040
2040
3FC0
2040
ENDCHAR
STARTCHAR p53F1
ENCODING 21489
SWIDTH 440 0
DWIDTH 13 0
BBX 11 12 0 -2
BITMAP
0200
F200
9220
9240
9280
9300
9600
9200
F200
9220
0220
01E0
ENDCHAR
STARTCHAR p53F2
ENCODING 21490
SWIDTH 440 0
DWIDTH 13 0
BBX 11 12 0 -2
BITMAP
0400
0400
7FC0
4440
4440
4440
7FC0
2400
1400
0800
1600
E1E0
ENDCHAR
STARTCHAR p53F3
ENCODING 21491
SWIDTH 440 0
DWIDTH 13 0
BBX 11 12 0 -2
BITMAP
0400
0400
7FE0
0800
0800
1000
1FC0
3040
5040
9040
1FC0
1040
ENDCHAR
STARTCHAR p53F5
ENCODING 21493
SWIDTH 440 0
DWIDTH 13 0
BBX 11 12 0 -2
BITMAP
7FE0
4000
4000
4F80
4880
4880
4880
4F80
4880
4000
4000
7FE0
ENDCHAR
STARTCHAR p53F6
ENCODING 21494
SWIDTH 440 0
DWIDTH 13 0
BBX 11 12 0 -2
BITMAP
0100
F100
9100
9100
9FE0
9100
9100
9100
F100
9100
0100
0100
ENDCHAR
STARTCHAR p53F7
ENCODING 21495
SWIDTH 440 0
DWIDTH 13 0
BBX 11 12 0 -2
BITMAP
3F80
2080
2080
3F80
0000
FFE0
1000
1000
1F80
0080
0080
0700
ENDCHAR
STARTCHAR p53F8
ENCODING 21496
SWIDTH 440 0
DWIDTH 13 0
BBX 11 12 0 -2
BITMAP
7FE0
0020
0020
7FA0
0020
3F20
2120
2120
2120
3F20
0020
0060
ENDCHAR
STARTCHAR p53F9
ENCODING 21497
SWIDTH 440 0
DWIDTH 13 0
BBX 11 12 0 -2
BITMAP
07E0
F020
9020
9420
9440
9240
9280
9100
F100
9280
0440
1820
ENDCHAR
STARTCHAR p53FB
ENCODING 21499
SWIDTH 440 0
DWIDTH 13 0
BBX 11 12 0 -2
BITMAP
0100
F100
97E0
9120
9120
9120
9120
9120
F220
9220
0420
08C0
ENDCHAR
STARTCHAR p53FC
ENCODING 21500
SWIDTH 440 0
DWIDTH 13 0
BBX 11 12 0 -2
BITMAP
07E0
F020
9020
9120
9120
9120
9220
9220
F420
9020
0240
0180
ENDCHAR
STARTCHAR p53FD
ENCODING 21501
SWIDTH 440 0
DWIDTH 13 0
BBX 11 12 0 -2
BITMAP
0780
F480
9480
9480
9480
9480
9480
9480
F480
94A0
08A0
1060
ENDCHAR
STARTCHAR p5401
ENCODING 21505
SWIDTH 440 0
DWIDTH 13 0
BBX 11 12 0 -2
BITMAP
07C0
F100
9100
9100
9100
9FE0
9100
F100
9100
0100
0100
0300
ENDCHAR
STARTCHAR p5403
ENCODING 21507
SWIDTH 440 0
DWIDTH 13 0
BBX 11 12 0 -2
BITMAP
0400
E400
AFC0
A800
B000
AF80
A100
A200
E400
A820
0820
07E0
ENDCHAR
STARTCHAR p5404
ENCODING 21508
SWIDTH 440 0
DWIDTH 13 0
BBX 11 12 0 -2
BITMAP
1000
1F80
3080
4900
0600
1980
E060
3F80
2080
2080
3F80
2080
ENDCHAR
STARTCHAR p5406
ENCODING 21510
SWIDTH 440 0
DWIDTH 13 0
BBX 11 12 0 -2
BITMAP
0080
F080
9100
9220
9440
9780
9080
9100
F240
9440
0FE0
0020
ENDCHAR
STARTCHAR p5408
ENCODING 21512
SWIDTH 440 0
DWIDTH 13 0
BBX 11 12 0 -2
BITMAP
0400
0A00
1100
2080
5F40
8020
0000
3F80
2080
2080
3F80
2080
ENDCHAR
STARTCHAR p5409
ENCODING 21513
SWIDTH 440 0
DWIDTH 13 0
BBX 11 12 0 -2
BITMAP
0400
0400
FFE0
0400
0400
7FC0
0000
3F80
2080
2080
3F80
2080
ENDCHAR
STARTCHAR p540A
ENCODING 21514
SWIDTH 440 0
DWIDTH 13 0
BBX 11 12 0 -2
BITMAP
3FC0
2040
2040
3FC0
0400
0400
7FE0
4420
4420
4420
44E0
0400
ENDCHAR
STARTCHAR p540C
ENCODING 21516
SWIDTH 440 0
DWIDTH 13 0
BBX 11 12 0 -2
BITMAP
7FE0
4020
5FA0
4020
4020
4F20
4920
4920
4F20
4020
4020
4060
ENDCHAR
STARTCHAR p540D
ENCODING 21517
SWIDTH 440 0
DWIDTH 13 0
BBX 11 12 0 -2
BITMAP
1000
1FC0
2040
5080
0900
0200
0C00
3FE0
D020
1020
1FE0
1020
ENDCHAR
STARTCHAR p540E
ENCODING 21518
SWIDTH 440 0
DWIDTH 13 0
BBX 11 12 0 -2
BITMAP
01C0
3E00
2000
3FE0
2000
2000
2FC0
2840
2840
4840
4FC0
8840
ENDCHAR
STARTCHAR p540F
ENCODING 21519
SWIDTH 440 0
DWIDTH 13 0
BBX 11 12 0 -2
BITMAP
0400
FFE0
0400
7FC0
4440
4440
7FC0
2400
1400
0C00
3300
C0E0
ENDCHAR
STARTCHAR p5410
ENCODING 21520
SWIDTH 440 0
DWIDTH 13 0
BBX 11 12 0 -2
BITMAP
0100
0100
F100
9100
97C0
9100
9100
9100
9100
F100
9100
0FE0
ENDCHAR
STARTCHAR p5411
ENCODING 21521
SWIDTH 440 0
DWIDTH 13 0
BBX 11 12 0 -2
BITMAP
0800
1000
7FE0
4020
4020
4F20
4920
4920
4920
4F20
4020
4060
ENDCHAR
STARTCHAR p5412
ENCODING 21522
SWIDTH 440 0
DWIDTH 13 0
BBX 11 12 0 -2
BITMAP
00C0
F700
9100
9100
9100
97E0
9100
9100
F100
9120
0120
00E0
ENDCHAR
STARTCHAR p5413
ENCODING 21523
SWIDTH 440 0
DWIDTH 13 0
BBX 11 12 0 -2
BITMAP
0FE0
F200
9200
9200
9380
9240
9220
9200
F200
9200
0200
0200
ENDCHAR
STARTCHAR p5415
ENCODING 21525
SWIDTH 440 0
DWIDTH 13 0
BBX 11 12 0 -2
BITMAP
3FC0
2040
2040
2040
3FC0
0000
7FE0
4020
4020
4020
7FE0
4020
ENDCHAR
STARTCHAR p5416
ENCODING 21526
SWIDTH 440 0
DWIDTH 13 0
BBX 11 12 0 -2
BITMAP
0820
F440
9280
9100
9100
9100
9100
9100
F100
9100
0100
0100
ENDCHAR
STARTCHAR p5417
ENCODING 21527
SWIDTH 440 0
DWIDTH 13 0
BBX 11 12 0 -2
BITMAP
07C0
F040
9440
9440
9440
9440
97E0
F020
97A0
0020
0020
03C0
ENDCHAR
STARTCHAR p541B
ENCODING 21531
SWIDTH 440 0
DWIDTH 13 0
BBX 11 12 0 -2
BITMAP
7F80
0880
FFE0
0880
0880
7F80
1000
3FC0
5040
9040
1FC0
1040
ENDCHAR
STARTCHAR p541D
ENCODING 21533
SWIDTH 440 0
DWIDTH 13 0
BBX 11 12 0 -2
BITMAP
0400
FFE0
1100
0A00
0400
1B00
E0E0
3F80
2080
2080
3F80
2080
ENDCHAR
STARTCHAR p541E
ENCODING 21534
SWIDTH 440 0
DWIDTH 13 0
BBX 11 12 0 -2
BITMAP
07C0
7C00
0800
FFE0
1100
2080
C060
3F80
2080
2080
3F80
2080
ENDCHAR
STARTCHAR p541F
ENCODING 21535
SWIDTH 440 0
DWIDTH 13 0
BBX 11 12 0 -2
BITMAP
0200
E300
A480
A840
B220
A100
AFC0
A040
E080
A080
0100
0200
ENDCHAR
STARTCHAR p5420
ENCODING 21536
SWIDTH 440 0
DWIDTH 13 0
BBX 11 12 0 -2
BITMAP
0280
E240
A200
BFE0
A200
A200
A200
A500
E500
A880
9040
2020
ENDCHAR
STARTCHAR p5421
ENCODING 21537
SWIDTH 440 0
DWIDTH 13 0
BBX 11 12 0 -2
BITMAP
0480
F480
9480
94A0
96C0
9480
9480
9480
F480
95A0
06A0
0C60
ENDCHAR
STARTCHAR p5423
ENCODING 21539
SWIDTH 440 0
DWIDTH 13 0
BBX 11 12 0 -2
BITMAP
0200
0100
E080
A200
AA00
AA40
AA20
AA20
EA00
A240
0240
01C0
ENDCHAR
STARTCHAR p5426
ENCODING 21542
SWIDTH 440 0
DWIDTH 13 0
BBX 11 12 0 -2
BITMAP
FFE0
0200
0400
0D80
3440
C420
0400
7FC0
4040
4040
7FC0
4040
ENDCHAR
STARTCHAR p5427
ENCODING 21543
SWIDTH 440 0
DWIDTH 13 0
BBX 11 12 0 -2
BITMAP
07C0
F540
9540
9540
9540
97C0
9440
F400
9400
8420
0420
03E0
ENDCHAR
STARTCHAR p5428
ENCODING 21544
SWIDTH 440 0
DWIDTH 13 0
BBX 11 12 0 -2
BITMAP
0200
E200
BFE0
A200
AA40
AA40
AA40
AFC0
EA40
A200
8220
01E0
ENDCHAR
STARTCHAR p5429
ENCODING 21545
SWIDTH 440 0
DWIDTH 13 0
BBX 11 12 0 -2
BITMAP
0280
F280
9440
9440
9820
97C0
9240
9240
F240
9440
0840
1180
ENDCHAR
STARTCHAR p542B
ENCODING 21547
SWIDTH 440 0
DWIDTH 13 0
BBX 11 12 0 -2
BITMAP
0E00
1100
2880
4440
BFA0
0100
0200
3F80
2080
2080
3F80
2080
ENDCHAR
STARTCHAR p542C
ENCODING 21548
SWIDTH 440 0
DWIDTH 13 0
BBX 11 12 0 -2
BITMAP
00E0
F700
9400
9400
97E0
9480
9480
9480
F480
9480
0880
0880
ENDCHAR
STARTCHAR p542D
ENCODING 21549
SWIDTH 440 0
DWIDTH 13 0
BBX 11 12 0 -2
BITMAP
0200
E100
AFE0
A000
A780
A480
A480
A480
E480
A480
08A0
1060
ENDCHAR
STARTCHAR p542E
ENCODING 21550
SWIDTH 440 0
DWIDTH 13 0
BBX 11 12 0 -2
BITMAP
0200
E200
A480
A840
BFE0
A500
A500
A500
E500
A900
1120
20E0
ENDCHAR
STARTCHAR p542F
ENCODING 21551
SWIDTH 440 0
DWIDTH 13 0
BBX 11 12 0 -2
BITMAP
0200
3FE0
2020
2020
3FE0
2000
2000
3FE0
3020
5020
5FE0
9020
ENDCHAR
STARTCHAR p5431
ENCODING 21553
SWIDTH 440 0
DWIDTH 13 0
BBX 11 12 0 -2
BITMAP
0100
F100
9FE0
9100
9100
97C0
9040
9440
F280
9100
0280
0C60
ENDCHAR
STARTCHAR p5432
ENCODING 21554
SWIDTH 440 0
DWIDTH 13 0
BBX 11 12 0 -2
BITMAP
0720
F120
9120
9720
9420
9420
9720
9120
F120
9120
8120
0620
ENDCHAR
STARTCHAR p5434
ENCODING 21556
SWIDTH 440 0
DWIDTH 13 0
BBX 11 12 0 -2
BITMAP
3F80
2080
2080
3F80
0000
7FC0
0400
FFE0
0A00
1100
2080
C060
ENDCHAR
STARTCHAR p5435
ENCODING 21557
SWIDTH 440 0
DWIDTH 13 0
BBX 11 12 0 -2
BITMAP
0100
F100
9540
9540
9520
9920
9100
9120
F040
9080
0300
1C00
ENDCHAR
STARTCHAR p5438
ENCODING 21560
SWIDTH 440 0
DWIDTH 13 0
BBX 11 12 0 -2
BITMAP
0F80
E880
A880
A900
A9C0
A840
A840
AC80
EA80
B100
1280
0C60
ENDCHAR
STARTCHAR p5439
ENCODING 21561
SWIDTH 440 0
DWIDTH 13 0
BBX 11 12 0 -2
BITMAP
0400
0400
F7E0
9420
9940
9100
9100
9100
F280
9280
0440
1820
ENDCHAR
STARTCHAR p543B
ENCODING 21563
SWIDTH 440 0
DWIDTH 13 0
BBX 11 12 0 -2
BITMAP
0400
E400
A7E0
AAA0
B2A0
A2A0
A4A0
A520
E920
A220
0420
08C0
ENDCHAR
STARTCHAR p543C
ENCODING 21564
SWIDTH 440 0
DWIDTH 13 0
BBX 11 12 0 -2
BITMAP
0F80
E180
A280
A480
A480
A780
BC80
A480
E480
A4A0
04A0
1C60
ENDCHAR
STARTCHAR p543E
ENCODING 21566
SWIDTH 440 0
DWIDTH 13 0
BBX 11 12 0 -2
BITMAP
7FC0
0800
3F80
1080
1080
7FE0
0000
3F80
2080
2080
3F80
2080
ENDCHAR
STARTCHAR p5440
ENCODING 21568
SWIDTH 440 0
DWIDTH 13 0
BBX 11 12 0 -2
BITMAP
EFE0
A080
A480
A480
A880
AFE0
A180
A280
E480
8880
1080
0380
ENDCHAR
STARTCHAR p5443
ENCODING 21571
SWIDTH 440 0
DWIDTH 13 0
BBX 11 12 0 -2
BITMAP
0FE0
E800
A800
ABC0
AA40
AA40
AA40
EAC0
AA00
1200
1220
21E0
ENDCHAR
STARTCHAR p5446
ENCODING 21574
SWIDTH 440 0
DWIDTH 13 0
BBX 11 12 0 -2
BITMAP
3F80
2080
2080
2080
3F80
0400
FFE0
0E00
1500
2480
C460
0400
ENDCHAR
STARTCHAR p5448
ENCODING 21576
SWIDTH 440 0
DWIDTH 13 0
BBX 11 12 0 -2
BITMAP
3F80
2080
2080
3F80
0000
7FC0
0400
0400
3F80
0400
0400
FFE0
ENDCHAR
STARTCHAR p544A
ENCODING 21578
SWIDTH 440 0
DWIDTH 13 0
BBX 11 12 0 -2
BITMAP
2400
2400
3FC0
4400
0400
FFE0
0000
3F80
2080
2080
3F80
2080
ENDCHAR
STARTCHAR p544B
ENCODING 21579
SWIDTH 440 0
DWIDTH 13 0
BBX 11 12 0 -2
BITMAP
0100
F100
97C0
9100
9100
9100
9FE0
9100
F280
9280
0440
1820
ENDCHAR
STARTCHAR p5450
ENCODING 21584
SWIDTH 440 0
DWIDTH 13 0
BBX 11 12 0 -2
BITMAP
0100
E100
AFE0
A920
A920
A920
AAA0
AAA0
EC60
A820
0820
0860
ENDCHAR
STARTCHAR p5452
ENCODING 21586
SWIDTH 440 0
DWIDTH 13 0
BBX 11 12 0 -2
BITMAP
07C0
F100
9100
9100
9FE0
9100
9100
9280
F280
9480
08A0
3060
ENDCHAR
ENDFONT
